<svg width="67" height="119" viewBox="0 0 67 119" fill="none" xmlns="http://www.w3.org/2000/svg">
    <g filter="url(#filter0_d)">
        <path fill-rule="evenodd" clip-rule="evenodd" d="M33.1947 61.2717C32.2327 61.2717 31.4528 60.4903 31.4528 59.5262C31.4528 58.5624 32.2327 57.7807 33.1947 57.7807C34.157 57.7807 34.9367 58.5624 34.9367 59.5262C34.9367 60.4903 34.157 61.2717 33.1947 61.2717ZM41.0755 58.1643C40.0615 58.1398 39.0458 58.12 38.0297 58.1059C36.1424 58.0792 34.6279 56.5338 34.6166 54.6425L34.5656 46.1444C34.487 41.6839 34.4573 37.2234 34.3237 32.7629C34.1101 23.8419 33.7958 14.921 33.1951 6C32.5942 14.921 32.2799 23.8419 32.0665 32.7629C31.9329 37.2234 31.903 41.6839 31.8244 46.1444L31.7734 54.6396C31.7621 56.532 30.246 58.0787 28.3572 58.1028C27.3423 58.1157 26.3283 58.1339 25.3154 58.1586V60.8932C26.1295 60.913 27.2541 60.9295 28.3358 60.9425C30.2326 60.9649 31.7611 62.5072 31.772 64.408L31.8204 72.9073C31.9014 77.368 31.927 81.8282 32.0623 86.289C32.275 95.2097 32.5907 104.131 33.1951 113.052C33.7993 104.131 34.1153 95.2097 34.3277 86.289C34.463 81.8282 34.4886 77.368 34.5696 72.9073C34.5696 72.9073 34.599 67.9334 34.6202 64.408C34.6314 62.5171 36.1459 60.9726 38.0332 60.946C39.0477 60.9316 40.0622 60.9121 41.0755 60.8873V58.1643Z" fill="white" />
    </g>
    <g filter="url(#filter1_d)">
        <path fill-rule="evenodd" clip-rule="evenodd" d="M62.3524 59.5255C59.1412 59.1299 55.9297 58.8565 52.7185 58.6585V60.3924C55.9297 60.1947 59.1412 59.921 62.3524 59.5255Z" fill="white" />
        <path fill-rule="evenodd" clip-rule="evenodd" d="M47.7649 60.6544H47.7705C48.8391 60.6079 49.9075 60.5554 50.9761 60.4974V58.5541C49.9075 58.4959 48.8391 58.4436 47.7705 58.3969H47.7649V60.6544Z" fill="white" />
        <path fill-rule="evenodd" clip-rule="evenodd" d="M42.8169 60.8407C43.8855 60.8117 44.9539 60.7768 46.0225 60.7301V58.3213C44.9539 58.2751 43.8855 58.24 42.8169 58.211V60.8407Z" fill="white" />
        <path fill-rule="evenodd" clip-rule="evenodd" d="M13.672 58.6525C10.4607 58.8505 7.2493 59.1239 4.03809 59.5253C7.2493 59.9268 10.4607 60.2 13.672 60.398V58.6525Z" fill="white" />
        <path fill-rule="evenodd" clip-rule="evenodd" d="M15.4148 60.503C16.4834 60.5612 17.5461 60.6135 18.6145 60.6602H18.6204V58.3912H18.6145C17.5461 58.4376 16.4834 58.4899 15.4148 58.5482V60.503Z" fill="white" />
        <path fill-rule="evenodd" clip-rule="evenodd" d="M20.3608 60.7361C21.4294 60.7825 22.4978 60.8174 23.5721 60.8467V58.2052C22.4978 58.2342 21.4294 58.2693 20.3608 58.3158V60.7361Z" fill="white" />
    </g>
    <g filter="url(#filter2_d)">
        <path fill-rule="evenodd" clip-rule="evenodd" d="M33.1947 61.2717C32.2327 61.2717 31.4528 60.4903 31.4528 59.5262C31.4528 58.5624 32.2327 57.7807 33.1947 57.7807C34.157 57.7807 34.9367 58.5624 34.9367 59.5262C34.9367 60.4903 34.157 61.2717 33.1947 61.2717ZM41.0755 58.1643C40.0615 58.1398 39.0458 58.12 38.0297 58.1059C36.1424 58.0792 34.6279 56.5338 34.6166 54.6425L34.5656 46.1444C34.487 41.6839 34.4573 37.2234 34.3237 32.7629C34.1101 23.8419 33.7958 14.921 33.1951 6C32.5942 14.921 32.2799 23.8419 32.0665 32.7629C31.9329 37.2234 31.903 41.6839 31.8244 46.1444L31.7734 54.6396C31.7621 56.532 30.246 58.0787 28.3572 58.1028C27.3423 58.1157 26.3283 58.1339 25.3154 58.1586V60.8932C26.1295 60.913 27.2541 60.9295 28.3358 60.9425C30.2326 60.9649 31.7611 62.5072 31.772 64.408L31.8204 72.9073C31.9014 77.368 31.927 81.8282 32.0623 86.289C32.275 95.2097 32.5907 104.131 33.1951 113.052C33.7993 104.131 34.1153 95.2097 34.3277 86.289C34.463 81.8282 34.4886 77.368 34.5696 72.9073C34.5696 72.9073 34.599 67.9334 34.6202 64.408C34.6314 62.5171 36.1459 60.9726 38.0332 60.946C39.0477 60.9316 40.0622 60.9121 41.0755 60.8873V58.1643Z" fill="white" />
    </g>
    <defs>
        <filter id="filter0_d" x="19.584" y="0.26854" width="27.223" height="118.515" filterUnits="userSpaceOnUse" color-interpolation-filters="sRGB">
            <feFlood flood-opacity="0" result="BackgroundImageFix" />
            <feColorMatrix in="SourceAlpha" type="matrix" values="0 0 0 0 0 0 0 0 0 0 0 0 0 0 0 0 0 0 127 0" />
            <feOffset />
            <feGaussianBlur stdDeviation="2.86573" />
            <feColorMatrix type="matrix" values="0 0 0 0 1 0 0 0 0 1 0 0 0 0 1 0 0 0 1 0" />
            <feBlend mode="normal" in2="BackgroundImageFix" result="effect1_dropShadow" />
            <feBlend mode="normal" in="SourceGraphic" in2="effect1_dropShadow" result="shape" />
        </filter>
        <filter id="filter1_d" x="0.217112" y="54.3842" width="65.9562" height="10.2834" filterUnits="userSpaceOnUse" color-interpolation-filters="sRGB">
            <feFlood flood-opacity="0" result="BackgroundImageFix" />
            <feColorMatrix in="SourceAlpha" type="matrix" values="0 0 0 0 0 0 0 0 0 0 0 0 0 0 0 0 0 0 127 0" />
            <feOffset />
            <feGaussianBlur stdDeviation="1.91049" />
            <feColorMatrix type="matrix" values="0 0 0 0 1 0 0 0 0 1 0 0 0 0 1 0 0 0 1 0" />
            <feBlend mode="normal" in2="BackgroundImageFix" result="effect1_dropShadow" />
            <feBlend mode="normal" in="SourceGraphic" in2="effect1_dropShadow" result="shape" />
        </filter>
        <filter id="filter2_d" x="19.584" y="0.26854" width="27.223" height="118.515" filterUnits="userSpaceOnUse" color-interpolation-filters="sRGB">
            <feFlood flood-opacity="0" result="BackgroundImageFix" />
            <feColorMatrix in="SourceAlpha" type="matrix" values="0 0 0 0 0 0 0 0 0 0 0 0 0 0 0 0 0 0 127 0" />
            <feOffset />
            <feGaussianBlur stdDeviation="2.86573" />
            <feColorMatrix type="matrix" values="0 0 0 0 1 0 0 0 0 1 0 0 0 0 1 0 0 0 0.5 0" />
            <feBlend mode="normal" in2="BackgroundImageFix" result="effect1_dropShadow" />
            <feBlend mode="normal" in="SourceGraphic" in2="effect1_dropShadow" result="shape" />
        </filter>
    </defs>
</svg>
