<svg width="382" height="142" viewBox="0 0 382 142" fill="none" xmlns="http://www.w3.org/2000/svg">
<path opacity="0.298442" fill-rule="evenodd" clip-rule="evenodd" d="M171.307 -12.643C171.307 -12.643 201.768 14.642 219.873 25.252C237.979 35.863 247.903 31.316 247.903 31.316C247.903 31.316 263.89 35.98 273.671 43.5C283.453 51.021 281.937 64.663 288 72.242C294.063 79.821 319.074 74.515 319.074 74.515L356.549 115.915L381.323 141.968C381.323 141.968 354.584 107.105 350.092 99.526C345.6 91.947 314.527 47.989 308.463 40.41C302.4 32.831 294.063 34.347 288 23.736C281.937 13.126 275.116 1 265.263 -8.095C255.411 -17.19 234.966 -30.832 223.967 -36.895C212.968 -42.958 195.537 -49.021 195.537 -49.021L165.221 -55.843L135.663 -72H0C0 -72 66.54 -26.285 96.782 -14.916C108.221 -10.616 171.307 -12.643 171.307 -12.643Z" fill="url(#paint0_linear)"/>
<defs>
<linearGradient id="paint0_linear" x1="504.603" y1="63.0015" x2="428.012" y2="-169.097" gradientUnits="userSpaceOnUse">
<stop stop-color="white"/>
<stop offset="1" stop-color="#565CD2"/>
</linearGradient>
</defs>
</svg>
