<svg width="859" height="551" viewBox="0 0 859 551" fill="none" xmlns="http://www.w3.org/2000/svg">
<path opacity="0.460529" fill-rule="evenodd" clip-rule="evenodd" d="M0 77.3199C0 77.3199 127.332 172.193 186.046 197.187C186.046 197.187 259.486 191.713 269.416 197.187C279.348 202.661 322.959 229.688 327.471 240.199C331.984 250.706 334.993 273.229 344.014 283.739C353.039 294.25 434.248 333.288 462.822 337.793C491.396 342.296 560.574 355.811 574.108 364.821C587.645 373.828 583.133 394.849 590.651 405.36C598.17 415.868 643.287 433.885 661.336 445.899C679.382 457.91 735.762 454.906 752.689 462.412C769.613 469.922 805.708 492.444 805.708 492.444L819.227 504.455C819.227 504.455 811.691 529.979 819.227 537.488C826.761 544.994 858.344 551 858.344 551C858.344 551 834.282 526.977 834.282 511.962C834.282 496.946 819.227 484.934 819.227 484.934C819.227 484.934 744.048 450.401 733.521 441.394C722.993 432.384 628.25 354.307 620.731 340.795C613.21 327.283 596.667 289.745 587.645 279.234C578.621 268.727 492.899 246.204 471.844 237.194C450.791 228.187 423.694 201.16 410.925 178.638C398.153 156.116 374.091 93.7739 366.573 85.5484C359.054 77.3199 299.223 0.889465 299.223 0.889465L0 77.3199Z" fill="url(#paint0_linear)"/>
<defs>
<linearGradient id="paint0_linear" x1="34" y1="101.5" x2="94.4301" y2="554.358" gradientUnits="userSpaceOnUse">
<stop offset="0.000792177" stop-color="white" stop-opacity="0.01"/>
<stop offset="1" stop-color="#564FC1"/>
</linearGradient>
</defs>
</svg>
