<svg width="341" height="336" viewBox="0 0 341 336" fill="none" xmlns="http://www.w3.org/2000/svg">
<path opacity="0.298442" fill-rule="evenodd" clip-rule="evenodd" d="M-182 46.8486C-182 46.8486 -104.415 104.623 -68.64 119.844C-68.64 119.844 -23.8916 116.511 -17.8415 119.844C-11.7896 123.177 14.7831 139.636 17.5325 146.037C20.2819 152.435 22.1154 166.151 27.6124 172.551C33.1112 178.952 82.593 202.725 100.003 205.469C117.414 208.21 159.565 216.441 167.812 221.927C176.06 227.412 173.31 240.214 177.892 246.614C182.473 253.013 209.963 263.985 220.961 271.302C231.956 278.616 266.309 276.787 276.623 281.358C286.935 285.931 308.929 299.646 308.929 299.646L317.166 306.96C317.166 306.96 312.574 322.503 317.166 327.076C321.756 331.648 341 335.305 341 335.305C341 335.305 326.339 320.676 326.339 311.532C326.339 302.387 317.166 295.073 317.166 295.073C317.166 295.073 271.358 274.043 264.944 268.558C258.529 263.071 200.801 215.525 196.22 207.296C191.637 199.068 181.557 176.209 176.06 169.808C170.561 163.409 118.33 149.694 105.5 144.207C92.673 138.722 76.1621 122.263 68.3818 108.548C60.5997 94.8329 45.9387 56.8685 41.3576 51.8594C36.7765 46.8486 0.320724 0.30481 0.320724 0.30481L-182 46.8486Z" fill="url(#paint0_linear)"/>
<defs>
<linearGradient id="paint0_linear" x1="510.083" y1="211.67" x2="377.154" y2="-141.212" gradientUnits="userSpaceOnUse">
<stop stop-color="white"/>
<stop offset="1" stop-color="#565CD2"/>
</linearGradient>
</defs>
</svg>
