<svg width="272" height="1611" viewBox="0 0 272 1611" fill="none" xmlns="http://www.w3.org/2000/svg">
<path fill-rule="evenodd" clip-rule="evenodd" d="M75.4332 437.252C73.6675 437.252 72.2361 435.821 72.2361 434.057C72.2361 432.291 73.6675 430.86 75.4332 430.86C77.1973 430.86 78.6287 432.291 78.6287 434.057C78.6287 435.821 77.1973 437.252 75.4332 437.252Z" fill="white"/>
<path fill-rule="evenodd" clip-rule="evenodd" d="M301.73 343.921C299.965 343.921 298.533 342.489 298.533 340.724C298.533 338.958 299.965 337.528 301.73 337.528C303.496 337.528 304.926 338.958 304.926 340.724C304.926 342.489 303.496 343.921 301.73 343.921Z" fill="white"/>
<path fill-rule="evenodd" clip-rule="evenodd" d="M268.489 313.236C266.723 313.236 265.292 311.805 265.292 310.041C265.292 308.275 266.723 306.844 268.489 306.844C270.255 306.844 271.685 308.275 271.685 310.041C271.685 311.805 270.255 313.236 268.489 313.236Z" fill="white"/>
<path fill-rule="evenodd" clip-rule="evenodd" d="M144.472 172.6C142.706 172.6 141.276 171.168 141.276 169.404C141.276 167.638 142.706 166.207 144.472 166.207C146.238 166.207 147.669 167.638 147.669 169.404C147.669 171.168 146.238 172.6 144.472 172.6Z" fill="white"/>
<path fill-rule="evenodd" clip-rule="evenodd" d="M278.717 12.7851C276.952 12.7851 275.52 11.3537 275.52 9.58804C275.52 7.82393 276.952 6.39254 278.717 6.39254C280.483 6.39254 281.913 7.82393 281.913 9.58804C281.913 11.3537 280.483 12.7851 278.717 12.7851Z" fill="white"/>
<path fill-rule="evenodd" clip-rule="evenodd" d="M164.929 25.5703C163.162 25.5703 161.732 24.1389 161.732 22.3732C161.732 20.6091 163.162 19.1777 164.929 19.1777C166.695 19.1777 168.125 20.6091 168.125 22.3732C168.125 24.1389 166.695 25.5703 164.929 25.5703Z" fill="white"/>
<path fill-rule="evenodd" clip-rule="evenodd" d="M144.472 432.138C142.706 432.138 141.276 430.707 141.276 428.941C141.276 427.177 142.706 425.746 144.472 425.746C146.238 425.746 147.669 427.177 147.669 428.941C147.669 430.707 146.238 432.138 144.472 432.138Z" fill="white"/>
<path fill-rule="evenodd" clip-rule="evenodd" d="M207.12 170.043C205.354 170.043 203.923 168.611 203.923 166.845C203.923 165.081 205.354 163.65 207.12 163.65C208.886 163.65 210.316 165.081 210.316 166.845C210.316 168.611 208.886 170.043 207.12 170.043Z" fill="white"/>
<path fill-rule="evenodd" clip-rule="evenodd" d="M60.7304 484.557C59.3164 484.557 58.1725 483.412 58.1725 482C58.1725 480.589 59.3164 479.443 60.7304 479.443C62.1426 479.443 63.2866 480.589 63.2866 482C63.2866 483.412 62.1426 484.557 60.7304 484.557Z" fill="white"/>
<path fill-rule="evenodd" clip-rule="evenodd" d="M143.833 131.687C142.421 131.687 141.276 130.542 141.276 129.13C141.276 127.718 142.421 126.573 143.833 126.573C145.245 126.573 146.39 127.718 146.39 129.13C146.39 130.542 145.245 131.687 143.833 131.687Z" fill="white"/>
<path fill-rule="evenodd" clip-rule="evenodd" d="M99.0842 379.719C97.672 379.719 96.528 378.574 96.528 377.162C96.528 375.75 97.672 374.605 99.0842 374.605C100.496 374.605 101.642 375.75 101.642 377.162C101.642 378.574 100.496 379.719 99.0842 379.719Z" fill="white"/>
<path fill-rule="evenodd" clip-rule="evenodd" d="M243.557 506.292C242.146 506.292 241 505.147 241 503.735C241 502.323 242.146 501.178 243.557 501.178C244.969 501.178 246.114 502.323 246.114 503.735C246.114 505.147 244.969 506.292 243.557 506.292Z" fill="white"/>
<path fill-rule="evenodd" clip-rule="evenodd" d="M136.162 507.571C134.75 507.571 133.605 506.425 133.605 505.013C133.605 503.601 134.75 502.457 136.162 502.457C137.574 502.457 138.719 503.601 138.719 505.013C138.719 506.425 137.574 507.571 136.162 507.571Z" fill="white"/>
<path fill-rule="evenodd" clip-rule="evenodd" d="M129.13 360.541C128.072 360.541 127.212 359.682 127.212 358.624C127.212 357.563 128.072 356.706 129.13 356.706C130.189 356.706 131.048 357.563 131.048 358.624C131.048 359.682 130.189 360.541 129.13 360.541Z" fill="white"/>
<path fill-rule="evenodd" clip-rule="evenodd" d="M155.979 235.247C154.92 235.247 154.061 234.388 154.061 233.329C154.061 232.27 154.92 231.411 155.979 231.411C157.037 231.411 157.897 232.27 157.897 233.329C157.897 234.388 157.037 235.247 155.979 235.247Z" fill="white"/>
<path fill-rule="evenodd" clip-rule="evenodd" d="M102.282 67.7613C101.222 67.7613 100.364 66.9021 100.364 65.8435C100.364 64.7831 101.222 63.9258 102.282 63.9258C103.34 63.9258 104.199 64.7831 104.199 65.8435C104.199 66.9021 103.34 67.7613 102.282 67.7613Z" fill="white"/>
<path fill-rule="evenodd" clip-rule="evenodd" d="M145.751 67.7613C144.692 67.7613 143.833 66.9021 143.833 65.8435C143.833 64.7831 144.692 63.9258 145.751 63.9258C146.809 63.9258 147.669 64.7831 147.669 65.8435C147.669 66.9021 146.809 67.7613 145.751 67.7613Z" fill="white"/>
<path fill-rule="evenodd" clip-rule="evenodd" d="M255.703 102.281C254.645 102.281 253.785 101.422 253.785 100.363C253.785 99.303 254.645 98.4457 255.703 98.4457C256.762 98.4457 257.621 99.303 257.621 100.363C257.621 101.422 256.762 102.281 255.703 102.281Z" fill="white"/>
<path fill-rule="evenodd" clip-rule="evenodd" d="M90.1354 441.088C89.4293 441.088 88.8569 440.515 88.8569 439.809C88.8569 439.103 89.4293 438.531 90.1354 438.531C90.8415 438.531 91.4139 439.103 91.4139 439.809C91.4139 440.515 90.8415 441.088 90.1354 441.088Z" fill="white"/>
<path fill-rule="evenodd" clip-rule="evenodd" d="M100.364 372.048C99.6575 372.048 99.0851 371.476 99.0851 370.769C99.0851 370.063 99.6575 369.491 100.364 369.491C101.07 369.491 101.642 370.063 101.642 370.769C101.642 371.476 101.07 372.048 100.364 372.048Z" fill="white"/>
<path fill-rule="evenodd" clip-rule="evenodd" d="M72.2362 373.327C71.532 373.327 70.9577 372.754 70.9577 372.047C70.9577 371.34 71.532 370.769 72.2362 370.769C72.9423 370.769 73.5147 371.34 73.5147 372.047C73.5147 372.754 72.9423 373.327 72.2362 373.327Z" fill="white"/>
<path fill-rule="evenodd" clip-rule="evenodd" d="M78.6288 388.669C77.9227 388.669 77.3503 388.096 77.3503 387.389C77.3503 386.684 77.9227 386.112 78.6288 386.112C79.3349 386.112 79.9073 386.684 79.9073 387.389C79.9073 388.096 79.3349 388.669 78.6288 388.669Z" fill="white"/>
<path fill-rule="evenodd" clip-rule="evenodd" d="M73.5147 356.706C72.8086 356.706 72.2362 356.133 72.2362 355.426C72.2362 354.72 72.8086 354.149 73.5147 354.149C74.2208 354.149 74.7933 354.72 74.7933 355.426C74.7933 356.133 74.2208 356.706 73.5147 356.706Z" fill="white"/>
<path fill-rule="evenodd" clip-rule="evenodd" d="M33.8798 5.11403C33.1761 5.11403 32.6023 4.54119 32.6023 3.83457C32.6023 3.12795 33.1761 2.557 33.8798 2.557C34.5854 2.557 35.1593 3.12795 35.1593 3.83457C35.1593 4.54119 34.5854 5.11403 33.8798 5.11403Z" fill="white"/>
<path fill-rule="evenodd" clip-rule="evenodd" d="M166.846 452.594C166.14 452.594 165.568 452.022 165.568 451.316C165.568 450.61 166.14 450.037 166.846 450.037C167.552 450.037 168.125 450.61 168.125 451.316C168.125 452.022 167.552 452.594 166.846 452.594Z" fill="white"/>
<path fill-rule="evenodd" clip-rule="evenodd" d="M98.4464 392.299C98.2073 392.299 98.0117 392.105 98.0117 391.864C98.0117 391.625 98.2073 391.431 98.4464 391.431C98.6854 391.431 98.8798 391.625 98.8798 391.864C98.8798 392.105 98.6854 392.299 98.4464 392.299Z" fill="white"/>
<path fill-rule="evenodd" clip-rule="evenodd" d="M14.0631 127.646C13.824 127.646 13.6297 127.452 13.6297 127.213C13.6297 126.973 13.824 126.778 14.0631 126.778C14.3021 126.778 14.4978 126.973 14.4978 127.213C14.4978 127.452 14.3021 127.646 14.0631 127.646Z" fill="white"/>
<path fill-rule="evenodd" clip-rule="evenodd" d="M98.4451 249.105C98.206 249.105 98.0117 248.911 98.0117 248.672C98.0117 248.432 98.206 248.237 98.4451 248.237C98.6842 248.237 98.8798 248.432 98.8798 248.672C98.8798 248.911 98.6842 249.105 98.4451 249.105Z" fill="white"/>
<path fill-rule="evenodd" clip-rule="evenodd" d="M106.116 112.304C105.877 112.304 105.683 112.11 105.683 111.871C105.683 111.63 105.877 111.436 106.116 111.436C106.355 111.436 106.551 111.63 106.551 111.871C106.551 112.11 106.355 112.304 106.116 112.304Z" fill="white"/>
<path fill-rule="evenodd" clip-rule="evenodd" d="M107.396 318.145C107.157 318.145 106.961 317.951 106.961 317.712C106.961 317.471 107.157 317.277 107.396 317.277C107.635 317.277 107.829 317.471 107.829 317.712C107.829 317.951 107.635 318.145 107.396 318.145Z" fill="white"/>
<path fill-rule="evenodd" clip-rule="evenodd" d="M101.002 233.763C100.763 233.763 100.569 233.569 100.569 233.33C100.569 233.089 100.763 232.895 101.002 232.895C101.241 232.895 101.437 233.089 101.437 233.33C101.437 233.569 101.241 233.763 101.002 233.763Z" fill="white"/>
<path fill-rule="evenodd" clip-rule="evenodd" d="M98.4451 26.6437C98.206 26.6437 98.0117 26.4493 98.0117 26.2102C98.0117 25.9699 98.206 25.7755 98.4451 25.7755C98.6842 25.7755 98.8798 25.9699 98.8798 26.2102C98.8798 26.4493 98.6842 26.6437 98.4451 26.6437Z" fill="white"/>
<path fill-rule="evenodd" clip-rule="evenodd" d="M101.002 4.90886C100.763 4.90886 100.569 4.71452 100.569 4.47544C100.569 4.23508 100.763 4.04074 101.002 4.04074C101.241 4.04074 101.437 4.23508 101.437 4.47544C101.437 4.71452 101.241 4.90886 101.002 4.90886Z" fill="white"/>
<path fill-rule="evenodd" clip-rule="evenodd" d="M89.4968 384.628C89.2578 384.628 89.0621 384.434 89.0621 384.195C89.0621 383.954 89.2578 383.76 89.4968 383.76C89.7359 383.76 89.9303 383.954 89.9303 384.195C89.9303 384.434 89.7359 384.628 89.4968 384.628Z" fill="white"/>
<path fill-rule="evenodd" clip-rule="evenodd" d="M88.217 270.84C87.9779 270.84 87.7836 270.646 87.7836 270.407C87.7836 270.166 87.9779 269.972 88.217 269.972C88.4561 269.972 88.6517 270.166 88.6517 270.407C88.6517 270.646 88.4561 270.84 88.217 270.84Z" fill="white"/>
<path fill-rule="evenodd" clip-rule="evenodd" d="M86.9385 112.304C86.6994 112.304 86.5051 112.11 86.5051 111.871C86.5051 111.63 86.6994 111.436 86.9385 111.436C87.1775 111.436 87.3732 111.63 87.3732 111.871C87.3732 112.11 87.1775 112.304 86.9385 112.304Z" fill="white"/>
<path fill-rule="evenodd" clip-rule="evenodd" d="M108.035 388.669C107.328 388.669 106.756 388.096 106.756 387.389C106.756 386.684 107.328 386.112 108.035 386.112C108.741 386.112 109.313 386.684 109.313 387.389C109.313 388.096 108.741 388.669 108.035 388.669Z" fill="white"/>
<path fill-rule="evenodd" clip-rule="evenodd" d="M109.313 333.693C108.607 333.693 108.035 333.12 108.035 332.413C108.035 331.708 108.607 331.135 109.313 331.135C110.019 331.135 110.592 331.708 110.592 332.413C110.592 333.12 110.019 333.693 109.313 333.693Z" fill="white"/>
<path fill-rule="evenodd" clip-rule="evenodd" d="M160.454 104.838C159.748 104.838 159.175 104.265 159.175 103.559C159.175 102.852 159.748 102.281 160.454 102.281C161.16 102.281 161.732 102.852 161.732 103.559C161.732 104.265 161.16 104.838 160.454 104.838Z" fill="white"/>
<path fill-rule="evenodd" clip-rule="evenodd" d="M253.785 356.706C253.079 356.706 252.507 356.133 252.507 355.426C252.507 354.72 253.079 354.149 253.785 354.149C254.491 354.149 255.064 354.72 255.064 355.426C255.064 356.133 254.491 356.706 253.785 356.706Z" fill="white"/>
<path fill-rule="evenodd" clip-rule="evenodd" d="M331.775 310.679C331.069 310.679 330.496 310.107 330.496 309.401C330.496 308.695 331.069 308.122 331.775 308.122C332.481 308.122 333.053 308.695 333.053 309.401C333.053 310.107 332.481 310.679 331.775 310.679Z" fill="white"/>
<path fill-rule="evenodd" clip-rule="evenodd" d="M68.4007 292.78C67.6946 292.78 67.1222 292.207 67.1222 291.501C67.1222 290.794 67.6946 290.223 68.4007 290.223C69.1068 290.223 69.6792 290.794 69.6792 291.501C69.6792 292.207 69.1068 292.78 68.4007 292.78Z" fill="white"/>
<path fill-rule="evenodd" clip-rule="evenodd" d="M161.732 98.4457C161.026 98.4457 160.454 97.8733 160.454 97.1672C160.454 96.4611 161.026 95.8887 161.732 95.8887C162.438 95.8887 163.011 96.4611 163.011 97.1672C163.011 97.8733 162.438 98.4457 161.732 98.4457Z" fill="white"/>
<path fill-rule="evenodd" clip-rule="evenodd" d="M230.772 79.268C230.066 79.268 229.494 78.6951 229.494 77.9885C229.494 77.2819 230.066 76.7109 230.772 76.7109C231.478 76.7109 232.051 77.2819 232.051 77.9885C232.051 78.6951 231.478 79.268 230.772 79.268Z" fill="white"/>
<path fill-rule="evenodd" clip-rule="evenodd" d="M230.772 33.2414C230.066 33.2414 229.494 32.669 229.494 31.9629C229.494 31.2568 230.066 30.6843 230.772 30.6843C231.478 30.6843 232.051 31.2568 232.051 31.9629C232.051 32.669 231.478 33.2414 230.772 33.2414Z" fill="white"/>
<path fill-rule="evenodd" clip-rule="evenodd" d="M297.255 181.549C296.549 181.549 295.976 180.976 295.976 180.27C295.976 179.563 296.549 178.992 297.255 178.992C297.961 178.992 298.533 179.563 298.533 180.27C298.533 180.976 297.961 181.549 297.255 181.549Z" fill="white"/>
<path fill-rule="evenodd" clip-rule="evenodd" d="M329.218 282.552C328.512 282.552 327.939 281.98 327.939 281.273C327.939 280.567 328.512 279.995 329.218 279.995C329.924 279.995 330.496 280.567 330.496 281.273C330.496 281.98 329.924 282.552 329.218 282.552Z" fill="white"/>
<path fill-rule="evenodd" clip-rule="evenodd" d="M151.504 63.9258C150.798 63.9258 150.226 63.3529 150.226 62.6463C150.226 61.9397 150.798 61.3687 151.504 61.3687C152.21 61.3687 152.783 61.9397 152.783 62.6463C152.783 63.3529 152.21 63.9258 151.504 63.9258Z" fill="white"/>
<path fill-rule="evenodd" clip-rule="evenodd" d="M234.608 31.9629C233.902 31.9629 233.329 31.3905 233.329 30.6844C233.329 29.9783 233.902 29.4059 234.608 29.4059C235.314 29.4059 235.886 29.9783 235.886 30.6844C235.886 31.3905 235.314 31.9629 234.608 31.9629Z" fill="white"/>
<path fill-rule="evenodd" clip-rule="evenodd" d="M234.608 98.4457C233.902 98.4457 233.329 97.8733 233.329 97.1672C233.329 96.4611 233.902 95.8887 234.608 95.8887C235.314 95.8887 235.886 96.4611 235.886 97.1672C235.886 97.8733 235.314 98.4457 234.608 98.4457Z" fill="white"/>
<path fill-rule="evenodd" clip-rule="evenodd" d="M281.913 204.562C281.207 204.562 280.634 203.99 280.634 203.283C280.634 202.576 281.207 202.005 281.913 202.005C282.619 202.005 283.191 202.576 283.191 203.283C283.191 203.99 282.619 204.562 281.913 204.562Z" fill="white"/>
<path fill-rule="evenodd" clip-rule="evenodd" d="M166.846 318.35C166.14 318.35 165.568 317.778 165.568 317.072C165.568 316.366 166.14 315.793 166.846 315.793C167.552 315.793 168.125 316.366 168.125 317.072C168.125 317.778 167.552 318.35 166.846 318.35Z" fill="white"/>
<path fill-rule="evenodd" clip-rule="evenodd" d="M249.95 117.623C249.244 117.623 248.671 117.051 248.671 116.344C248.671 115.637 249.244 115.066 249.95 115.066C250.656 115.066 251.228 115.637 251.228 116.344C251.228 117.051 250.656 117.623 249.95 117.623Z" fill="white"/>
<path fill-rule="evenodd" clip-rule="evenodd" d="M272.963 2.55703C272.257 2.55703 271.685 1.9842 271.685 1.27757C271.685 0.570951 272.257 0 272.963 0C273.669 0 274.242 0.570951 274.242 1.27757C274.242 1.9842 273.669 2.55703 272.963 2.55703Z" fill="white"/>
<path fill-rule="evenodd" clip-rule="evenodd" d="M221.822 296.616C221.116 296.616 220.544 296.043 220.544 295.337C220.544 294.631 221.116 294.059 221.822 294.059C222.529 294.059 223.101 294.631 223.101 295.337C223.101 296.043 222.529 296.616 221.822 296.616Z" fill="white"/>
<path fill-rule="evenodd" clip-rule="evenodd" d="M311.319 115.066C310.613 115.066 310.04 114.494 310.04 113.787C310.04 113.08 310.613 112.509 311.319 112.509C312.025 112.509 312.597 113.08 312.597 113.787C312.597 114.494 312.025 115.066 311.319 115.066Z" fill="white"/>
<path fill-rule="evenodd" clip-rule="evenodd" d="M173.239 379.719C172.533 379.719 171.96 379.146 171.96 378.44C171.96 377.733 172.533 377.162 173.239 377.162C173.945 377.162 174.517 377.733 174.517 378.44C174.517 379.146 173.945 379.719 173.239 379.719Z" fill="white"/>
<path fill-rule="evenodd" clip-rule="evenodd" d="M269.47 656.814C270.718 658.062 270.718 660.086 269.47 661.335C268.222 662.583 266.199 662.583 264.949 661.335C263.701 660.086 263.701 658.062 264.949 656.814C266.199 655.566 268.222 655.566 269.47 656.814Z" fill="white"/>
<path fill-rule="evenodd" clip-rule="evenodd" d="M260.52 505.95C261.768 507.197 261.768 509.222 260.52 510.47C259.273 511.718 257.249 511.718 256 510.47C254.752 509.222 254.752 507.197 256 505.95C257.249 504.702 259.273 504.702 260.52 505.95Z" fill="white"/>
<path fill-rule="evenodd" clip-rule="evenodd" d="M219.608 609.509C220.856 610.757 220.856 612.781 219.608 614.03C218.36 615.278 216.335 615.278 215.087 614.03C213.839 612.781 213.839 610.757 215.087 609.509C216.335 608.261 218.36 608.261 219.608 609.509Z" fill="white"/>
<path fill-rule="evenodd" clip-rule="evenodd" d="M314.406 633.614C315.404 634.612 315.404 636.231 314.406 637.231C313.408 638.229 311.788 638.229 310.79 637.231C309.79 636.231 309.79 634.612 310.79 633.614C311.788 632.616 313.408 632.616 314.406 633.614Z" fill="white"/>
<path fill-rule="evenodd" clip-rule="evenodd" d="M214.681 679.64C215.679 680.638 215.679 682.258 214.681 683.256C213.683 684.256 212.064 684.256 211.066 683.256C210.066 682.258 210.066 680.638 211.066 679.64C212.064 678.642 213.683 678.642 214.681 679.64Z" fill="white"/>
<path fill-rule="evenodd" clip-rule="evenodd" d="M278.607 562.017C279.605 563.015 279.605 564.634 278.607 565.632C277.609 566.632 275.99 566.632 274.991 565.632C273.992 564.634 273.992 563.015 274.991 562.017C275.99 561.019 277.609 561.019 278.607 562.017Z" fill="white"/>
<path fill-rule="evenodd" clip-rule="evenodd" d="M179.07 671.783C179.819 672.532 179.819 673.746 179.07 674.495C178.322 675.243 177.108 675.243 176.357 674.495C175.609 673.746 175.609 672.532 176.357 671.783C177.108 671.033 178.322 671.033 179.07 671.783Z" fill="white"/>
<path fill-rule="evenodd" clip-rule="evenodd" d="M263.639 642.189C264.138 642.688 264.138 643.498 263.639 643.997C263.14 644.497 262.33 644.497 261.831 643.997C261.332 643.498 261.332 642.688 261.831 642.189C262.33 641.69 263.14 641.69 263.639 642.189Z" fill="white"/>
<path fill-rule="evenodd" clip-rule="evenodd" d="M207.384 683.102C207.884 683.601 207.884 684.411 207.384 684.91C206.885 685.409 206.075 685.409 205.576 684.91C205.077 684.411 205.077 683.601 205.576 683.102C206.075 682.602 206.885 682.602 207.384 683.102Z" fill="white"/>
<path fill-rule="evenodd" clip-rule="evenodd" d="M227.841 703.558C228.34 704.057 228.34 704.867 227.841 705.365C227.341 705.866 226.531 705.866 226.032 705.365C225.533 704.867 225.533 704.057 226.032 703.558C226.531 703.059 227.341 703.059 227.841 703.558Z" fill="white"/>
<path fill-rule="evenodd" clip-rule="evenodd" d="M234.233 686.937C234.732 687.436 234.732 688.246 234.233 688.745C233.734 689.245 232.924 689.245 232.425 688.745C231.926 688.246 231.926 687.436 232.425 686.937C232.924 686.438 233.734 686.438 234.233 686.937Z" fill="white"/>
<path fill-rule="evenodd" clip-rule="evenodd" d="M216.334 580.82C216.833 581.32 216.833 582.129 216.334 582.629C215.835 583.128 215.025 583.128 214.526 582.629C214.027 582.129 214.027 581.32 214.526 580.82C215.025 580.321 215.835 580.321 216.334 580.82Z" fill="white"/>
<path fill-rule="evenodd" clip-rule="evenodd" d="M222.769 670.274C222.938 670.445 222.938 670.719 222.769 670.888C222.599 671.057 222.324 671.057 222.155 670.888C221.985 670.719 221.985 670.445 222.155 670.274C222.324 670.106 222.599 670.106 222.769 670.274Z" fill="white"/>
<path fill-rule="evenodd" clip-rule="evenodd" d="M165.235 717.58C165.405 717.749 165.405 718.024 165.235 718.194C165.066 718.362 164.791 718.362 164.622 718.194C164.452 718.024 164.452 717.749 164.622 717.58C164.791 717.41 165.066 717.41 165.235 717.58Z" fill="white"/>
<path fill-rule="evenodd" clip-rule="evenodd" d="M323.771 515.574C323.941 515.744 323.941 516.019 323.771 516.187C323.602 516.357 323.327 516.357 323.157 516.187C322.988 516.019 322.988 515.744 323.157 515.574C323.327 515.405 323.602 515.405 323.771 515.574Z" fill="white"/>
<path fill-rule="evenodd" clip-rule="evenodd" d="M224.048 684.338C224.216 684.508 224.216 684.783 224.048 684.951C223.877 685.121 223.603 685.121 223.434 684.951C223.264 684.783 223.264 684.508 223.434 684.338C223.603 684.169 223.877 684.169 224.048 684.338Z" fill="white"/>
<path fill-rule="evenodd" clip-rule="evenodd" d="M213.777 666.481C214.276 666.98 214.276 667.79 213.777 668.289C213.278 668.788 212.468 668.788 211.969 668.289C211.47 667.79 211.47 666.98 211.969 666.481C212.468 665.982 213.278 665.982 213.777 666.481Z" fill="white"/>
<path fill-rule="evenodd" clip-rule="evenodd" d="M174.143 704.836C174.642 705.336 174.642 706.145 174.143 706.645C173.644 707.144 172.834 707.144 172.336 706.645C171.835 706.145 171.835 705.336 172.336 704.836C172.834 704.337 173.644 704.337 174.143 704.836Z" fill="white"/>
<path fill-rule="evenodd" clip-rule="evenodd" d="M323.729 465.754C324.229 466.253 324.229 467.063 323.729 467.562C323.23 468.061 322.42 468.061 321.923 467.562C321.421 467.063 321.421 466.253 321.923 465.754C322.42 465.255 323.23 465.255 323.729 465.754Z" fill="white"/>
<path fill-rule="evenodd" clip-rule="evenodd" d="M121.724 675.43C122.223 675.93 122.223 676.74 121.724 677.239C121.225 677.738 120.414 677.738 119.917 677.239C119.416 676.74 119.416 675.93 119.917 675.43C120.414 674.931 121.225 674.931 121.724 675.43Z" fill="white"/>
<path fill-rule="evenodd" clip-rule="evenodd" d="M160.079 628.125C160.578 628.625 160.578 629.435 160.079 629.934C159.58 630.433 158.77 630.433 158.271 629.934C157.772 629.435 157.772 628.625 158.271 628.125C158.77 627.626 159.58 627.626 160.079 628.125Z" fill="white"/>
<path fill-rule="evenodd" clip-rule="evenodd" d="M204.266 798.73C205.514 799.977 205.514 802.002 204.266 803.25C203.018 804.498 200.995 804.498 199.745 803.25C198.497 802.002 198.497 799.977 199.745 798.73C200.995 797.482 203.018 797.482 204.266 798.73Z" fill="white"/>
<path fill-rule="evenodd" clip-rule="evenodd" d="M277.141 975.165C278.389 976.413 278.389 978.438 277.141 979.685C275.893 980.933 273.87 980.933 272.622 979.685C271.372 978.438 271.372 976.413 272.622 975.165C273.87 973.917 275.893 973.917 277.141 975.165Z" fill="white"/>
<path fill-rule="evenodd" clip-rule="evenodd" d="M256.685 872.884C257.933 874.132 257.933 876.155 256.685 877.404C255.437 878.652 253.414 878.652 252.164 877.404C250.916 876.155 250.916 874.132 252.164 872.884C253.414 871.635 255.437 871.635 256.685 872.884Z" fill="white"/>
<path fill-rule="evenodd" clip-rule="evenodd" d="M153.125 753.981C154.373 755.229 154.373 757.253 153.125 758.502C151.877 759.75 149.854 759.75 148.604 758.502C147.357 757.253 147.357 755.229 148.604 753.981C149.854 752.734 151.877 752.734 153.125 753.981Z" fill="white"/>
<path fill-rule="evenodd" clip-rule="evenodd" d="M116.048 765.488C117.296 766.736 117.296 768.761 116.048 770.009C114.799 771.257 112.776 771.257 111.529 770.009C110.279 768.761 110.279 766.736 111.529 765.488C112.776 764.24 114.799 764.24 116.048 765.488Z" fill="white"/>
<path fill-rule="evenodd" clip-rule="evenodd" d="M247.923 775.529C248.921 776.527 248.921 778.146 247.923 779.145C246.925 780.144 245.305 780.144 244.307 779.145C243.307 778.146 243.307 776.527 244.307 775.529C245.305 774.531 246.925 774.531 247.923 775.529Z" fill="white"/>
<path fill-rule="evenodd" clip-rule="evenodd" d="M314.406 918.723C315.404 919.721 315.404 921.34 314.406 922.338C313.408 923.338 311.788 923.338 310.789 922.338C309.791 921.34 309.791 919.721 310.789 918.723C311.788 917.725 313.408 917.725 314.406 918.723Z" fill="white"/>
<path fill-rule="evenodd" clip-rule="evenodd" d="M295.228 898.266C296.226 899.264 296.226 900.884 295.228 901.882C294.23 902.882 292.61 902.882 291.612 901.882C290.612 900.884 290.612 899.264 291.612 898.266C292.61 897.268 294.23 897.268 295.228 898.266Z" fill="white"/>
<path fill-rule="evenodd" clip-rule="evenodd" d="M148.199 822.834C149.197 823.831 149.197 825.452 148.199 826.45C147.2 827.449 145.581 827.449 144.583 826.45C143.583 825.452 143.583 823.831 144.583 822.834C145.581 821.836 147.2 821.836 148.199 822.834Z" fill="white"/>
<path fill-rule="evenodd" clip-rule="evenodd" d="M212.124 706.489C213.122 707.487 213.122 709.106 212.124 710.106C211.126 711.104 209.507 711.104 208.509 710.106C207.509 709.106 207.509 707.487 208.509 706.489C209.507 705.491 211.126 705.491 212.124 706.489Z" fill="white"/>
<path fill-rule="evenodd" clip-rule="evenodd" d="M112.587 814.977C113.336 815.726 113.336 816.94 112.587 817.688C111.838 818.437 110.623 818.437 109.875 817.688C109.126 816.94 109.126 815.726 109.875 814.977C110.623 814.227 111.838 814.227 112.587 814.977Z" fill="white"/>
<path fill-rule="evenodd" clip-rule="evenodd" d="M76.7889 830.318C77.5374 831.067 77.5374 832.282 76.7889 833.03C76.0387 833.779 74.8245 833.779 74.0761 833.03C73.3276 832.282 73.3276 831.067 74.0761 830.318C74.8245 829.569 76.0387 829.569 76.7889 830.318Z" fill="white"/>
<path fill-rule="evenodd" clip-rule="evenodd" d="M124.093 758.721C124.843 759.471 124.843 760.684 124.093 761.434C123.344 762.182 122.131 762.182 121.382 761.434C120.632 760.684 120.632 759.471 121.382 758.721C122.131 757.973 123.344 757.973 124.093 758.721Z" fill="white"/>
<path fill-rule="evenodd" clip-rule="evenodd" d="M55.0539 650.047C55.8027 650.797 55.8027 652.01 55.0539 652.76C54.3051 653.509 53.0903 653.509 52.3415 652.76C51.5927 652.01 51.5927 650.797 52.3415 650.047C53.0903 649.299 54.3051 649.299 55.0539 650.047Z" fill="white"/>
<path fill-rule="evenodd" clip-rule="evenodd" d="M198.435 786.661C198.934 787.161 198.934 787.971 198.435 788.47C197.936 788.969 197.126 788.969 196.627 788.47C196.127 787.971 196.127 787.161 196.627 786.661C197.126 786.162 197.936 786.162 198.435 786.661Z" fill="white"/>
<path fill-rule="evenodd" clip-rule="evenodd" d="M142.18 827.574C142.679 828.074 142.679 828.882 142.18 829.381C141.681 829.882 140.872 829.882 140.373 829.381C139.872 828.882 139.872 828.074 140.373 827.574C140.872 827.075 141.681 827.075 142.18 827.574Z" fill="white"/>
<path fill-rule="evenodd" clip-rule="evenodd" d="M126.838 767.484C127.337 767.983 127.337 768.793 126.838 769.292C126.339 769.791 125.529 769.791 125.031 769.292C124.53 768.793 124.53 767.983 125.031 767.484C125.529 766.984 126.339 766.984 126.838 767.484Z" fill="white"/>
<path fill-rule="evenodd" clip-rule="evenodd" d="M152.408 901.727C152.907 902.228 152.907 903.036 152.408 903.535C151.909 904.036 151.099 904.036 150.6 903.535C150.101 903.036 150.101 902.228 150.6 901.727C151.099 901.229 151.909 901.229 152.408 901.727Z" fill="white"/>
<path fill-rule="evenodd" clip-rule="evenodd" d="M161.358 937.526C161.857 938.025 161.857 938.835 161.358 939.334C160.859 939.834 160.049 939.834 159.55 939.334C159.05 938.835 159.05 938.025 159.55 937.526C160.049 937.027 160.859 937.027 161.358 937.526Z" fill="white"/>
<path fill-rule="evenodd" clip-rule="evenodd" d="M162.636 846.753C163.136 847.252 163.136 848.059 162.636 848.56C162.137 849.059 161.327 849.059 160.828 848.56C160.329 848.059 160.329 847.252 160.828 846.753C161.327 846.252 162.137 846.252 162.636 846.753Z" fill="white"/>
<path fill-rule="evenodd" clip-rule="evenodd" d="M250.854 589.77C251.353 590.269 251.353 591.077 250.854 591.577C250.355 592.078 249.545 592.078 249.046 591.577C248.547 591.077 248.547 590.269 249.046 589.77C249.545 589.271 250.355 589.271 250.854 589.77Z" fill="white"/>
<path fill-rule="evenodd" clip-rule="evenodd" d="M310.944 1005.29C311.443 1005.79 311.443 1006.6 310.944 1007.1C310.445 1007.59 309.635 1007.59 309.136 1007.1C308.637 1006.6 308.637 1005.79 309.136 1005.29C309.635 1004.79 310.445 1004.79 310.944 1005.29Z" fill="white"/>
<path fill-rule="evenodd" clip-rule="evenodd" d="M167.75 831.409C168.25 831.91 168.25 832.718 167.75 833.216C167.251 833.717 166.441 833.717 165.942 833.216C165.443 832.718 165.443 831.91 165.942 831.409C166.441 830.91 167.251 830.91 167.75 831.409Z" fill="white"/>
<path fill-rule="evenodd" clip-rule="evenodd" d="M151.13 722.736C151.629 723.235 151.629 724.045 151.13 724.544C150.631 725.043 149.821 725.043 149.321 724.544C148.822 724.045 148.822 723.235 149.321 722.736C149.821 722.236 150.631 722.236 151.13 722.736Z" fill="white"/>
<path fill-rule="evenodd" clip-rule="evenodd" d="M259.803 450.412C260.303 450.911 260.303 451.721 259.803 452.22C259.304 452.719 258.494 452.719 257.995 452.22C257.496 451.721 257.496 450.911 257.995 450.412C258.494 449.913 259.304 449.913 259.803 450.412Z" fill="white"/>
<path fill-rule="evenodd" clip-rule="evenodd" d="M157.565 813.468C157.733 813.638 157.733 813.913 157.565 814.081C157.395 814.251 157.12 814.251 156.951 814.081C156.781 813.913 156.781 813.638 156.951 813.468C157.12 813.299 157.395 813.299 157.565 813.468Z" fill="white"/>
<path fill-rule="evenodd" clip-rule="evenodd" d="M138.387 718.859C138.556 719.027 138.556 719.304 138.387 719.472C138.217 719.641 137.942 719.641 137.773 719.472C137.603 719.304 137.603 719.027 137.773 718.859C137.942 718.689 138.217 718.689 138.387 718.859Z" fill="white"/>
<path fill-rule="evenodd" clip-rule="evenodd" d="M148.614 735.478C148.784 735.648 148.784 735.923 148.614 736.092C148.445 736.262 148.171 736.262 148 736.092C147.832 735.923 147.832 735.648 148 735.478C148.171 735.31 148.445 735.31 148.614 735.478Z" fill="white"/>
<path fill-rule="evenodd" clip-rule="evenodd" d="M256.009 626.804C256.179 626.974 256.179 627.249 256.009 627.418C255.841 627.588 255.566 627.588 255.396 627.418C255.227 627.249 255.227 626.974 255.396 626.804C255.566 626.636 255.841 626.636 256.009 626.804Z" fill="white"/>
<path fill-rule="evenodd" clip-rule="evenodd" d="M98.7521 860.774C98.9221 860.944 98.9221 861.219 98.7521 861.387C98.582 861.556 98.3072 861.556 98.1384 861.387C97.9696 861.219 97.9696 860.944 98.1384 860.774C98.3072 860.604 98.582 860.604 98.7521 860.774Z" fill="white"/>
<path fill-rule="evenodd" clip-rule="evenodd" d="M56.561 862.052C56.731 862.221 56.731 862.496 56.561 862.665C56.3922 862.835 56.1173 862.835 55.9485 862.665C55.7785 862.496 55.7785 862.221 55.9485 862.052C56.1173 861.882 56.3922 861.882 56.561 862.052Z" fill="white"/>
<path fill-rule="evenodd" clip-rule="evenodd" d="M110.259 490.004C110.429 490.173 110.429 490.449 110.259 490.617C110.089 490.786 109.814 490.786 109.645 490.617C109.476 490.449 109.476 490.173 109.645 490.004C109.814 489.835 110.089 489.835 110.259 490.004Z" fill="white"/>
<path fill-rule="evenodd" clip-rule="evenodd" d="M56.5611 839.039C56.7312 839.209 56.7312 839.484 56.5611 839.652C56.3911 839.822 56.1162 839.822 55.9474 839.652C55.7787 839.484 55.7787 839.209 55.9474 839.039C56.1162 838.869 56.3911 838.869 56.5611 839.039Z" fill="white"/>
<path fill-rule="evenodd" clip-rule="evenodd" d="M64.2322 837.76C64.4022 837.93 64.4022 838.204 64.2322 838.373C64.0622 838.543 63.7873 838.543 63.6185 838.373C63.4497 838.204 63.4497 837.93 63.6185 837.76C63.7873 837.591 64.0622 837.591 64.2322 837.76Z" fill="white"/>
<path fill-rule="evenodd" clip-rule="evenodd" d="M117.93 762.327C118.1 762.497 118.1 762.772 117.93 762.941C117.76 763.111 117.485 763.111 117.316 762.941C117.147 762.772 117.147 762.497 117.316 762.327C117.485 762.158 117.76 762.158 117.93 762.327Z" fill="white"/>
<path fill-rule="evenodd" clip-rule="evenodd" d="M158.843 827.533C159.012 827.703 159.012 827.977 158.843 828.145C158.673 828.315 158.398 828.315 158.23 828.145C158.06 827.977 158.06 827.703 158.23 827.533C158.398 827.363 158.673 827.363 158.843 827.533Z" fill="white"/>
<path fill-rule="evenodd" clip-rule="evenodd" d="M126.879 759.771C127.049 759.939 127.049 760.216 126.879 760.384C126.711 760.553 126.436 760.553 126.266 760.384C126.097 760.216 126.097 759.939 126.266 759.771C126.436 759.602 126.711 759.602 126.879 759.771Z" fill="white"/>
<path fill-rule="evenodd" clip-rule="evenodd" d="M148.573 809.675C149.072 810.174 149.072 810.984 148.573 811.483C148.074 811.982 147.264 811.982 146.764 811.483C146.265 810.984 146.265 810.174 146.764 809.675C147.264 809.175 148.074 809.175 148.573 809.675Z" fill="white"/>
<path fill-rule="evenodd" clip-rule="evenodd" d="M128.116 736.799C128.616 737.298 128.616 738.108 128.116 738.608C127.617 739.107 126.807 739.107 126.308 738.608C125.809 738.108 125.809 737.298 126.308 736.799C126.807 736.3 127.617 736.3 128.116 736.799Z" fill="white"/>
<path fill-rule="evenodd" clip-rule="evenodd" d="M126.838 753.42C127.337 753.919 127.337 754.729 126.838 755.228C126.339 755.727 125.529 755.727 125.03 755.228C124.531 754.729 124.531 753.919 125.03 753.42C125.529 752.921 126.339 752.921 126.838 753.42Z" fill="white"/>
<path fill-rule="evenodd" clip-rule="evenodd" d="M226.562 477.261C227.061 477.76 227.061 478.57 226.562 479.067C226.063 479.569 225.253 479.569 224.754 479.067C224.255 478.57 224.255 477.76 224.754 477.261C225.253 476.761 226.063 476.761 226.562 477.261Z" fill="white"/>
<path fill-rule="evenodd" clip-rule="evenodd" d="M267.101 498.091C268.099 499.089 268.099 500.708 267.101 501.708C266.103 502.706 264.483 502.706 263.483 501.708C262.486 500.708 262.486 499.089 263.483 498.091C264.483 497.093 266.103 497.093 267.101 498.091Z" fill="white"/>
<path fill-rule="evenodd" clip-rule="evenodd" d="M281.538 522.009C282.037 522.508 282.037 523.318 281.538 523.817C281.039 524.316 280.229 524.316 279.73 523.817C279.231 523.318 279.231 522.508 279.73 522.009C280.229 521.51 281.039 521.51 281.538 522.009Z" fill="white"/>
<path fill-rule="evenodd" clip-rule="evenodd" d="M287.931 505.388C288.43 505.887 288.43 506.697 287.931 507.196C287.432 507.695 286.622 507.695 286.123 507.196C285.623 506.697 285.623 505.887 286.123 505.388C286.622 504.889 287.432 504.889 287.931 505.388Z" fill="white"/>
<path fill-rule="evenodd" clip-rule="evenodd" d="M276.466 490.004C276.636 490.173 276.636 490.448 276.466 490.618C276.297 490.787 276.021 490.787 275.852 490.618C275.683 490.448 275.683 490.173 275.852 490.004C276.021 489.834 276.297 489.834 276.466 490.004Z" fill="white"/>
<path fill-rule="evenodd" clip-rule="evenodd" d="M276.466 502.788C276.636 502.959 276.636 503.233 276.466 503.402C276.297 503.572 276.022 503.572 275.852 503.402C275.683 503.233 275.683 502.959 275.852 502.788C276.022 502.62 276.297 502.62 276.466 502.788Z" fill="white"/>
<path fill-rule="evenodd" clip-rule="evenodd" d="M266.196 486.21C266.695 486.709 266.695 487.519 266.196 488.018C265.697 488.518 264.887 488.518 264.388 488.018C263.889 487.519 263.889 486.709 264.388 486.21C264.887 485.711 265.697 485.711 266.196 486.21Z" fill="white"/>
<path fill-rule="evenodd" clip-rule="evenodd" d="M107.66 848.03C108.159 848.531 108.159 849.338 107.66 849.837C107.16 850.338 106.352 850.338 105.853 849.837C105.352 849.338 105.352 848.531 105.853 848.03C106.352 847.531 107.16 847.531 107.66 848.03Z" fill="white"/>
<path fill-rule="evenodd" clip-rule="evenodd" d="M217.613 991.225C218.112 991.724 218.112 992.532 217.613 993.031C217.113 993.532 216.303 993.532 215.804 993.031C215.305 992.532 215.305 991.724 215.804 991.225C216.303 990.724 217.113 990.724 217.613 991.225Z" fill="white"/>
<path fill-rule="evenodd" clip-rule="evenodd" d="M107.66 960.541C108.159 961.039 108.159 961.847 107.66 962.348C107.16 962.847 106.352 962.847 105.853 962.348C105.352 961.847 105.352 961.039 105.853 960.541C106.352 960.04 107.16 960.04 107.66 960.541Z" fill="white"/>
<path fill-rule="evenodd" clip-rule="evenodd" d="M65.4681 796.889C65.9688 797.389 65.9688 798.199 65.4681 798.698C64.9692 799.197 64.1616 799.197 63.6608 798.698C63.1619 798.199 63.1619 797.389 63.6608 796.889C64.1616 796.39 64.9692 796.39 65.4681 796.889Z" fill="white"/>
<path fill-rule="evenodd" clip-rule="evenodd" d="M227.841 1007.85C228.34 1008.34 228.34 1009.15 227.841 1009.65C227.341 1010.15 226.531 1010.15 226.032 1009.65C225.533 1009.15 225.533 1008.34 226.032 1007.85C226.531 1007.34 227.341 1007.34 227.841 1007.85Z" fill="white"/>
<path fill-rule="evenodd" clip-rule="evenodd" d="M123.907 562.017C124.905 563.015 124.905 564.634 123.907 565.632C122.909 566.632 121.289 566.632 120.29 565.632C119.292 564.634 119.292 563.015 120.29 562.017C121.289 561.019 122.909 561.019 123.907 562.017Z" fill="white"/>
<path fill-rule="evenodd" clip-rule="evenodd" d="M201.896 564.574C202.894 565.572 202.894 567.191 201.896 568.189C200.898 569.189 199.279 569.189 198.279 568.189C197.281 567.191 197.281 565.572 198.279 564.574C199.279 563.576 200.898 563.576 201.896 564.574Z" fill="white"/>
<path fill-rule="evenodd" clip-rule="evenodd" d="M118.793 127.321C119.791 128.319 119.791 129.939 118.793 130.939C117.795 131.937 116.175 131.937 115.177 130.939C114.177 129.939 114.177 128.319 115.177 127.321C116.175 126.324 117.795 126.324 118.793 127.321Z" fill="white"/>
<path fill-rule="evenodd" clip-rule="evenodd" d="M89.5741 554.159C90.3226 554.908 90.3226 556.122 89.5741 556.871C88.8255 557.62 87.6112 557.62 86.8627 556.871C86.1123 556.122 86.1123 554.908 86.8627 554.159C87.6112 553.41 88.8255 553.41 89.5741 554.159Z" fill="white"/>
<path fill-rule="evenodd" clip-rule="evenodd" d="M117.889 566.757C118.387 567.256 118.387 568.066 117.889 568.565C117.388 569.064 116.58 569.064 116.081 568.565C115.58 568.066 115.58 567.256 116.081 566.757C116.58 566.258 117.388 566.258 117.889 566.757Z" fill="white"/>
<path fill-rule="evenodd" clip-rule="evenodd" d="M138.345 585.934C138.844 586.434 138.844 587.244 138.345 587.743C137.845 588.242 137.035 588.242 136.536 587.743C136.037 587.244 136.037 586.434 136.536 585.934C137.035 585.435 137.845 585.435 138.345 585.934Z" fill="white"/>
<path fill-rule="evenodd" clip-rule="evenodd" d="M209.941 608.948C210.441 609.447 210.441 610.255 209.941 610.755C209.442 611.256 208.632 611.256 208.133 610.755C207.634 610.255 207.634 609.447 208.133 608.948C208.632 608.449 209.442 608.449 209.941 608.948Z" fill="white"/>
<path fill-rule="evenodd" clip-rule="evenodd" d="M144.737 569.314C145.236 569.813 145.236 570.623 144.737 571.122C144.238 571.621 143.428 571.621 142.93 571.122C142.429 570.623 142.429 569.813 142.93 569.314C143.428 568.815 144.238 568.815 144.737 569.314Z" fill="white"/>
<path fill-rule="evenodd" clip-rule="evenodd" d="M134.551 553.929C134.721 554.099 134.721 554.374 134.551 554.543C134.382 554.713 134.107 554.713 133.937 554.543C133.768 554.374 133.768 554.099 133.937 553.929C134.107 553.76 134.382 553.76 134.551 553.929Z" fill="white"/>
<path fill-rule="evenodd" clip-rule="evenodd" d="M84.6883 530.916C84.8583 531.086 84.8583 531.361 84.6883 531.53C84.5195 531.7 84.2434 531.7 84.0759 531.53C83.9058 531.361 83.9058 531.086 84.0759 530.916C84.2434 530.747 84.5195 530.747 84.6883 530.916Z" fill="white"/>
<path fill-rule="evenodd" clip-rule="evenodd" d="M75.7398 599.957C75.9086 600.125 75.9086 600.402 75.7398 600.57C75.5698 600.739 75.2949 600.739 75.1261 600.57C74.9561 600.402 74.9561 600.125 75.1261 599.957C75.2949 599.787 75.5698 599.787 75.7398 599.957Z" fill="white"/>
<path fill-rule="evenodd" clip-rule="evenodd" d="M134.551 566.715C134.721 566.884 134.721 567.159 134.551 567.329C134.382 567.498 134.107 567.498 133.937 567.329C133.768 567.159 133.768 566.884 133.937 566.715C134.107 566.545 134.382 566.545 134.551 566.715Z" fill="white"/>
<path fill-rule="evenodd" clip-rule="evenodd" d="M124.281 550.136C124.78 550.635 124.78 551.445 124.281 551.944C123.782 552.443 122.972 552.443 122.473 551.944C121.973 551.445 121.973 550.635 122.473 550.136C122.972 549.637 123.782 549.637 124.281 550.136Z" fill="white"/>
<path fill-rule="evenodd" clip-rule="evenodd" d="M124.281 467.032C124.78 467.532 124.78 468.342 124.281 468.841C123.782 469.34 122.972 469.34 122.473 468.841C121.973 468.342 121.973 467.532 122.473 467.032C122.972 466.533 123.782 466.533 124.281 467.032Z" fill="white"/>
<path fill-rule="evenodd" clip-rule="evenodd" d="M84.6472 587.213C85.1461 587.712 85.1461 588.522 84.6472 589.021C84.1464 589.52 83.3388 589.52 82.8399 589.021C82.3391 588.522 82.3391 587.712 82.8399 587.213C83.3388 586.714 84.1464 586.714 84.6472 587.213Z" fill="white"/>
<path fill-rule="evenodd" clip-rule="evenodd" d="M56.5198 819.903C57.0187 820.402 57.0187 821.212 56.5198 821.711C56.0191 822.21 55.2114 822.21 54.7126 821.711C54.2118 821.212 54.2118 820.402 54.7126 819.903C55.2114 819.404 56.0191 819.404 56.5198 819.903Z" fill="white"/>
<path fill-rule="evenodd" clip-rule="evenodd" d="M2.31478 834.898V837.503H7.14362e-05V834.898H2.31478Z" fill="white"/>
<path fill-rule="evenodd" clip-rule="evenodd" d="M1.97597 835.28C2.42772 835.788 2.42772 836.611 1.97597 837.121C1.52253 837.63 0.791217 837.63 0.339475 837.121C-0.113972 836.611 -0.113972 835.788 0.339475 835.28C0.791217 834.77 1.52253 834.77 1.97597 835.28Z" fill="white"/>
<path fill-rule="evenodd" clip-rule="evenodd" d="M94.8753 771.319C95.3742 771.818 95.3742 772.628 94.8753 773.127C94.3745 773.627 93.5669 773.627 93.068 773.127C92.5672 772.628 92.5672 771.818 93.068 771.319C93.5669 770.82 94.3745 770.82 94.8753 771.319Z" fill="white"/>
<path fill-rule="evenodd" clip-rule="evenodd" d="M185.386 1038.15C183.62 1038.15 182.188 1036.72 182.188 1034.96C182.188 1033.19 183.62 1031.76 185.386 1031.76C187.151 1031.76 188.581 1033.19 188.581 1034.96C188.581 1036.72 187.151 1038.15 185.386 1038.15Z" fill="white"/>
<path fill-rule="evenodd" clip-rule="evenodd" d="M253.147 1034.32C251.381 1034.32 249.95 1032.89 249.95 1031.12C249.95 1029.36 251.381 1027.93 253.147 1027.93C254.913 1027.93 256.342 1029.36 256.342 1031.12C256.342 1032.89 254.913 1034.32 253.147 1034.32Z" fill="white"/>
<path fill-rule="evenodd" clip-rule="evenodd" d="M171.96 1085.46C170.549 1085.46 169.403 1084.31 169.403 1082.9C169.403 1081.49 170.549 1080.35 171.96 1080.35C173.372 1080.35 174.517 1081.49 174.517 1082.9C174.517 1084.31 173.372 1085.46 171.96 1085.46Z" fill="white"/>
<path fill-rule="evenodd" clip-rule="evenodd" d="M209.037 980.621C207.626 980.621 206.48 979.476 206.48 978.066C206.48 976.653 207.626 975.507 209.037 975.507C210.449 975.507 211.594 976.653 211.594 978.066C211.594 979.476 210.449 980.621 209.037 980.621Z" fill="white"/>
<path fill-rule="evenodd" clip-rule="evenodd" d="M354.788 1107.19C353.376 1107.19 352.231 1106.05 352.231 1104.64C352.231 1103.23 353.376 1102.08 354.788 1102.08C356.2 1102.08 357.345 1103.23 357.345 1104.64C357.345 1106.05 356.2 1107.19 354.788 1107.19Z" fill="white"/>
<path fill-rule="evenodd" clip-rule="evenodd" d="M246.114 1108.47C244.703 1108.47 243.557 1107.33 243.557 1105.92C243.557 1104.5 244.703 1103.36 246.114 1103.36C247.526 1103.36 248.671 1104.5 248.671 1105.92C248.671 1107.33 247.526 1108.47 246.114 1108.47Z" fill="white"/>
<path fill-rule="evenodd" clip-rule="evenodd" d="M239.082 961.444C238.024 961.444 237.165 960.584 237.165 959.526C237.165 958.467 238.024 957.608 239.082 957.608C240.141 957.608 241 958.467 241 959.526C241 960.584 240.141 961.444 239.082 961.444Z" fill="white"/>
<path fill-rule="evenodd" clip-rule="evenodd" d="M200.088 1041.99C199.382 1041.99 198.809 1041.42 198.809 1040.71C198.809 1040 199.382 1039.43 200.088 1039.43C200.794 1039.43 201.366 1040 201.366 1040.71C201.366 1041.42 200.794 1041.99 200.088 1041.99Z" fill="white"/>
<path fill-rule="evenodd" clip-rule="evenodd" d="M210.316 972.95C209.61 972.95 209.037 972.377 209.037 971.671C209.037 970.964 209.61 970.393 210.316 970.393C211.022 970.393 211.594 970.964 211.594 971.671C211.594 972.377 211.022 972.95 210.316 972.95Z" fill="white"/>
<path fill-rule="evenodd" clip-rule="evenodd" d="M182.189 974.229C181.482 974.229 180.91 973.656 180.91 972.949C180.91 972.243 181.482 971.672 182.189 971.672C182.895 971.672 183.467 972.243 183.467 972.949C183.467 973.656 182.895 974.229 182.189 974.229Z" fill="white"/>
<path fill-rule="evenodd" clip-rule="evenodd" d="M189.86 989.571C189.153 989.571 188.581 988.998 188.581 988.291C188.581 987.585 189.153 987.014 189.86 987.014C190.566 987.014 191.138 987.585 191.138 988.291C191.138 988.998 190.566 989.571 189.86 989.571Z" fill="white"/>
<path fill-rule="evenodd" clip-rule="evenodd" d="M183.467 957.608C182.761 957.608 182.188 957.035 182.188 956.329C182.188 955.622 182.761 955.051 183.467 955.051C184.173 955.051 184.745 955.622 184.745 956.329C184.745 957.035 184.173 957.608 183.467 957.608Z" fill="white"/>
<path fill-rule="evenodd" clip-rule="evenodd" d="M278.077 1053.5C277.371 1053.5 276.799 1052.92 276.799 1052.22C276.799 1051.51 277.371 1050.94 278.077 1050.94C278.783 1050.94 279.356 1051.51 279.356 1052.22C279.356 1052.92 278.783 1053.5 278.077 1053.5Z" fill="white"/>
<path fill-rule="evenodd" clip-rule="evenodd" d="M208.398 993.201C208.159 993.201 207.965 993.007 207.965 992.767C207.965 992.527 208.159 992.333 208.398 992.333C208.637 992.333 208.831 992.527 208.831 992.767C208.831 993.007 208.637 993.201 208.398 993.201Z" fill="white"/>
<path fill-rule="evenodd" clip-rule="evenodd" d="M198.17 985.53C197.931 985.53 197.737 985.337 197.737 985.097C197.737 984.858 197.931 984.662 198.17 984.662C198.409 984.662 198.603 984.858 198.603 985.097C198.603 985.337 198.409 985.53 198.17 985.53Z" fill="white"/>
<path fill-rule="evenodd" clip-rule="evenodd" d="M217.987 989.571C217.281 989.571 216.708 988.998 216.708 988.291C216.708 987.585 217.281 987.014 217.987 987.014C218.693 987.014 219.265 987.585 219.265 988.291C219.265 988.998 218.693 989.571 217.987 989.571Z" fill="white"/>
<path fill-rule="evenodd" clip-rule="evenodd" d="M363.738 957.608C363.032 957.608 362.459 957.035 362.459 956.329C362.459 955.622 363.032 955.051 363.738 955.051C364.444 955.051 365.016 955.622 365.016 956.329C365.016 957.035 364.444 957.608 363.738 957.608Z" fill="white"/>
<path fill-rule="evenodd" clip-rule="evenodd" d="M283.191 980.621C282.485 980.621 281.913 980.047 281.913 979.341C281.913 978.637 282.485 978.064 283.191 978.064C283.897 978.064 284.47 978.637 284.47 979.341C284.47 980.047 283.897 980.621 283.191 980.621Z" fill="white"/>
<path fill-rule="evenodd" clip-rule="evenodd" d="M380.701 1257.72C381.949 1258.96 381.949 1260.99 380.701 1262.24C379.453 1263.49 377.43 1263.49 376.18 1262.24C374.932 1260.99 374.932 1258.96 376.18 1257.72C377.43 1256.47 379.453 1256.47 380.701 1257.72Z" fill="white"/>
<path fill-rule="evenodd" clip-rule="evenodd" d="M370.473 1106.85C371.721 1108.1 371.721 1110.12 370.473 1111.37C369.225 1112.62 367.202 1112.62 365.952 1111.37C364.704 1110.12 364.704 1108.1 365.952 1106.85C367.202 1105.6 369.225 1105.6 370.473 1106.85Z" fill="white"/>
<path fill-rule="evenodd" clip-rule="evenodd" d="M329.56 1210.41C330.808 1211.66 330.808 1213.68 329.56 1214.93C328.312 1216.18 326.289 1216.18 325.04 1214.93C323.792 1213.68 323.792 1211.66 325.04 1210.41C326.289 1209.16 328.312 1209.16 329.56 1210.41Z" fill="white"/>
<path fill-rule="evenodd" clip-rule="evenodd" d="M424.358 1234.52C425.356 1235.51 425.356 1237.13 424.358 1238.13C423.36 1239.13 421.741 1239.13 420.741 1238.13C419.743 1237.13 419.743 1235.51 420.741 1234.52C421.741 1233.52 423.36 1233.52 424.358 1234.52Z" fill="white"/>
<path fill-rule="evenodd" clip-rule="evenodd" d="M323.355 1280.54C324.353 1281.54 324.353 1283.16 323.355 1284.16C322.357 1285.16 320.738 1285.16 319.738 1284.16C318.74 1283.16 318.74 1281.54 319.738 1280.54C320.738 1279.54 322.357 1279.54 323.355 1280.54Z" fill="white"/>
<path fill-rule="evenodd" clip-rule="evenodd" d="M388.56 1164.2C389.558 1165.2 389.558 1166.82 388.56 1167.81C387.562 1168.81 385.942 1168.81 384.944 1167.81C383.944 1166.82 383.944 1165.2 384.944 1164.2C385.942 1163.2 387.562 1163.2 388.56 1164.2Z" fill="white"/>
<path fill-rule="evenodd" clip-rule="evenodd" d="M289.022 1272.68C289.771 1273.43 289.771 1274.65 289.022 1275.4C288.273 1276.15 287.059 1276.15 286.31 1275.4C285.561 1274.65 285.561 1273.43 286.31 1272.68C287.059 1271.94 288.273 1271.94 289.022 1272.68Z" fill="white"/>
<path fill-rule="evenodd" clip-rule="evenodd" d="M373.591 1243.09C374.091 1243.59 374.091 1244.4 373.591 1244.9C373.092 1245.4 372.282 1245.4 371.783 1244.9C371.284 1244.4 371.284 1243.59 371.783 1243.09C372.282 1242.59 373.092 1242.59 373.591 1243.09Z" fill="white"/>
<path fill-rule="evenodd" clip-rule="evenodd" d="M317.337 1285.28C317.836 1285.78 317.836 1286.59 317.337 1287.09C316.838 1287.59 316.028 1287.59 315.528 1287.09C315.029 1286.59 315.029 1285.78 315.528 1285.28C316.028 1284.78 316.838 1284.78 317.337 1285.28Z" fill="white"/>
<path fill-rule="evenodd" clip-rule="evenodd" d="M337.793 1304.46C338.292 1304.96 338.292 1305.77 337.793 1306.27C337.294 1306.77 336.484 1306.77 335.985 1306.27C335.486 1305.77 335.486 1304.96 335.985 1304.46C336.484 1303.96 337.294 1303.96 337.793 1304.46Z" fill="white"/>
<path fill-rule="evenodd" clip-rule="evenodd" d="M344.186 1287.84C344.685 1288.34 344.685 1289.15 344.186 1289.65C343.686 1290.15 342.877 1290.15 342.377 1289.65C341.878 1289.15 341.878 1288.34 342.377 1287.84C342.877 1287.34 343.686 1287.34 344.186 1287.84Z" fill="white"/>
<path fill-rule="evenodd" clip-rule="evenodd" d="M326.286 1181.72C326.786 1182.22 326.786 1183.03 326.286 1183.53C325.787 1184.03 324.977 1184.03 324.478 1183.53C323.979 1183.03 323.979 1182.22 324.478 1181.72C324.977 1181.22 325.787 1181.22 326.286 1181.72Z" fill="white"/>
<path fill-rule="evenodd" clip-rule="evenodd" d="M334 1271.18C334.169 1271.35 334.169 1271.62 334 1271.79C333.831 1271.96 333.555 1271.96 333.386 1271.79C333.216 1271.62 333.216 1271.35 333.386 1271.18C333.555 1271.01 333.831 1271.01 334 1271.18Z" fill="white"/>
<path fill-rule="evenodd" clip-rule="evenodd" d="M273.909 1318.48C274.079 1318.65 274.079 1318.93 273.909 1319.09C273.74 1319.26 273.464 1319.26 273.295 1319.09C273.126 1318.93 273.126 1318.65 273.295 1318.48C273.464 1318.31 273.74 1318.31 273.909 1318.48Z" fill="white"/>
<path fill-rule="evenodd" clip-rule="evenodd" d="M434.631 1115.4V1117.11H433.2V1115.4H434.631Z" fill="white"/>
<path fill-rule="evenodd" clip-rule="evenodd" d="M434.461 1115.84C434.687 1116.07 434.687 1116.44 434.461 1116.66C434.235 1116.89 433.869 1116.89 433.644 1116.66C433.417 1116.44 433.417 1116.07 433.644 1115.84C433.869 1115.62 434.235 1115.62 434.461 1115.84Z" fill="white"/>
<path fill-rule="evenodd" clip-rule="evenodd" d="M333.999 1285.24C334.168 1285.41 334.168 1285.68 333.999 1285.85C333.831 1286.02 333.554 1286.02 333.386 1285.85C333.217 1285.68 333.217 1285.41 333.386 1285.24C333.554 1285.07 333.831 1285.07 333.999 1285.24Z" fill="white"/>
<path fill-rule="evenodd" clip-rule="evenodd" d="M323.729 1267.38C324.229 1267.88 324.229 1268.69 323.729 1269.19C323.23 1269.69 322.42 1269.69 321.921 1269.19C321.422 1268.69 321.422 1267.88 321.921 1267.38C322.42 1266.88 323.23 1266.88 323.729 1267.38Z" fill="white"/>
<path fill-rule="evenodd" clip-rule="evenodd" d="M284.095 1305.74C284.595 1306.24 284.595 1307.05 284.095 1307.55C283.596 1308.05 282.786 1308.05 282.287 1307.55C281.788 1307.05 281.788 1306.24 282.287 1305.74C282.786 1305.24 283.596 1305.24 284.095 1305.74Z" fill="white"/>
<path fill-rule="evenodd" clip-rule="evenodd" d="M433.682 1067.94C434.181 1068.43 434.181 1069.24 433.682 1069.74C433.182 1070.24 432.373 1070.24 431.873 1069.74C431.374 1069.24 431.374 1068.43 431.873 1067.94C432.373 1067.44 433.182 1067.44 433.682 1067.94Z" fill="white"/>
<path fill-rule="evenodd" clip-rule="evenodd" d="M231.676 1276.33C232.175 1276.83 232.175 1277.64 231.676 1278.14C231.177 1278.64 230.367 1278.64 229.868 1278.14C229.369 1277.64 229.369 1276.83 229.868 1276.33C230.367 1275.83 231.177 1275.83 231.676 1276.33Z" fill="white"/>
<path fill-rule="evenodd" clip-rule="evenodd" d="M271.31 1229.03C271.809 1229.53 271.809 1230.34 271.31 1230.83C270.811 1231.34 270.001 1231.34 269.502 1230.83C269.003 1230.34 269.003 1229.53 269.502 1229.03C270.001 1228.53 270.811 1228.53 271.31 1229.03Z" fill="white"/>
<path fill-rule="evenodd" clip-rule="evenodd" d="M314.218 1399.63C315.466 1400.88 315.466 1402.9 314.218 1404.15C312.97 1405.4 310.947 1405.4 309.699 1404.15C308.449 1402.9 308.449 1400.88 309.699 1399.63C310.947 1398.38 312.97 1398.38 314.218 1399.63Z" fill="white"/>
<path fill-rule="evenodd" clip-rule="evenodd" d="M387.094 1576.07C388.342 1577.31 388.342 1579.34 387.094 1580.59C385.846 1581.84 383.822 1581.84 382.573 1580.59C381.325 1579.34 381.325 1577.31 382.573 1576.07C383.822 1574.82 385.846 1574.82 387.094 1576.07Z" fill="white"/>
<path fill-rule="evenodd" clip-rule="evenodd" d="M366.637 1473.79C367.885 1475.03 367.885 1477.06 366.637 1478.31C365.389 1479.55 363.366 1479.55 362.118 1478.31C360.868 1477.06 360.868 1475.03 362.118 1473.79C363.366 1472.54 365.389 1472.54 366.637 1473.79Z" fill="white"/>
<path fill-rule="evenodd" clip-rule="evenodd" d="M264.356 1354.88C265.604 1356.13 265.604 1358.16 264.356 1359.4C263.108 1360.65 261.085 1360.65 259.835 1359.4C258.587 1358.16 258.587 1356.13 259.835 1354.88C261.085 1353.64 263.108 1353.64 264.356 1354.88Z" fill="white"/>
<path fill-rule="evenodd" clip-rule="evenodd" d="M226.001 1366.39C227.249 1367.64 227.249 1369.66 226.001 1370.91C224.753 1372.16 222.729 1372.16 221.48 1370.91C220.232 1369.66 220.232 1367.64 221.48 1366.39C222.729 1365.14 224.753 1365.14 226.001 1366.39Z" fill="white"/>
<path fill-rule="evenodd" clip-rule="evenodd" d="M359.154 1376.43C360.152 1377.43 360.152 1379.05 359.154 1380.05C358.156 1381.05 356.536 1381.05 355.537 1380.05C354.539 1379.05 354.539 1377.43 355.537 1376.43C356.536 1375.43 358.156 1375.43 359.154 1376.43Z" fill="white"/>
<path fill-rule="evenodd" clip-rule="evenodd" d="M424.358 1519.62C425.356 1520.62 425.356 1522.24 424.358 1523.24C423.36 1524.24 421.74 1524.24 420.742 1523.24C419.742 1522.24 419.742 1520.62 420.742 1519.62C421.74 1518.63 423.36 1518.63 424.358 1519.62Z" fill="white"/>
<path fill-rule="evenodd" clip-rule="evenodd" d="M405.18 1499.17C406.178 1500.17 406.178 1501.79 405.18 1502.78C404.182 1503.78 402.563 1503.78 401.563 1502.78C400.565 1501.79 400.565 1500.17 401.563 1499.17C402.563 1498.17 404.182 1498.17 405.18 1499.17Z" fill="white"/>
<path fill-rule="evenodd" clip-rule="evenodd" d="M258.151 1423.74C259.149 1424.73 259.149 1426.36 258.151 1427.35C257.153 1428.35 255.534 1428.35 254.534 1427.35C253.536 1426.36 253.536 1424.73 254.534 1423.74C255.534 1422.74 257.153 1422.74 258.151 1423.74Z" fill="white"/>
<path fill-rule="evenodd" clip-rule="evenodd" d="M323.355 1307.39C324.353 1308.39 324.353 1310.01 323.355 1311.01C322.357 1312.01 320.738 1312.01 319.738 1311.01C318.74 1310.01 318.74 1308.39 319.738 1307.39C320.738 1306.39 322.357 1306.39 323.355 1307.39Z" fill="white"/>
<path fill-rule="evenodd" clip-rule="evenodd" d="M223.817 1415.88C224.567 1416.63 224.567 1417.84 223.817 1418.59C223.068 1419.34 221.854 1419.34 221.105 1418.59C220.357 1417.84 220.357 1416.63 221.105 1415.88C221.854 1415.13 223.068 1415.13 223.817 1415.88Z" fill="white"/>
<path fill-rule="evenodd" clip-rule="evenodd" d="M186.741 1431.22C187.49 1431.97 187.49 1433.18 186.741 1433.93C185.991 1434.68 184.779 1434.68 184.028 1433.93C183.28 1433.18 183.28 1431.97 184.028 1431.22C184.779 1430.47 185.991 1430.47 186.741 1431.22Z" fill="white"/>
<path fill-rule="evenodd" clip-rule="evenodd" d="M235.325 1359.62C236.073 1360.37 236.073 1361.59 235.325 1362.34C234.576 1363.08 233.362 1363.08 232.612 1362.34C231.863 1361.59 231.863 1360.37 232.612 1359.62C233.362 1358.87 234.576 1358.87 235.325 1359.62Z" fill="white"/>
<path fill-rule="evenodd" clip-rule="evenodd" d="M166.285 1250.95C167.033 1251.7 167.033 1252.91 166.285 1253.66C165.537 1254.41 164.322 1254.41 163.572 1253.66C162.824 1252.91 162.824 1251.7 163.572 1250.95C164.322 1250.2 165.537 1250.2 166.285 1250.95Z" fill="white"/>
<path fill-rule="evenodd" clip-rule="evenodd" d="M307.109 1387.56C307.608 1388.06 307.608 1388.87 307.109 1389.37C306.609 1389.87 305.8 1389.87 305.3 1389.37C304.801 1388.87 304.801 1388.06 305.3 1387.56C305.8 1387.06 306.609 1387.06 307.109 1387.56Z" fill="white"/>
<path fill-rule="evenodd" clip-rule="evenodd" d="M252.132 1428.48C252.632 1428.98 252.632 1429.78 252.132 1430.28C251.633 1430.78 250.823 1430.78 250.324 1430.28C249.825 1429.78 249.825 1428.98 250.324 1428.48C250.823 1427.98 251.633 1427.98 252.132 1428.48Z" fill="white"/>
<path fill-rule="evenodd" clip-rule="evenodd" d="M235.512 1368.39C236.011 1368.89 236.011 1369.69 235.512 1370.19C235.013 1370.69 234.203 1370.69 233.703 1370.19C233.204 1369.69 233.204 1368.89 233.703 1368.39C234.203 1367.89 235.013 1367.89 235.512 1368.39Z" fill="white"/>
<path fill-rule="evenodd" clip-rule="evenodd" d="M262.361 1502.63C262.86 1503.13 262.86 1503.94 262.361 1504.44C261.861 1504.94 261.051 1504.94 260.552 1504.44C260.053 1503.94 260.053 1503.13 260.552 1502.63C261.051 1502.13 261.861 1502.13 262.361 1502.63Z" fill="white"/>
<path fill-rule="evenodd" clip-rule="evenodd" d="M271.31 1539.71C271.809 1540.21 271.809 1541.01 271.31 1541.52C270.811 1542.01 270.001 1542.01 269.502 1541.52C269.003 1541.01 269.003 1540.21 269.502 1539.71C270.001 1539.21 270.811 1539.21 271.31 1539.71Z" fill="white"/>
<path fill-rule="evenodd" clip-rule="evenodd" d="M272.589 1447.66C273.088 1448.15 273.088 1448.96 272.589 1449.46C272.09 1449.96 271.28 1449.96 270.78 1449.46C270.281 1448.96 270.281 1448.15 270.78 1447.66C271.28 1447.15 272.09 1447.15 272.589 1447.66Z" fill="white"/>
<path fill-rule="evenodd" clip-rule="evenodd" d="M360.806 1190.67C361.305 1191.17 361.305 1191.98 360.806 1192.48C360.307 1192.98 359.497 1192.98 358.998 1192.48C358.499 1191.98 358.499 1191.17 358.998 1190.67C359.497 1190.17 360.307 1190.17 360.806 1190.67Z" fill="white"/>
<path fill-rule="evenodd" clip-rule="evenodd" d="M420.897 1606.19C421.396 1606.69 421.396 1607.5 420.897 1608C420.397 1608.5 419.587 1608.5 419.088 1608C418.589 1607.5 418.589 1606.69 419.088 1606.19C419.587 1605.69 420.397 1605.69 420.897 1606.19Z" fill="white"/>
<path fill-rule="evenodd" clip-rule="evenodd" d="M278.981 1432.31C279.48 1432.81 279.48 1433.62 278.981 1434.12C278.482 1434.62 277.672 1434.62 277.173 1434.12C276.674 1433.62 276.674 1432.81 277.173 1432.31C277.672 1431.81 278.482 1431.81 278.981 1432.31Z" fill="white"/>
<path fill-rule="evenodd" clip-rule="evenodd" d="M259.803 1323.64C260.303 1324.14 260.303 1324.95 259.803 1325.44C259.304 1325.95 258.494 1325.95 257.995 1325.44C257.496 1324.95 257.496 1324.14 257.995 1323.64C258.494 1323.14 259.304 1323.14 259.803 1323.64Z" fill="white"/>
<path fill-rule="evenodd" clip-rule="evenodd" d="M368.477 1051.31C368.977 1051.81 368.977 1052.62 368.477 1053.12C367.978 1053.62 367.168 1053.62 366.669 1053.12C366.17 1052.62 366.17 1051.81 366.669 1051.31C367.168 1050.81 367.978 1050.81 368.477 1051.31Z" fill="white"/>
<path fill-rule="evenodd" clip-rule="evenodd" d="M267.516 1415.65C267.686 1415.82 267.686 1416.09 267.516 1416.26C267.347 1416.43 267.073 1416.43 266.902 1416.26C266.734 1416.09 266.734 1415.82 266.902 1415.65C267.073 1415.48 267.347 1415.48 267.516 1415.65Z" fill="white"/>
<path fill-rule="evenodd" clip-rule="evenodd" d="M248.338 1319.76C248.508 1319.93 248.508 1320.21 248.338 1320.37C248.17 1320.54 247.895 1320.54 247.725 1320.37C247.556 1320.21 247.556 1319.93 247.725 1319.76C247.895 1319.59 248.17 1319.59 248.338 1319.76Z" fill="white"/>
<path fill-rule="evenodd" clip-rule="evenodd" d="M259.846 1336.38C260.015 1336.55 260.015 1336.83 259.846 1336.99C259.676 1337.16 259.401 1337.16 259.232 1336.99C259.062 1336.83 259.062 1336.55 259.232 1336.38C259.401 1336.21 259.676 1336.21 259.846 1336.38Z" fill="white"/>
<path fill-rule="evenodd" clip-rule="evenodd" d="M364.684 1227.71C364.853 1227.88 364.853 1228.15 364.684 1228.32C364.514 1228.49 364.239 1228.49 364.071 1228.32C363.901 1228.15 363.901 1227.88 364.071 1227.71C364.239 1227.54 364.514 1227.54 364.684 1227.71Z" fill="white"/>
<path fill-rule="evenodd" clip-rule="evenodd" d="M208.705 1461.68C208.874 1461.85 208.874 1462.12 208.705 1462.29C208.536 1462.46 208.261 1462.46 208.091 1462.29C207.922 1462.12 207.922 1461.85 208.091 1461.68C208.261 1461.51 208.536 1461.51 208.705 1461.68Z" fill="white"/>
<path fill-rule="evenodd" clip-rule="evenodd" d="M166.513 1462.95C166.683 1463.12 166.683 1463.4 166.513 1463.57C166.345 1463.74 166.07 1463.74 165.9 1463.57C165.731 1463.4 165.731 1463.12 165.9 1462.95C166.07 1462.78 166.345 1462.78 166.513 1462.95Z" fill="white"/>
<path fill-rule="evenodd" clip-rule="evenodd" d="M220.211 1090.91C220.381 1091.08 220.381 1091.35 220.211 1091.52C220.042 1091.69 219.767 1091.69 219.597 1091.52C219.429 1091.35 219.429 1091.08 219.597 1090.91C219.767 1090.74 220.042 1090.74 220.211 1090.91Z" fill="white"/>
<path fill-rule="evenodd" clip-rule="evenodd" d="M165.235 1439.94C165.405 1440.11 165.405 1440.39 165.235 1440.55C165.066 1440.72 164.791 1440.72 164.621 1440.55C164.452 1440.39 164.452 1440.11 164.621 1439.94C164.791 1439.77 165.066 1439.77 165.235 1439.94Z" fill="white"/>
<path fill-rule="evenodd" clip-rule="evenodd" d="M172.906 1438.66C173.076 1438.83 173.076 1439.11 172.906 1439.28C172.737 1439.45 172.461 1439.45 172.292 1439.28C172.124 1439.11 172.124 1438.83 172.292 1438.66C172.461 1438.49 172.737 1438.49 172.906 1438.66Z" fill="white"/>
<path fill-rule="evenodd" clip-rule="evenodd" d="M229.161 1364.51C229.33 1364.68 229.33 1364.95 229.161 1365.12C228.992 1365.29 228.716 1365.29 228.547 1365.12C228.379 1364.95 228.379 1364.68 228.547 1364.51C228.716 1364.34 228.992 1364.34 229.161 1364.51Z" fill="white"/>
<path fill-rule="evenodd" clip-rule="evenodd" d="M267.516 1428.43C267.686 1428.6 267.686 1428.88 267.516 1429.05C267.347 1429.22 267.073 1429.22 266.902 1429.05C266.734 1428.88 266.734 1428.6 266.902 1428.43C267.073 1428.26 267.347 1428.26 267.516 1428.43Z" fill="white"/>
<path fill-rule="evenodd" clip-rule="evenodd" d="M236.833 1360.67C237.001 1360.84 237.001 1361.12 236.833 1361.29C236.663 1361.46 236.388 1361.46 236.219 1361.29C236.049 1361.12 236.049 1360.84 236.219 1360.67C236.388 1360.5 236.663 1360.5 236.833 1360.67Z" fill="white"/>
<path fill-rule="evenodd" clip-rule="evenodd" d="M257.246 1410.58C257.746 1411.08 257.746 1411.88 257.246 1412.39C256.747 1412.88 255.937 1412.88 255.438 1412.39C254.939 1411.88 254.939 1411.08 255.438 1410.58C255.937 1410.08 256.747 1410.08 257.246 1410.58Z" fill="white"/>
<path fill-rule="evenodd" clip-rule="evenodd" d="M238.069 1337.7C238.568 1338.2 238.568 1339.01 238.069 1339.51C237.57 1340.01 236.76 1340.01 236.26 1339.51C235.761 1339.01 235.761 1338.2 236.26 1337.7C236.76 1337.2 237.57 1337.2 238.069 1337.7Z" fill="white"/>
<path fill-rule="evenodd" clip-rule="evenodd" d="M238.069 1354.32C238.568 1354.82 238.568 1355.63 238.069 1356.13C237.57 1356.63 236.76 1356.63 236.26 1356.13C235.761 1355.63 235.761 1354.82 236.26 1354.32C236.76 1353.82 237.57 1353.82 238.069 1354.32Z" fill="white"/>
<path fill-rule="evenodd" clip-rule="evenodd" d="M337.793 1078.16C338.292 1078.66 338.292 1079.47 337.793 1079.97C337.294 1080.47 336.484 1080.47 335.985 1079.97C335.486 1079.47 335.486 1078.66 335.985 1078.16C336.484 1077.66 337.294 1077.66 337.793 1078.16Z" fill="white"/>
<path fill-rule="evenodd" clip-rule="evenodd" d="M377.053 1098.99C378.051 1099.99 378.051 1101.61 377.053 1102.61C376.055 1103.61 374.435 1103.61 373.437 1102.61C372.437 1101.61 372.437 1099.99 373.437 1098.99C374.435 1098 376.055 1098 377.053 1098.99Z" fill="white"/>
<path fill-rule="evenodd" clip-rule="evenodd" d="M391.491 1122.91C391.99 1123.41 391.99 1124.22 391.491 1124.72C390.991 1125.22 390.181 1125.22 389.684 1124.72C389.183 1124.22 389.183 1123.41 389.684 1122.91C390.181 1122.41 390.991 1122.41 391.491 1122.91Z" fill="white"/>
<path fill-rule="evenodd" clip-rule="evenodd" d="M396.605 1106.29C397.104 1106.79 397.104 1107.6 396.605 1108.1C396.106 1108.6 395.296 1108.6 394.796 1108.1C394.297 1107.6 394.297 1106.79 394.796 1106.29C395.296 1105.79 396.106 1105.79 396.605 1106.29Z" fill="white"/>
<path fill-rule="evenodd" clip-rule="evenodd" d="M386.419 1090.91C386.588 1091.08 386.588 1091.35 386.419 1091.52C386.249 1091.69 385.974 1091.69 385.805 1091.52C385.635 1091.35 385.635 1091.08 385.805 1090.91C385.974 1090.74 386.249 1090.74 386.419 1090.91Z" fill="white"/>
<path fill-rule="evenodd" clip-rule="evenodd" d="M386.419 1103.69C386.588 1103.86 386.588 1104.14 386.419 1104.3C386.249 1104.47 385.974 1104.47 385.805 1104.3C385.635 1104.14 385.635 1103.86 385.805 1103.69C385.974 1103.52 386.249 1103.52 386.419 1103.69Z" fill="white"/>
<path fill-rule="evenodd" clip-rule="evenodd" d="M376.148 1087.11C376.648 1087.61 376.648 1088.42 376.148 1088.92C375.649 1089.42 374.839 1089.42 374.34 1088.92C373.841 1088.42 373.841 1087.61 374.34 1087.11C374.839 1086.61 375.649 1086.61 376.148 1087.11Z" fill="white"/>
<path fill-rule="evenodd" clip-rule="evenodd" d="M217.613 1448.93C218.112 1449.43 218.112 1450.24 217.613 1450.74C217.113 1451.24 216.303 1451.24 215.804 1450.74C215.305 1450.24 215.305 1449.43 215.804 1448.93C216.303 1448.43 217.113 1448.43 217.613 1448.93Z" fill="white"/>
<path fill-rule="evenodd" clip-rule="evenodd" d="M327.565 1592.13C328.064 1592.63 328.064 1593.43 327.565 1593.93C327.066 1594.43 326.256 1594.43 325.757 1593.93C325.257 1593.43 325.257 1592.63 325.757 1592.13C326.256 1591.63 327.066 1591.63 327.565 1592.13Z" fill="white"/>
<path fill-rule="evenodd" clip-rule="evenodd" d="M216.334 1562.72C216.833 1563.22 216.833 1564.03 216.334 1564.53C215.835 1565.03 215.025 1565.03 214.526 1564.53C214.027 1564.03 214.027 1563.22 214.526 1562.72C215.025 1562.22 215.835 1562.22 216.334 1562.72Z" fill="white"/>
<path fill-rule="evenodd" clip-rule="evenodd" d="M175.422 1399.07C175.921 1399.57 175.921 1400.38 175.422 1400.88C174.922 1401.38 174.112 1401.38 173.613 1400.88C173.114 1400.38 173.114 1399.57 173.613 1399.07C174.112 1398.57 174.922 1398.57 175.422 1399.07Z" fill="white"/>
<path fill-rule="evenodd" clip-rule="evenodd" d="M338.134 1608.49V1610.8H335.82V1608.49H338.134Z" fill="white"/>
<path fill-rule="evenodd" clip-rule="evenodd" d="M337.795 1608.83C338.247 1609.28 338.247 1610.01 337.795 1610.46C337.343 1610.92 336.61 1610.92 336.159 1610.46C335.707 1610.01 335.707 1609.28 336.159 1608.83C336.61 1608.37 337.343 1608.37 337.795 1608.83Z" fill="white"/>
<path fill-rule="evenodd" clip-rule="evenodd" d="M233.859 1162.92C234.857 1163.92 234.857 1165.54 233.859 1166.53C232.861 1167.53 231.241 1167.53 230.243 1166.53C229.244 1165.54 229.244 1163.92 230.243 1162.92C231.241 1161.92 232.861 1161.92 233.859 1162.92Z" fill="white"/>
<path fill-rule="evenodd" clip-rule="evenodd" d="M311.849 1166.75C312.847 1167.75 312.847 1169.37 311.849 1170.37C310.851 1171.37 309.231 1171.37 308.233 1170.37C307.233 1169.37 307.233 1167.75 308.233 1166.75C309.231 1165.76 310.851 1165.76 311.849 1166.75Z" fill="white"/>
<path fill-rule="evenodd" clip-rule="evenodd" d="M199.526 1155.06C200.275 1155.81 200.275 1157.02 199.526 1157.77C198.778 1158.52 197.564 1158.52 196.813 1157.77C196.065 1157.02 196.065 1155.81 196.813 1155.06C197.564 1154.31 198.778 1154.31 199.526 1155.06Z" fill="white"/>
<path fill-rule="evenodd" clip-rule="evenodd" d="M227.841 1167.66C228.34 1168.16 228.34 1168.97 227.841 1169.47C227.341 1169.97 226.531 1169.97 226.032 1169.47C225.533 1168.97 225.533 1168.16 226.032 1167.66C226.531 1167.16 227.341 1167.16 227.841 1167.66Z" fill="white"/>
<path fill-rule="evenodd" clip-rule="evenodd" d="M248.297 1186.84C248.796 1187.34 248.796 1188.14 248.297 1188.64C247.798 1189.14 246.988 1189.14 246.489 1188.64C245.989 1188.14 245.989 1187.34 246.489 1186.84C246.988 1186.34 247.798 1186.34 248.297 1186.84Z" fill="white"/>
<path fill-rule="evenodd" clip-rule="evenodd" d="M321.172 1209.85C321.671 1210.35 321.671 1211.16 321.172 1211.66C320.673 1212.16 319.863 1212.16 319.364 1211.66C318.865 1211.16 318.865 1210.35 319.364 1209.85C319.863 1209.35 320.673 1209.35 321.172 1209.85Z" fill="white"/>
<path fill-rule="evenodd" clip-rule="evenodd" d="M254.69 1170.22C255.189 1170.72 255.189 1171.52 254.69 1172.02C254.19 1172.52 253.38 1172.52 252.881 1172.02C252.382 1171.52 252.382 1170.72 252.881 1170.22C253.38 1169.72 254.19 1169.72 254.69 1170.22Z" fill="white"/>
<path fill-rule="evenodd" clip-rule="evenodd" d="M244.504 1154.83C244.673 1155 244.673 1155.28 244.504 1155.44C244.334 1155.61 244.059 1155.61 243.89 1155.44C243.72 1155.28 243.72 1155 243.89 1154.83C244.059 1154.66 244.334 1154.66 244.504 1154.83Z" fill="white"/>
<path fill-rule="evenodd" clip-rule="evenodd" d="M194.641 1131.82C194.81 1131.99 194.81 1132.26 194.641 1132.43C194.471 1132.6 194.196 1132.6 194.028 1132.43C193.859 1132.26 193.859 1131.99 194.028 1131.82C194.196 1131.65 194.471 1131.65 194.641 1131.82Z" fill="white"/>
<path fill-rule="evenodd" clip-rule="evenodd" d="M184.414 1202.14C184.582 1202.31 184.582 1202.58 184.414 1202.75C184.244 1202.92 183.969 1202.92 183.8 1202.75C183.63 1202.58 183.63 1202.31 183.8 1202.14C183.969 1201.97 184.244 1201.97 184.414 1202.14Z" fill="white"/>
<path fill-rule="evenodd" clip-rule="evenodd" d="M244.504 1167.62C244.673 1167.79 244.673 1168.06 244.504 1168.23C244.334 1168.4 244.059 1168.4 243.89 1168.23C243.72 1168.06 243.72 1167.79 243.89 1167.62C244.059 1167.45 244.334 1167.45 244.504 1167.62Z" fill="white"/>
<path fill-rule="evenodd" clip-rule="evenodd" d="M234.233 1151.04C234.732 1151.54 234.732 1152.35 234.233 1152.85C233.734 1153.35 232.924 1153.35 232.425 1152.85C231.926 1152.35 231.926 1151.54 232.425 1151.04C232.924 1150.54 233.734 1150.54 234.233 1151.04Z" fill="white"/>
<path fill-rule="evenodd" clip-rule="evenodd" d="M235.512 1067.94C236.011 1068.43 236.011 1069.24 235.512 1069.74C235.013 1070.24 234.203 1070.24 233.703 1069.74C233.204 1069.24 233.204 1068.43 233.703 1067.94C234.203 1067.44 235.013 1067.44 235.512 1067.94Z" fill="white"/>
<path fill-rule="evenodd" clip-rule="evenodd" d="M194.599 1188.12C195.098 1188.62 195.098 1189.42 194.599 1189.92C194.1 1190.42 193.29 1190.42 192.791 1189.92C192.292 1189.42 192.292 1188.62 192.791 1188.12C193.29 1187.62 194.1 1187.62 194.599 1188.12Z" fill="white"/>
<path fill-rule="evenodd" clip-rule="evenodd" d="M166.472 1420.8C166.971 1421.31 166.971 1422.11 166.472 1422.61C165.973 1423.11 165.163 1423.11 164.664 1422.61C164.164 1422.11 164.164 1421.31 164.664 1420.8C165.163 1420.31 165.973 1420.31 166.472 1420.8Z" fill="white"/>
<path fill-rule="evenodd" clip-rule="evenodd" d="M112.774 1437.43C113.273 1437.93 113.273 1438.73 112.774 1439.23C112.274 1439.73 111.466 1439.73 110.967 1439.23C110.466 1438.73 110.466 1437.93 110.967 1437.43C111.466 1436.93 112.274 1436.93 112.774 1437.43Z" fill="white"/>
<path fill-rule="evenodd" clip-rule="evenodd" d="M204.827 1372.22C205.327 1372.72 205.327 1373.53 204.827 1374.03C204.328 1374.53 203.518 1374.53 203.019 1374.03C202.52 1373.53 202.52 1372.72 203.019 1372.22C203.518 1371.72 204.328 1371.72 204.827 1372.22Z" fill="white"/>
</svg>
