<svg width="426" height="1577" viewBox="0 0 426 1577" fill="none" xmlns="http://www.w3.org/2000/svg">
<path fill-rule="evenodd" clip-rule="evenodd" d="M73.841 428.023C72.1126 428.023 70.7114 426.622 70.7114 424.895C70.7114 423.166 72.1126 421.765 73.841 421.765C75.5679 421.765 76.969 423.166 76.969 424.895C76.969 426.622 75.5679 428.023 73.841 428.023Z" fill="white"/>
<path fill-rule="evenodd" clip-rule="evenodd" d="M295.362 336.661C293.633 336.661 292.232 335.26 292.232 333.532C292.232 331.804 293.633 330.404 295.362 330.404C297.09 330.404 298.49 331.804 298.49 333.532C298.49 335.26 297.09 336.661 295.362 336.661Z" fill="white"/>
<path fill-rule="evenodd" clip-rule="evenodd" d="M262.822 306.625C261.093 306.625 259.692 305.223 259.692 303.497C259.692 301.768 261.093 300.367 262.822 300.367C264.55 300.367 265.95 301.768 265.95 303.497C265.95 305.223 264.55 306.625 262.822 306.625Z" fill="white"/>
<path fill-rule="evenodd" clip-rule="evenodd" d="M141.423 168.956C139.694 168.956 138.294 167.555 138.294 165.828C138.294 164.1 139.694 162.699 141.423 162.699C143.152 162.699 144.552 164.1 144.552 165.828C144.552 167.555 143.152 168.956 141.423 168.956Z" fill="white"/>
<path fill-rule="evenodd" clip-rule="evenodd" d="M272.834 12.5153C271.106 12.5153 269.704 11.1141 269.704 9.38566C269.704 7.65878 271.106 6.25761 272.834 6.25761C274.563 6.25761 275.962 7.65878 275.962 9.38566C275.962 11.1141 274.563 12.5153 272.834 12.5153Z" fill="white"/>
<path fill-rule="evenodd" clip-rule="evenodd" d="M161.447 25.0306C159.718 25.0306 158.318 23.6294 158.318 21.901C158.318 20.1741 159.718 18.7729 161.447 18.7729C163.176 18.7729 164.576 20.1741 164.576 21.901C164.576 23.6294 163.176 25.0306 161.447 25.0306Z" fill="white"/>
<path fill-rule="evenodd" clip-rule="evenodd" d="M141.423 423.017C139.694 423.017 138.294 421.616 138.294 419.887C138.294 418.16 139.694 416.759 141.423 416.759C143.152 416.759 144.552 418.16 144.552 419.887C144.552 421.616 143.152 423.017 141.423 423.017Z" fill="white"/>
<path fill-rule="evenodd" clip-rule="evenodd" d="M202.748 166.453C201.019 166.453 199.619 165.052 199.619 163.324C199.619 161.597 201.019 160.196 202.748 160.196C204.477 160.196 205.877 161.597 205.877 163.324C205.877 165.052 204.477 166.453 202.748 166.453Z" fill="white"/>
<path fill-rule="evenodd" clip-rule="evenodd" d="M59.4485 474.33C58.0644 474.33 56.9445 473.208 56.9445 471.827C56.9445 470.445 58.0644 469.323 59.4485 469.323C60.8309 469.323 61.9507 470.445 61.9507 471.827C61.9507 473.208 60.8309 474.33 59.4485 474.33Z" fill="white"/>
<path fill-rule="evenodd" clip-rule="evenodd" d="M140.797 128.907C139.415 128.907 138.294 127.786 138.294 126.404C138.294 125.023 139.415 123.901 140.797 123.901C142.179 123.901 143.3 125.023 143.3 126.404C143.3 127.786 142.179 128.907 140.797 128.907Z" fill="white"/>
<path fill-rule="evenodd" clip-rule="evenodd" d="M96.9926 371.704C95.6103 371.704 94.4904 370.583 94.4904 369.201C94.4904 367.819 95.6103 366.698 96.9926 366.698C98.375 366.698 99.4966 367.819 99.4966 369.201C99.4966 370.583 98.375 371.704 96.9926 371.704Z" fill="white"/>
<path fill-rule="evenodd" clip-rule="evenodd" d="M238.416 495.606C237.034 495.606 235.913 494.484 235.913 493.102C235.913 491.721 237.034 490.599 238.416 490.599C239.798 490.599 240.919 491.721 240.919 493.102C240.919 494.484 239.798 495.606 238.416 495.606Z" fill="white"/>
<path fill-rule="evenodd" clip-rule="evenodd" d="M133.288 496.857C131.906 496.857 130.785 495.736 130.785 494.353C130.785 492.971 131.906 491.851 133.288 491.851C134.67 491.851 135.791 492.971 135.791 494.353C135.791 495.736 134.67 496.857 133.288 496.857Z" fill="white"/>
<path fill-rule="evenodd" clip-rule="evenodd" d="M126.404 352.931C125.368 352.931 124.527 352.09 124.527 351.054C124.527 350.016 125.368 349.177 126.404 349.177C127.441 349.177 128.282 350.016 128.282 351.054C128.282 352.09 127.441 352.931 126.404 352.931Z" fill="white"/>
<path fill-rule="evenodd" clip-rule="evenodd" d="M152.687 230.281C151.65 230.281 150.809 229.44 150.809 228.404C150.809 227.368 151.65 226.527 152.687 226.527C153.723 226.527 154.564 227.368 154.564 228.404C154.564 229.44 153.723 230.281 152.687 230.281Z" fill="white"/>
<path fill-rule="evenodd" clip-rule="evenodd" d="M100.123 66.331C99.0857 66.331 98.245 65.49 98.245 64.4538C98.245 63.4157 99.0857 62.5765 100.123 62.5765C101.159 62.5765 102 63.4157 102 64.4538C102 65.49 101.159 66.331 100.123 66.331Z" fill="white"/>
<path fill-rule="evenodd" clip-rule="evenodd" d="M142.674 66.331C141.638 66.331 140.797 65.49 140.797 64.4538C140.797 63.4157 141.638 62.5765 142.674 62.5765C143.711 62.5765 144.552 63.4157 144.552 64.4538C144.552 65.49 143.711 66.331 142.674 66.331Z" fill="white"/>
<path fill-rule="evenodd" clip-rule="evenodd" d="M250.306 100.122C249.27 100.122 248.428 99.2812 248.428 98.245C248.428 97.207 249.27 96.3677 250.306 96.3677C251.342 96.3677 252.183 97.207 252.183 98.245C252.183 99.2812 251.342 100.122 250.306 100.122Z" fill="white"/>
<path fill-rule="evenodd" clip-rule="evenodd" d="M88.2328 431.778C87.5416 431.778 86.9813 431.217 86.9813 430.526C86.9813 429.835 87.5416 429.274 88.2328 429.274C88.924 429.274 89.4843 429.835 89.4843 430.526C89.4843 431.217 88.924 431.778 88.2328 431.778Z" fill="white"/>
<path fill-rule="evenodd" clip-rule="evenodd" d="M98.245 364.195C97.5538 364.195 96.9935 363.635 96.9935 362.943C96.9935 362.252 97.5538 361.692 98.245 361.692C98.9362 361.692 99.4966 362.252 99.4966 362.943C99.4966 363.635 98.9362 364.195 98.245 364.195Z" fill="white"/>
<path fill-rule="evenodd" clip-rule="evenodd" d="M70.7114 365.447C70.022 365.447 69.4598 364.886 69.4598 364.194C69.4598 363.502 70.022 362.943 70.7114 362.943C71.4026 362.943 71.9629 363.502 71.9629 364.194C71.9629 364.886 71.4026 365.447 70.7114 365.447Z" fill="white"/>
<path fill-rule="evenodd" clip-rule="evenodd" d="M76.969 380.465C76.2778 380.465 75.7175 379.904 75.7175 379.212C75.7175 378.523 76.2778 377.962 76.969 377.962C77.6602 377.962 78.2206 378.523 78.2206 379.212C78.2206 379.904 77.6602 380.465 76.969 380.465Z" fill="white"/>
<path fill-rule="evenodd" clip-rule="evenodd" d="M71.9629 349.177C71.2717 349.177 70.7114 348.616 70.7114 347.924C70.7114 347.232 71.2717 346.674 71.9629 346.674C72.6541 346.674 73.2145 347.232 73.2145 347.924C73.2145 348.616 72.6541 349.177 71.9629 349.177Z" fill="white"/>
<path fill-rule="evenodd" clip-rule="evenodd" d="M33.1646 5.00608C32.4758 5.00608 31.914 4.44534 31.914 3.75363C31.914 3.06193 32.4758 2.50303 33.1646 2.50303C33.8553 2.50303 34.4171 3.06193 34.4171 3.75363C34.4171 4.44534 33.8553 5.00608 33.1646 5.00608Z" fill="white"/>
<path fill-rule="evenodd" clip-rule="evenodd" d="M163.324 443.041C162.633 443.041 162.073 442.481 162.073 441.79C162.073 441.099 162.633 440.538 163.324 440.538C164.016 440.538 164.576 441.099 164.576 441.79C164.576 442.481 164.016 443.041 163.324 443.041Z" fill="white"/>
<path fill-rule="evenodd" clip-rule="evenodd" d="M96.3683 384.019C96.1343 384.019 95.9428 383.828 95.9428 383.593C95.9428 383.359 96.1343 383.169 96.3683 383.169C96.6024 383.169 96.7926 383.359 96.7926 383.593C96.7926 383.828 96.6024 384.019 96.3683 384.019Z" fill="white"/>
<path fill-rule="evenodd" clip-rule="evenodd" d="M13.7662 124.952C13.5321 124.952 13.3419 124.762 13.3419 124.528C13.3419 124.292 13.5321 124.102 13.7662 124.102C14.0002 124.102 14.1917 124.292 14.1917 124.528C14.1917 124.762 14.0002 124.952 13.7662 124.952Z" fill="white"/>
<path fill-rule="evenodd" clip-rule="evenodd" d="M96.3671 243.847C96.1331 243.847 95.9428 243.657 95.9428 243.423C95.9428 243.188 96.1331 242.998 96.3671 242.998C96.6011 242.998 96.7926 243.188 96.7926 243.423C96.7926 243.657 96.6011 243.847 96.3671 243.847Z" fill="white"/>
<path fill-rule="evenodd" clip-rule="evenodd" d="M103.876 109.934C103.642 109.934 103.452 109.743 103.452 109.509C103.452 109.274 103.642 109.084 103.876 109.084C104.11 109.084 104.302 109.274 104.302 109.509C104.302 109.743 104.11 109.934 103.876 109.934Z" fill="white"/>
<path fill-rule="evenodd" clip-rule="evenodd" d="M105.129 311.43C104.895 311.43 104.703 311.24 104.703 311.006C104.703 310.77 104.895 310.58 105.129 310.58C105.363 310.58 105.553 310.77 105.553 311.006C105.553 311.24 105.363 311.43 105.129 311.43Z" fill="white"/>
<path fill-rule="evenodd" clip-rule="evenodd" d="M98.8702 228.829C98.6361 228.829 98.4459 228.639 98.4459 228.405C98.4459 228.169 98.6361 227.979 98.8702 227.979C99.1042 227.979 99.2957 228.169 99.2957 228.405C99.2957 228.639 99.1042 228.829 98.8702 228.829Z" fill="white"/>
<path fill-rule="evenodd" clip-rule="evenodd" d="M96.3671 26.0813C96.1331 26.0813 95.9428 25.891 95.9428 25.657C95.9428 25.4217 96.1331 25.2315 96.3671 25.2315C96.6011 25.2315 96.7926 25.4217 96.7926 25.657C96.7926 25.891 96.6011 26.0813 96.3671 26.0813Z" fill="white"/>
<path fill-rule="evenodd" clip-rule="evenodd" d="M98.8702 4.80524C98.6361 4.80524 98.4459 4.61501 98.4459 4.38097C98.4459 4.14569 98.6361 3.95545 98.8702 3.95545C99.1042 3.95545 99.2957 4.14569 99.2957 4.38097C99.2957 4.61501 99.1042 4.80524 98.8702 4.80524Z" fill="white"/>
<path fill-rule="evenodd" clip-rule="evenodd" d="M87.6077 376.509C87.3736 376.509 87.1821 376.319 87.1821 376.085C87.1821 375.85 87.3736 375.66 87.6077 375.66C87.8417 375.66 88.0319 375.85 88.0319 376.085C88.0319 376.319 87.8417 376.509 87.6077 376.509Z" fill="white"/>
<path fill-rule="evenodd" clip-rule="evenodd" d="M86.3549 265.123C86.1208 265.123 85.9306 264.933 85.9306 264.699C85.9306 264.464 86.1208 264.273 86.3549 264.273C86.5889 264.273 86.7804 264.464 86.7804 264.699C86.7804 264.933 86.5889 265.123 86.3549 265.123Z" fill="white"/>
<path fill-rule="evenodd" clip-rule="evenodd" d="M85.1034 109.934C84.8693 109.934 84.6791 109.743 84.6791 109.509C84.6791 109.274 84.8693 109.084 85.1034 109.084C85.3374 109.084 85.5289 109.274 85.5289 109.509C85.5289 109.743 85.3374 109.934 85.1034 109.934Z" fill="white"/>
<path fill-rule="evenodd" clip-rule="evenodd" d="M105.754 380.465C105.063 380.465 104.503 379.904 104.503 379.212C104.503 378.523 105.063 377.962 105.754 377.962C106.445 377.962 107.006 378.523 107.006 379.212C107.006 379.904 106.445 380.465 105.754 380.465Z" fill="white"/>
<path fill-rule="evenodd" clip-rule="evenodd" d="M107.006 326.649C106.314 326.649 105.754 326.088 105.754 325.397C105.754 324.707 106.314 324.146 107.006 324.146C107.697 324.146 108.257 324.707 108.257 325.397C108.257 326.088 107.697 326.649 107.006 326.649Z" fill="white"/>
<path fill-rule="evenodd" clip-rule="evenodd" d="M157.067 102.625C156.376 102.625 155.815 102.065 155.815 101.373C155.815 100.681 156.376 100.122 157.067 100.122C157.758 100.122 158.318 100.681 158.318 101.373C158.318 102.065 157.758 102.625 157.067 102.625Z" fill="white"/>
<path fill-rule="evenodd" clip-rule="evenodd" d="M248.428 349.177C247.737 349.177 247.177 348.616 247.177 347.924C247.177 347.232 247.737 346.674 248.428 346.674C249.12 346.674 249.68 347.232 249.68 347.924C249.68 348.616 249.12 349.177 248.428 349.177Z" fill="white"/>
<path fill-rule="evenodd" clip-rule="evenodd" d="M324.772 304.122C324.081 304.122 323.52 303.561 323.52 302.87C323.52 302.179 324.081 301.619 324.772 301.619C325.463 301.619 326.023 302.179 326.023 302.87C326.023 303.561 325.463 304.122 324.772 304.122Z" fill="white"/>
<path fill-rule="evenodd" clip-rule="evenodd" d="M66.9568 286.6C66.2656 286.6 65.7053 286.039 65.7053 285.348C65.7053 284.656 66.2656 284.097 66.9568 284.097C67.648 284.097 68.2083 284.656 68.2083 285.348C68.2083 286.039 67.648 286.6 66.9568 286.6Z" fill="white"/>
<path fill-rule="evenodd" clip-rule="evenodd" d="M158.318 96.3678C157.627 96.3678 157.067 95.8074 157.067 95.1162C157.067 94.425 157.627 93.8647 158.318 93.8647C159.01 93.8647 159.57 94.425 159.57 95.1162C159.57 95.8074 159.01 96.3678 158.318 96.3678Z" fill="white"/>
<path fill-rule="evenodd" clip-rule="evenodd" d="M225.901 77.5948C225.21 77.5948 224.649 77.0341 224.649 76.3424C224.649 75.6507 225.21 75.0918 225.901 75.0918C226.592 75.0918 227.153 75.6507 227.153 76.3424C227.153 77.0341 226.592 77.5948 225.901 77.5948Z" fill="white"/>
<path fill-rule="evenodd" clip-rule="evenodd" d="M225.901 32.5397C225.21 32.5397 224.649 31.9794 224.649 31.2882C224.649 30.597 225.21 30.0367 225.901 30.0367C226.592 30.0367 227.153 30.597 227.153 31.2882C227.153 31.9794 226.592 32.5397 225.901 32.5397Z" fill="white"/>
<path fill-rule="evenodd" clip-rule="evenodd" d="M290.98 177.717C290.289 177.717 289.729 177.156 289.729 176.465C289.729 175.773 290.289 175.214 290.98 175.214C291.672 175.214 292.232 175.773 292.232 176.465C292.232 177.156 291.672 177.717 290.98 177.717Z" fill="white"/>
<path fill-rule="evenodd" clip-rule="evenodd" d="M322.269 276.588C321.578 276.588 321.017 276.028 321.017 275.336C321.017 274.645 321.578 274.085 322.269 274.085C322.96 274.085 323.52 274.645 323.52 275.336C323.52 276.028 322.96 276.588 322.269 276.588Z" fill="white"/>
<path fill-rule="evenodd" clip-rule="evenodd" d="M148.306 62.5765C147.615 62.5765 147.055 62.0157 147.055 61.324C147.055 60.6323 147.615 60.0734 148.306 60.0734C148.997 60.0734 149.558 60.6323 149.558 61.324C149.558 62.0157 148.997 62.5765 148.306 62.5765Z" fill="white"/>
<path fill-rule="evenodd" clip-rule="evenodd" d="M229.656 31.2883C228.964 31.2883 228.404 30.7279 228.404 30.0367C228.404 29.3455 228.964 28.7852 229.656 28.7852C230.347 28.7852 230.907 29.3455 230.907 30.0367C230.907 30.7279 230.347 31.2883 229.656 31.2883Z" fill="white"/>
<path fill-rule="evenodd" clip-rule="evenodd" d="M229.656 96.3678C228.964 96.3678 228.404 95.8074 228.404 95.1162C228.404 94.425 228.964 93.8647 229.656 93.8647C230.347 93.8647 230.907 94.425 230.907 95.1162C230.907 95.8074 230.347 96.3678 229.656 96.3678Z" fill="white"/>
<path fill-rule="evenodd" clip-rule="evenodd" d="M275.962 200.245C275.271 200.245 274.711 199.684 274.711 198.992C274.711 198.3 275.271 197.742 275.962 197.742C276.653 197.742 277.214 198.3 277.214 198.992C277.214 199.684 276.653 200.245 275.962 200.245Z" fill="white"/>
<path fill-rule="evenodd" clip-rule="evenodd" d="M163.324 311.631C162.633 311.631 162.073 311.07 162.073 310.379C162.073 309.688 162.633 309.128 163.324 309.128C164.016 309.128 164.576 309.688 164.576 310.379C164.576 311.07 164.016 311.631 163.324 311.631Z" fill="white"/>
<path fill-rule="evenodd" clip-rule="evenodd" d="M244.674 115.141C243.983 115.141 243.422 114.58 243.422 113.888C243.422 113.197 243.983 112.638 244.674 112.638C245.365 112.638 245.925 113.197 245.925 113.888C245.925 114.58 245.365 115.141 244.674 115.141Z" fill="white"/>
<path fill-rule="evenodd" clip-rule="evenodd" d="M267.201 2.50306C266.51 2.50306 265.95 1.94231 265.95 1.25061C265.95 0.5589 266.51 0 267.201 0C267.893 0 268.453 0.5589 268.453 1.25061C268.453 1.94231 267.893 2.50306 267.201 2.50306Z" fill="white"/>
<path fill-rule="evenodd" clip-rule="evenodd" d="M217.14 290.355C216.449 290.355 215.889 289.794 215.889 289.103C215.889 288.412 216.449 287.852 217.14 287.852C217.831 287.852 218.392 288.412 218.392 289.103C218.392 289.794 217.831 290.355 217.14 290.355Z" fill="white"/>
<path fill-rule="evenodd" clip-rule="evenodd" d="M304.747 112.638C304.056 112.638 303.496 112.077 303.496 111.385C303.496 110.693 304.056 110.135 304.747 110.135C305.439 110.135 305.999 110.693 305.999 111.385C305.999 112.077 305.439 112.638 304.747 112.638Z" fill="white"/>
<path fill-rule="evenodd" clip-rule="evenodd" d="M169.582 371.704C168.891 371.704 168.331 371.143 168.331 370.452C168.331 369.76 168.891 369.201 169.582 369.201C170.273 369.201 170.834 369.76 170.834 370.452C170.834 371.143 170.273 371.704 169.582 371.704Z" fill="white"/>
<path fill-rule="evenodd" clip-rule="evenodd" d="M263.782 642.951C265.004 644.172 265.004 646.153 263.782 647.376C262.561 648.597 260.58 648.597 259.357 647.376C258.135 646.153 258.135 644.172 259.357 642.951C260.58 641.729 262.561 641.729 263.782 642.951Z" fill="white"/>
<path fill-rule="evenodd" clip-rule="evenodd" d="M255.021 495.27C256.243 496.492 256.243 498.474 255.021 499.695C253.8 500.917 251.819 500.917 250.596 499.695C249.375 498.474 249.375 496.492 250.596 495.27C251.819 494.049 253.8 494.049 255.021 495.27Z" fill="white"/>
<path fill-rule="evenodd" clip-rule="evenodd" d="M214.973 596.644C216.194 597.866 216.194 599.846 214.973 601.069C213.751 602.291 211.769 602.291 210.547 601.069C209.326 599.846 209.326 597.866 210.547 596.644C211.769 595.423 213.751 595.423 214.973 596.644Z" fill="white"/>
<path fill-rule="evenodd" clip-rule="evenodd" d="M307.769 620.24C308.746 621.217 308.746 622.802 307.769 623.78C306.792 624.757 305.207 624.757 304.23 623.78C303.251 622.802 303.251 621.217 304.23 620.24C305.207 619.263 306.792 619.263 307.769 620.24Z" fill="white"/>
<path fill-rule="evenodd" clip-rule="evenodd" d="M210.15 665.295C211.127 666.272 211.127 667.857 210.15 668.834C209.173 669.813 207.587 669.813 206.611 668.834C205.632 667.857 205.632 666.272 206.611 665.295C207.587 664.318 209.173 664.318 210.15 665.295Z" fill="white"/>
<path fill-rule="evenodd" clip-rule="evenodd" d="M272.726 550.154C273.703 551.131 273.703 552.716 272.726 553.693C271.749 554.672 270.164 554.672 269.187 553.693C268.208 552.716 268.208 551.131 269.187 550.154C270.164 549.177 271.749 549.177 272.726 550.154Z" fill="white"/>
<path fill-rule="evenodd" clip-rule="evenodd" d="M175.29 657.604C176.023 658.336 176.023 659.525 175.29 660.258C174.558 660.991 173.369 660.991 172.635 660.258C171.902 659.525 171.902 658.336 172.635 657.604C173.369 656.869 174.558 656.869 175.29 657.604Z" fill="white"/>
<path fill-rule="evenodd" clip-rule="evenodd" d="M258.074 628.634C258.563 629.123 258.563 629.916 258.074 630.404C257.586 630.893 256.793 630.893 256.304 630.404C255.815 629.916 255.815 629.123 256.304 628.634C256.793 628.145 257.586 628.145 258.074 628.634Z" fill="white"/>
<path fill-rule="evenodd" clip-rule="evenodd" d="M203.007 668.683C203.496 669.172 203.496 669.965 203.007 670.453C202.518 670.942 201.725 670.942 201.237 670.453C200.748 669.965 200.748 669.172 201.237 668.683C201.725 668.194 202.518 668.194 203.007 668.683Z" fill="white"/>
<path fill-rule="evenodd" clip-rule="evenodd" d="M223.031 688.708C223.52 689.196 223.52 689.989 223.031 690.476C222.543 690.967 221.75 690.967 221.261 690.476C220.773 689.989 220.773 689.196 221.261 688.708C221.75 688.219 222.543 688.219 223.031 688.708Z" fill="white"/>
<path fill-rule="evenodd" clip-rule="evenodd" d="M229.289 672.438C229.778 672.926 229.778 673.719 229.289 674.208C228.8 674.696 228.008 674.696 227.519 674.208C227.03 673.719 227.03 672.926 227.519 672.438C228.008 671.949 228.8 671.949 229.289 672.438Z" fill="white"/>
<path fill-rule="evenodd" clip-rule="evenodd" d="M211.768 568.561C212.256 569.049 212.256 569.842 211.768 570.331C211.279 570.819 210.486 570.819 209.998 570.331C209.509 569.842 209.509 569.049 209.998 568.561C210.486 568.072 211.279 568.072 211.768 568.561Z" fill="white"/>
<path fill-rule="evenodd" clip-rule="evenodd" d="M218.067 656.127C218.232 656.293 218.232 656.562 218.067 656.727C217.9 656.893 217.631 656.893 217.466 656.727C217.3 656.562 217.3 656.293 217.466 656.127C217.631 655.961 217.9 655.961 218.067 656.127Z" fill="white"/>
<path fill-rule="evenodd" clip-rule="evenodd" d="M161.747 702.434C161.913 702.599 161.913 702.868 161.747 703.034C161.582 703.2 161.313 703.2 161.147 703.034C160.981 702.868 160.981 702.599 161.147 702.434C161.313 702.267 161.582 702.267 161.747 702.434Z" fill="white"/>
<path fill-rule="evenodd" clip-rule="evenodd" d="M316.937 504.691C317.103 504.858 317.103 505.127 316.937 505.292C316.772 505.458 316.502 505.458 316.336 505.292C316.171 505.127 316.171 504.858 316.336 504.691C316.502 504.526 316.772 504.526 316.937 504.691Z" fill="white"/>
<path fill-rule="evenodd" clip-rule="evenodd" d="M219.318 669.893C219.484 670.06 219.484 670.329 219.318 670.494C219.152 670.66 218.883 670.66 218.718 670.494C218.551 670.329 218.551 670.06 218.718 669.893C218.883 669.728 219.152 669.728 219.318 669.893Z" fill="white"/>
<path fill-rule="evenodd" clip-rule="evenodd" d="M209.265 652.413C209.753 652.902 209.753 653.695 209.265 654.183C208.776 654.672 207.983 654.672 207.494 654.183C207.006 653.695 207.006 652.902 207.494 652.413C207.983 651.925 208.776 651.925 209.265 652.413Z" fill="white"/>
<path fill-rule="evenodd" clip-rule="evenodd" d="M170.467 689.959C170.956 690.448 170.956 691.241 170.467 691.729C169.978 692.218 169.185 692.218 168.699 691.729C168.208 691.241 168.208 690.448 168.699 689.959C169.185 689.47 169.978 689.47 170.467 689.959Z" fill="white"/>
<path fill-rule="evenodd" clip-rule="evenodd" d="M316.896 455.923C317.385 456.412 317.385 457.205 316.896 457.693C316.407 458.182 315.614 458.182 315.127 457.693C314.637 457.205 314.637 456.412 315.127 455.923C315.614 455.434 316.407 455.434 316.896 455.923Z" fill="white"/>
<path fill-rule="evenodd" clip-rule="evenodd" d="M119.154 661.174C119.643 661.662 119.643 662.455 119.154 662.944C118.666 663.433 117.873 663.433 117.386 662.944C116.895 662.455 116.895 661.662 117.386 661.174C117.873 660.685 118.666 660.685 119.154 661.174Z" fill="white"/>
<path fill-rule="evenodd" clip-rule="evenodd" d="M156.7 614.867C157.189 615.356 157.189 616.149 156.7 616.637C156.212 617.126 155.419 617.126 154.93 616.637C154.442 616.149 154.442 615.356 154.93 614.867C155.419 614.379 156.212 614.379 156.7 614.867Z" fill="white"/>
<path fill-rule="evenodd" clip-rule="evenodd" d="M199.954 781.87C201.176 783.092 201.176 785.074 199.954 786.296C198.733 787.517 196.752 787.517 195.529 786.296C194.307 785.074 194.307 783.092 195.529 781.87C196.752 780.649 198.733 780.649 199.954 781.87Z" fill="white"/>
<path fill-rule="evenodd" clip-rule="evenodd" d="M271.291 954.581C272.513 955.803 272.513 957.785 271.291 959.007C270.07 960.228 268.089 960.228 266.867 959.007C265.644 957.785 265.644 955.803 266.867 954.581C268.089 953.36 270.07 953.36 271.291 954.581Z" fill="white"/>
<path fill-rule="evenodd" clip-rule="evenodd" d="M251.267 854.46C252.488 855.681 252.488 857.662 251.267 858.884C250.045 860.106 248.065 860.106 246.842 858.884C245.62 857.662 245.62 855.681 246.842 854.46C248.065 853.237 250.045 853.237 251.267 854.46Z" fill="white"/>
<path fill-rule="evenodd" clip-rule="evenodd" d="M149.893 738.067C151.115 739.288 151.115 741.269 149.893 742.492C148.671 743.714 146.691 743.714 145.468 742.492C144.246 741.269 144.246 739.288 145.468 738.067C146.691 736.845 148.671 736.845 149.893 738.067Z" fill="white"/>
<path fill-rule="evenodd" clip-rule="evenodd" d="M113.599 749.331C114.82 750.552 114.82 752.534 113.599 753.756C112.376 754.977 110.396 754.977 109.174 753.756C107.952 752.534 107.952 750.552 109.174 749.331C110.396 748.109 112.376 748.109 113.599 749.331Z" fill="white"/>
<path fill-rule="evenodd" clip-rule="evenodd" d="M242.69 759.159C243.667 760.136 243.667 761.722 242.69 762.699C241.713 763.677 240.127 763.677 239.15 762.699C238.172 761.722 238.172 760.136 239.15 759.159C240.127 758.182 241.713 758.182 242.69 759.159Z" fill="white"/>
<path fill-rule="evenodd" clip-rule="evenodd" d="M307.769 899.331C308.746 900.308 308.746 901.893 307.769 902.87C306.792 903.849 305.207 903.849 304.228 902.87C303.252 901.893 303.252 900.308 304.228 899.331C305.207 898.354 306.792 898.354 307.769 899.331Z" fill="white"/>
<path fill-rule="evenodd" clip-rule="evenodd" d="M288.996 879.306C289.973 880.283 289.973 881.869 288.996 882.846C288.019 883.824 286.434 883.824 285.457 882.846C284.478 881.869 284.478 880.283 285.457 879.306C286.434 878.329 288.019 878.329 288.996 879.306Z" fill="white"/>
<path fill-rule="evenodd" clip-rule="evenodd" d="M145.07 805.466C146.047 806.442 146.047 808.029 145.07 809.006C144.093 809.984 142.508 809.984 141.531 809.006C140.552 808.029 140.552 806.442 141.531 805.466C142.508 804.489 144.093 804.489 145.07 805.466Z" fill="white"/>
<path fill-rule="evenodd" clip-rule="evenodd" d="M207.647 691.577C208.624 692.554 208.624 694.139 207.647 695.117C206.67 696.094 205.084 696.094 204.107 695.117C203.129 694.139 203.129 692.554 204.107 691.577C205.084 690.6 206.67 690.6 207.647 691.577Z" fill="white"/>
<path fill-rule="evenodd" clip-rule="evenodd" d="M110.211 797.775C110.944 798.508 110.944 799.696 110.211 800.429C109.478 801.162 108.288 801.162 107.555 800.429C106.822 799.696 106.822 798.508 107.555 797.775C108.288 797.04 109.478 797.04 110.211 797.775Z" fill="white"/>
<path fill-rule="evenodd" clip-rule="evenodd" d="M75.168 812.792C75.9007 813.525 75.9007 814.714 75.168 815.447C74.4336 816.18 73.2451 816.18 72.5124 815.447C71.7798 814.714 71.7798 813.525 72.5124 812.792C73.2451 812.059 74.4336 812.059 75.168 812.792Z" fill="white"/>
<path fill-rule="evenodd" clip-rule="evenodd" d="M121.473 742.706C122.208 743.441 122.208 744.627 121.473 745.362C120.741 746.095 119.553 746.095 118.82 745.362C118.086 744.627 118.086 743.441 118.82 742.706C119.553 741.974 120.741 741.974 121.473 742.706Z" fill="white"/>
<path fill-rule="evenodd" clip-rule="evenodd" d="M53.8918 636.326C54.6248 637.061 54.6248 638.247 53.8918 638.982C53.1588 639.715 51.9697 639.715 51.2367 638.982C50.5037 638.247 50.5037 637.061 51.2367 636.326C51.9697 635.594 53.1588 635.594 53.8918 636.326Z" fill="white"/>
<path fill-rule="evenodd" clip-rule="evenodd" d="M194.246 770.057C194.735 770.546 194.735 771.338 194.246 771.827C193.758 772.316 192.965 772.316 192.476 771.827C191.988 771.338 191.988 770.546 192.476 770.057C192.965 769.568 193.758 769.568 194.246 770.057Z" fill="white"/>
<path fill-rule="evenodd" clip-rule="evenodd" d="M139.179 810.106C139.668 810.596 139.668 811.386 139.179 811.875C138.691 812.365 137.898 812.365 137.41 811.875C136.92 811.386 136.92 810.596 137.41 810.106C137.898 809.617 138.691 809.617 139.179 810.106Z" fill="white"/>
<path fill-rule="evenodd" clip-rule="evenodd" d="M124.161 751.284C124.649 751.773 124.649 752.565 124.161 753.054C123.672 753.543 122.879 753.543 122.392 753.054C121.901 752.565 121.901 751.773 122.392 751.284C122.879 750.795 123.672 750.795 124.161 751.284Z" fill="white"/>
<path fill-rule="evenodd" clip-rule="evenodd" d="M149.191 882.694C149.68 883.185 149.68 883.975 149.191 884.464C148.703 884.954 147.91 884.954 147.421 884.464C146.932 883.975 146.932 883.185 147.421 882.694C147.91 882.206 148.703 882.206 149.191 882.694Z" fill="white"/>
<path fill-rule="evenodd" clip-rule="evenodd" d="M157.952 917.737C158.441 918.226 158.441 919.019 157.952 919.507C157.463 919.996 156.67 919.996 156.182 919.507C155.693 919.019 155.693 918.226 156.182 917.737C156.67 917.249 157.463 917.249 157.952 917.737Z" fill="white"/>
<path fill-rule="evenodd" clip-rule="evenodd" d="M159.203 828.88C159.692 829.368 159.692 830.159 159.203 830.649C158.715 831.137 157.922 831.137 157.433 830.649C156.945 830.159 156.945 829.368 157.433 828.88C157.922 828.39 158.715 828.39 159.203 828.88Z" fill="white"/>
<path fill-rule="evenodd" clip-rule="evenodd" d="M245.559 577.321C246.048 577.81 246.048 578.601 245.559 579.09C245.07 579.581 244.277 579.581 243.789 579.09C243.3 578.601 243.3 577.81 243.789 577.321C244.277 576.833 245.07 576.833 245.559 577.321Z" fill="white"/>
<path fill-rule="evenodd" clip-rule="evenodd" d="M304.381 984.068C304.869 984.557 304.869 985.35 304.381 985.839C303.892 986.327 303.099 986.327 302.611 985.839C302.122 985.35 302.122 984.557 302.611 984.068C303.099 983.58 303.892 983.58 304.381 984.068Z" fill="white"/>
<path fill-rule="evenodd" clip-rule="evenodd" d="M164.21 813.86C164.698 814.35 164.698 815.141 164.21 815.629C163.721 816.12 162.928 816.12 162.439 815.629C161.951 815.141 161.951 814.35 162.439 813.86C162.928 813.372 163.721 813.372 164.21 813.86Z" fill="white"/>
<path fill-rule="evenodd" clip-rule="evenodd" d="M147.94 707.48C148.428 707.969 148.428 708.762 147.94 709.251C147.451 709.739 146.658 709.739 146.17 709.251C145.681 708.762 145.681 707.969 146.17 707.48C146.658 706.992 147.451 706.992 147.94 707.48Z" fill="white"/>
<path fill-rule="evenodd" clip-rule="evenodd" d="M254.32 440.905C254.808 441.393 254.808 442.186 254.32 442.675C253.831 443.163 253.038 443.163 252.55 442.675C252.061 442.186 252.061 441.393 252.55 440.905C253.038 440.416 253.831 440.416 254.32 440.905Z" fill="white"/>
<path fill-rule="evenodd" clip-rule="evenodd" d="M154.239 796.297C154.404 796.464 154.404 796.733 154.239 796.898C154.072 797.065 153.803 797.065 153.638 796.898C153.472 796.733 153.472 796.464 153.638 796.297C153.803 796.132 154.072 796.132 154.239 796.297Z" fill="white"/>
<path fill-rule="evenodd" clip-rule="evenodd" d="M135.466 703.685C135.631 703.85 135.631 704.121 135.466 704.286C135.299 704.451 135.03 704.451 134.865 704.286C134.699 704.121 134.699 703.85 134.865 703.685C135.03 703.519 135.299 703.519 135.466 703.685Z" fill="white"/>
<path fill-rule="evenodd" clip-rule="evenodd" d="M145.477 719.954C145.644 720.121 145.644 720.39 145.477 720.555C145.312 720.721 145.043 720.721 144.877 720.555C144.711 720.39 144.711 720.121 144.877 719.954C145.043 719.789 145.312 719.789 145.477 719.954Z" fill="white"/>
<path fill-rule="evenodd" clip-rule="evenodd" d="M250.606 613.574C250.772 613.741 250.772 614.01 250.606 614.175C250.44 614.341 250.171 614.341 250.005 614.175C249.84 614.01 249.84 613.741 250.005 613.574C250.171 613.409 250.44 613.409 250.606 613.574Z" fill="white"/>
<path fill-rule="evenodd" clip-rule="evenodd" d="M96.6676 842.605C96.8341 842.771 96.8341 843.04 96.6676 843.206C96.5012 843.371 96.2321 843.371 96.0669 843.206C95.9017 843.04 95.9017 842.771 96.0669 842.605C96.2321 842.439 96.5012 842.439 96.6676 842.605Z" fill="white"/>
<path fill-rule="evenodd" clip-rule="evenodd" d="M55.367 843.857C55.5335 844.022 55.5335 844.291 55.367 844.456C55.2018 844.623 54.9327 844.623 54.7675 844.456C54.6011 844.291 54.6011 844.022 54.7675 843.857C54.9327 843.69 55.2018 843.69 55.367 843.857Z" fill="white"/>
<path fill-rule="evenodd" clip-rule="evenodd" d="M107.931 479.661C108.098 479.826 108.098 480.097 107.931 480.262C107.765 480.427 107.496 480.427 107.331 480.262C107.165 480.097 107.165 479.826 107.331 479.661C107.496 479.496 107.765 479.496 107.931 479.661Z" fill="white"/>
<path fill-rule="evenodd" clip-rule="evenodd" d="M55.3672 821.329C55.5336 821.496 55.5336 821.765 55.3672 821.929C55.2007 822.095 54.9316 822.095 54.7664 821.929C54.6012 821.765 54.6012 821.496 54.7664 821.329C54.9316 821.163 55.2007 821.163 55.3672 821.329Z" fill="white"/>
<path fill-rule="evenodd" clip-rule="evenodd" d="M62.8764 820.077C63.0428 820.243 63.0428 820.512 62.8764 820.677C62.7099 820.844 62.4408 820.844 62.2756 820.677C62.1104 820.512 62.1104 820.243 62.2756 820.077C62.4408 819.911 62.7099 819.911 62.8764 820.077Z" fill="white"/>
<path fill-rule="evenodd" clip-rule="evenodd" d="M115.441 746.236C115.607 746.403 115.607 746.672 115.441 746.837C115.274 747.003 115.005 747.003 114.84 746.837C114.675 746.672 114.675 746.403 114.84 746.236C115.005 746.071 115.274 746.071 115.441 746.236Z" fill="white"/>
<path fill-rule="evenodd" clip-rule="evenodd" d="M155.49 810.065C155.656 810.232 155.656 810.501 155.49 810.665C155.324 810.831 155.055 810.831 154.89 810.665C154.723 810.501 154.723 810.232 154.89 810.065C155.055 809.899 155.324 809.899 155.49 810.065Z" fill="white"/>
<path fill-rule="evenodd" clip-rule="evenodd" d="M124.201 743.734C124.368 743.899 124.368 744.169 124.201 744.334C124.036 744.5 123.767 744.5 123.6 744.334C123.435 744.169 123.435 743.899 123.6 743.734C123.767 743.569 124.036 743.569 124.201 743.734Z" fill="white"/>
<path fill-rule="evenodd" clip-rule="evenodd" d="M145.437 792.584C145.925 793.073 145.925 793.866 145.437 794.355C144.948 794.843 144.155 794.843 143.667 794.355C143.178 793.866 143.178 793.073 143.667 792.584C144.155 792.096 144.948 792.096 145.437 792.584Z" fill="white"/>
<path fill-rule="evenodd" clip-rule="evenodd" d="M125.412 721.247C125.901 721.736 125.901 722.529 125.412 723.017C124.924 723.506 124.131 723.506 123.642 723.017C123.153 722.529 123.153 721.736 123.642 721.247C124.131 720.759 124.924 720.759 125.412 721.247Z" fill="white"/>
<path fill-rule="evenodd" clip-rule="evenodd" d="M124.161 737.517C124.649 738.006 124.649 738.799 124.161 739.287C123.672 739.776 122.879 739.776 122.39 739.287C121.902 738.799 121.902 738.006 122.39 737.517C122.879 737.028 123.672 737.028 124.161 737.517Z" fill="white"/>
<path fill-rule="evenodd" clip-rule="evenodd" d="M221.78 467.187C222.269 467.676 222.269 468.469 221.78 468.956C221.291 469.446 220.498 469.446 220.01 468.956C219.521 468.469 219.521 467.676 220.01 467.187C220.498 466.698 221.291 466.698 221.78 467.187Z" fill="white"/>
<path fill-rule="evenodd" clip-rule="evenodd" d="M261.463 487.578C262.44 488.554 262.44 490.14 261.463 491.118C260.486 492.095 258.9 492.095 257.922 491.118C256.945 490.14 256.945 488.554 257.922 487.578C258.9 486.601 260.486 486.601 261.463 487.578Z" fill="white"/>
<path fill-rule="evenodd" clip-rule="evenodd" d="M275.596 510.99C276.084 511.479 276.084 512.272 275.596 512.76C275.107 513.249 274.314 513.249 273.826 512.76C273.337 512.272 273.337 511.479 273.826 510.99C274.314 510.502 275.107 510.502 275.596 510.99Z" fill="white"/>
<path fill-rule="evenodd" clip-rule="evenodd" d="M281.853 494.72C282.342 495.209 282.342 496.002 281.853 496.491C281.365 496.979 280.572 496.979 280.083 496.491C279.595 496.002 279.595 495.209 280.083 494.72C280.572 494.232 281.365 494.232 281.853 494.72Z" fill="white"/>
<path fill-rule="evenodd" clip-rule="evenodd" d="M270.63 479.661C270.797 479.827 270.797 480.096 270.63 480.262C270.465 480.427 270.195 480.427 270.029 480.262C269.864 480.096 269.864 479.827 270.029 479.661C270.195 479.495 270.465 479.495 270.63 479.661Z" fill="white"/>
<path fill-rule="evenodd" clip-rule="evenodd" d="M270.63 492.176C270.797 492.342 270.797 492.611 270.63 492.777C270.465 492.943 270.196 492.943 270.029 492.777C269.864 492.611 269.864 492.342 270.029 492.176C270.196 492.011 270.465 492.011 270.63 492.176Z" fill="white"/>
<path fill-rule="evenodd" clip-rule="evenodd" d="M260.577 475.948C261.066 476.436 261.066 477.229 260.577 477.718C260.089 478.206 259.296 478.206 258.807 477.718C258.319 477.229 258.319 476.436 258.807 475.948C259.296 475.459 260.089 475.459 260.577 475.948Z" fill="white"/>
<path fill-rule="evenodd" clip-rule="evenodd" d="M105.388 830.13C105.876 830.62 105.876 831.411 105.388 831.899C104.898 832.389 104.107 832.389 103.619 831.899C103.129 831.411 103.129 830.62 103.619 830.13C104.107 829.642 104.898 829.642 105.388 830.13Z" fill="white"/>
<path fill-rule="evenodd" clip-rule="evenodd" d="M213.019 970.303C213.508 970.791 213.508 971.582 213.019 972.07C212.531 972.561 211.738 972.561 211.249 972.07C210.76 971.582 210.76 970.791 211.249 970.303C211.738 969.813 212.531 969.813 213.019 970.303Z" fill="white"/>
<path fill-rule="evenodd" clip-rule="evenodd" d="M105.388 940.266C105.876 940.754 105.876 941.545 105.388 942.035C104.898 942.524 104.107 942.524 103.619 942.035C103.129 941.545 103.129 940.754 103.619 940.266C104.107 939.776 104.898 939.776 105.388 940.266Z" fill="white"/>
<path fill-rule="evenodd" clip-rule="evenodd" d="M64.0861 780.069C64.5763 780.558 64.5763 781.351 64.0861 781.839C63.5977 782.328 62.8072 782.328 62.317 781.839C61.8286 781.351 61.8286 780.558 62.317 780.069C62.8072 779.58 63.5977 779.58 64.0861 780.069Z" fill="white"/>
<path fill-rule="evenodd" clip-rule="evenodd" d="M223.031 986.573C223.52 987.061 223.52 987.851 223.031 988.342C222.543 988.83 221.75 988.83 221.261 988.342C220.773 987.851 220.773 987.061 221.261 986.573C221.75 986.082 222.543 986.082 223.031 986.573Z" fill="white"/>
<path fill-rule="evenodd" clip-rule="evenodd" d="M121.291 550.154C122.268 551.131 122.268 552.716 121.291 553.693C120.314 554.672 118.729 554.672 117.751 553.693C116.774 552.716 116.774 551.131 117.751 550.154C118.729 549.177 120.314 549.177 121.291 550.154Z" fill="white"/>
<path fill-rule="evenodd" clip-rule="evenodd" d="M197.635 552.657C198.612 553.634 198.612 555.219 197.635 556.196C196.658 557.175 195.072 557.175 194.094 556.196C193.117 555.219 193.117 553.634 194.094 552.657C195.072 551.68 196.658 551.68 197.635 552.657Z" fill="white"/>
<path fill-rule="evenodd" clip-rule="evenodd" d="M116.285 124.634C117.262 125.611 117.262 127.196 116.285 128.175C115.308 129.152 113.723 129.152 112.746 128.175C111.767 127.196 111.767 125.611 112.746 124.634C113.723 123.657 115.308 123.657 116.285 124.634Z" fill="white"/>
<path fill-rule="evenodd" clip-rule="evenodd" d="M87.6833 542.462C88.416 543.195 88.416 544.384 87.6833 545.117C86.9505 545.85 85.7618 545.85 85.0291 545.117C84.2946 544.384 84.2946 543.195 85.0291 542.462C85.7618 541.729 86.9505 541.729 87.6833 542.462Z" fill="white"/>
<path fill-rule="evenodd" clip-rule="evenodd" d="M115.4 554.794C115.888 555.283 115.888 556.075 115.4 556.564C114.91 557.053 114.119 557.053 113.631 556.564C113.141 556.075 113.141 555.283 113.631 554.794C114.119 554.305 114.91 554.305 115.4 554.794Z" fill="white"/>
<path fill-rule="evenodd" clip-rule="evenodd" d="M135.424 573.567C135.913 574.055 135.913 574.848 135.424 575.337C134.936 575.826 134.143 575.826 133.654 575.337C133.166 574.848 133.166 574.055 133.654 573.567C134.143 573.078 134.936 573.078 135.424 573.567Z" fill="white"/>
<path fill-rule="evenodd" clip-rule="evenodd" d="M205.51 596.094C205.999 596.583 205.999 597.374 205.51 597.863C205.021 598.354 204.229 598.354 203.74 597.863C203.251 597.374 203.251 596.583 203.74 596.094C204.229 595.606 205.021 595.606 205.51 596.094Z" fill="white"/>
<path fill-rule="evenodd" clip-rule="evenodd" d="M141.682 557.297C142.171 557.786 142.171 558.578 141.682 559.067C141.193 559.556 140.4 559.556 139.913 559.067C139.423 558.578 139.423 557.786 139.913 557.297C140.4 556.808 141.193 556.808 141.682 557.297Z" fill="white"/>
<path fill-rule="evenodd" clip-rule="evenodd" d="M131.71 542.237C131.877 542.404 131.877 542.673 131.71 542.838C131.545 543.004 131.276 543.004 131.11 542.838C130.944 542.673 130.944 542.404 131.11 542.237C131.276 542.072 131.545 542.072 131.71 542.237Z" fill="white"/>
<path fill-rule="evenodd" clip-rule="evenodd" d="M82.9006 519.71C83.0671 519.876 83.0671 520.145 82.9006 520.31C82.7354 520.477 82.4651 520.477 82.3012 520.31C82.1347 520.145 82.1347 519.876 82.3012 519.71C82.4651 519.544 82.7354 519.544 82.9006 519.71Z" fill="white"/>
<path fill-rule="evenodd" clip-rule="evenodd" d="M74.141 587.293C74.3062 587.458 74.3062 587.729 74.141 587.894C73.9746 588.059 73.7055 588.059 73.5403 587.894C73.3738 587.729 73.3738 587.458 73.5403 587.293C73.7055 587.127 73.9746 587.127 74.141 587.293Z" fill="white"/>
<path fill-rule="evenodd" clip-rule="evenodd" d="M131.71 554.753C131.877 554.918 131.877 555.188 131.71 555.354C131.545 555.519 131.276 555.519 131.11 555.354C130.944 555.188 130.944 554.918 131.11 554.753C131.276 554.587 131.545 554.587 131.71 554.753Z" fill="white"/>
<path fill-rule="evenodd" clip-rule="evenodd" d="M121.658 538.524C122.146 539.013 122.146 539.806 121.658 540.294C121.169 540.783 120.376 540.783 119.887 540.294C119.399 539.806 119.399 539.013 119.887 538.524C120.376 538.035 121.169 538.035 121.658 538.524Z" fill="white"/>
<path fill-rule="evenodd" clip-rule="evenodd" d="M121.658 457.175C122.146 457.663 122.146 458.456 121.658 458.945C121.169 459.433 120.376 459.433 119.887 458.945C119.399 458.456 119.399 457.663 119.887 457.175C120.376 456.686 121.169 456.686 121.658 457.175Z" fill="white"/>
<path fill-rule="evenodd" clip-rule="evenodd" d="M82.8604 574.818C83.3488 575.307 83.3488 576.1 82.8604 576.589C82.3702 577.077 81.5796 577.077 81.0913 576.589C80.6011 576.1 80.6011 575.307 81.0913 574.818C81.5796 574.33 82.3702 574.33 82.8604 574.818Z" fill="white"/>
<path fill-rule="evenodd" clip-rule="evenodd" d="M55.3268 802.597C55.8151 803.085 55.8151 803.878 55.3268 804.367C54.8366 804.855 54.046 804.855 53.5576 804.367C53.0674 803.878 53.0674 803.085 53.5576 802.597C54.046 802.108 54.8366 802.108 55.3268 802.597Z" fill="white"/>
<path fill-rule="evenodd" clip-rule="evenodd" d="M2.26585 817.275V819.825H-3.69549e-06V817.275H2.26585Z" fill="white"/>
<path fill-rule="evenodd" clip-rule="evenodd" d="M1.93419 817.65C2.3764 818.147 2.3764 818.952 1.93419 819.452C1.49032 819.949 0.774442 819.949 0.332235 819.452C-0.11164 818.952 -0.11164 818.147 0.332235 817.65C0.774442 817.15 1.49032 817.15 1.93419 817.65Z" fill="white"/>
<path fill-rule="evenodd" clip-rule="evenodd" d="M92.8726 755.039C93.361 755.527 93.361 756.32 92.8726 756.809C92.3824 757.297 91.5918 757.297 91.1035 756.809C90.6133 756.32 90.6133 755.527 91.1035 755.039C91.5918 754.55 92.3824 754.55 92.8726 755.039Z" fill="white"/>
<path fill-rule="evenodd" clip-rule="evenodd" d="M181.472 1016.24C179.744 1016.24 178.343 1014.84 178.343 1013.11C178.343 1011.38 179.744 1009.98 181.472 1009.98C183.201 1009.98 184.6 1011.38 184.6 1013.11C184.6 1014.84 183.201 1016.24 181.472 1016.24Z" fill="white"/>
<path fill-rule="evenodd" clip-rule="evenodd" d="M247.803 1012.49C246.075 1012.49 244.674 1011.09 244.674 1009.36C244.674 1007.63 246.075 1006.23 247.803 1006.23C249.532 1006.23 250.932 1007.63 250.932 1009.36C250.932 1011.09 249.532 1012.49 247.803 1012.49Z" fill="white"/>
<path fill-rule="evenodd" clip-rule="evenodd" d="M168.331 1062.55C166.949 1062.55 165.828 1061.43 165.828 1060.05C165.828 1058.66 166.949 1057.54 168.331 1057.54C169.712 1057.54 170.834 1058.66 170.834 1060.05C170.834 1061.43 169.712 1062.55 168.331 1062.55Z" fill="white"/>
<path fill-rule="evenodd" clip-rule="evenodd" d="M204.625 959.923C203.243 959.923 202.122 958.802 202.122 957.422C202.122 956.038 203.243 954.917 204.625 954.917C206.007 954.917 207.128 956.038 207.128 957.422C207.128 958.802 206.007 959.923 204.625 959.923Z" fill="white"/>
<path fill-rule="evenodd" clip-rule="evenodd" d="M347.299 1083.82C345.917 1083.82 344.796 1082.7 344.796 1081.32C344.796 1079.94 345.917 1078.82 347.299 1078.82C348.681 1078.82 349.802 1079.94 349.802 1081.32C349.802 1082.7 348.681 1083.82 347.299 1083.82Z" fill="white"/>
<path fill-rule="evenodd" clip-rule="evenodd" d="M240.919 1085.08C239.537 1085.08 238.416 1083.95 238.416 1082.57C238.416 1081.19 239.537 1080.07 240.919 1080.07C242.301 1080.07 243.422 1081.19 243.422 1082.57C243.422 1083.95 242.301 1085.08 240.919 1085.08Z" fill="white"/>
<path fill-rule="evenodd" clip-rule="evenodd" d="M234.036 941.15C233 941.15 232.159 940.309 232.159 939.273C232.159 938.236 233 937.395 234.036 937.395C235.072 937.395 235.913 938.236 235.913 939.273C235.913 940.309 235.072 941.15 234.036 941.15Z" fill="white"/>
<path fill-rule="evenodd" clip-rule="evenodd" d="M195.864 1020C195.173 1020 194.613 1019.44 194.613 1018.74C194.613 1018.05 195.173 1017.49 195.864 1017.49C196.555 1017.49 197.116 1018.05 197.116 1018.74C197.116 1019.44 196.555 1020 195.864 1020Z" fill="white"/>
<path fill-rule="evenodd" clip-rule="evenodd" d="M205.876 952.414C205.185 952.414 204.625 951.853 204.625 951.161C204.625 950.47 205.185 949.911 205.876 949.911C206.568 949.911 207.128 950.47 207.128 951.161C207.128 951.853 206.568 952.414 205.876 952.414Z" fill="white"/>
<path fill-rule="evenodd" clip-rule="evenodd" d="M178.343 953.665C177.652 953.665 177.091 953.104 177.091 952.413C177.091 951.721 177.652 951.162 178.343 951.162C179.034 951.162 179.594 951.721 179.594 952.413C179.594 953.104 179.034 953.665 178.343 953.665Z" fill="white"/>
<path fill-rule="evenodd" clip-rule="evenodd" d="M185.852 968.683C185.161 968.683 184.6 968.123 184.6 967.431C184.6 966.739 185.161 966.18 185.852 966.18C186.543 966.18 187.104 966.739 187.104 967.431C187.104 968.123 186.543 968.683 185.852 968.683Z" fill="white"/>
<path fill-rule="evenodd" clip-rule="evenodd" d="M179.594 937.395C178.903 937.395 178.343 936.835 178.343 936.143C178.343 935.451 178.903 934.892 179.594 934.892C180.286 934.892 180.846 935.451 180.846 936.143C180.846 936.835 180.286 937.395 179.594 937.395Z" fill="white"/>
<path fill-rule="evenodd" clip-rule="evenodd" d="M272.207 1031.26C271.516 1031.26 270.956 1030.7 270.956 1030.01C270.956 1029.32 271.516 1028.76 272.207 1028.76C272.899 1028.76 273.459 1029.32 273.459 1030.01C273.459 1030.7 272.899 1031.26 272.207 1031.26Z" fill="white"/>
<path fill-rule="evenodd" clip-rule="evenodd" d="M203.999 972.237C203.765 972.237 203.575 972.047 203.575 971.812C203.575 971.578 203.765 971.387 203.999 971.387C204.233 971.387 204.423 971.578 204.423 971.812C204.423 972.047 204.233 972.237 203.999 972.237Z" fill="white"/>
<path fill-rule="evenodd" clip-rule="evenodd" d="M193.987 964.728C193.753 964.728 193.563 964.539 193.563 964.304C193.563 964.07 193.753 963.878 193.987 963.878C194.221 963.878 194.411 964.07 194.411 964.304C194.411 964.539 194.221 964.728 193.987 964.728Z" fill="white"/>
<path fill-rule="evenodd" clip-rule="evenodd" d="M213.386 968.683C212.694 968.683 212.134 968.123 212.134 967.431C212.134 966.739 212.694 966.18 213.386 966.18C214.077 966.18 214.637 966.739 214.637 967.431C214.637 968.123 214.077 968.683 213.386 968.683Z" fill="white"/>
<path fill-rule="evenodd" clip-rule="evenodd" d="M356.06 937.395C355.369 937.395 354.808 936.835 354.808 936.143C354.808 935.451 355.369 934.892 356.06 934.892C356.751 934.892 357.312 935.451 357.312 936.143C357.312 936.835 356.751 937.395 356.06 937.395Z" fill="white"/>
<path fill-rule="evenodd" clip-rule="evenodd" d="M277.214 959.923C276.522 959.923 275.962 959.361 275.962 958.669C275.962 957.98 276.522 957.42 277.214 957.42C277.905 957.42 278.465 957.98 278.465 958.669C278.465 959.361 277.905 959.923 277.214 959.923Z" fill="white"/>
<path fill-rule="evenodd" clip-rule="evenodd" d="M372.665 1231.17C373.887 1232.39 373.887 1234.37 372.665 1235.59C371.444 1236.82 369.463 1236.82 368.24 1235.59C367.018 1234.37 367.018 1232.39 368.24 1231.17C369.463 1229.95 371.444 1229.95 372.665 1231.17Z" fill="white"/>
<path fill-rule="evenodd" clip-rule="evenodd" d="M362.653 1083.49C363.875 1084.71 363.875 1086.69 362.653 1087.91C361.431 1089.14 359.451 1089.14 358.228 1087.91C357.006 1086.69 357.006 1084.71 358.228 1083.49C359.451 1082.27 361.431 1082.27 362.653 1083.49Z" fill="white"/>
<path fill-rule="evenodd" clip-rule="evenodd" d="M322.604 1184.86C323.826 1186.09 323.826 1188.07 322.604 1189.29C321.382 1190.51 319.402 1190.51 318.179 1189.29C316.957 1188.07 316.957 1186.09 318.179 1184.86C319.402 1183.64 321.382 1183.64 322.604 1184.86Z" fill="white"/>
<path fill-rule="evenodd" clip-rule="evenodd" d="M415.401 1208.46C416.378 1209.44 416.378 1211.02 415.401 1212C414.424 1212.98 412.839 1212.98 411.86 1212C410.883 1211.02 410.883 1209.44 411.86 1208.46C412.839 1207.48 414.424 1207.48 415.401 1208.46Z" fill="white"/>
<path fill-rule="evenodd" clip-rule="evenodd" d="M316.53 1253.51C317.507 1254.49 317.507 1256.08 316.53 1257.05C315.553 1258.03 313.968 1258.03 312.989 1257.05C312.012 1256.08 312.012 1254.49 312.989 1253.51C313.968 1252.54 315.553 1252.54 316.53 1253.51Z" fill="white"/>
<path fill-rule="evenodd" clip-rule="evenodd" d="M380.358 1139.62C381.335 1140.6 381.335 1142.19 380.358 1143.16C379.381 1144.14 377.795 1144.14 376.819 1143.16C375.84 1142.19 375.84 1140.6 376.819 1139.62C377.795 1138.65 379.381 1138.65 380.358 1139.62Z" fill="white"/>
<path fill-rule="evenodd" clip-rule="evenodd" d="M282.922 1245.82C283.655 1246.55 283.655 1247.74 282.922 1248.48C282.189 1249.21 280.999 1249.21 280.266 1248.48C279.533 1247.74 279.533 1246.55 280.266 1245.82C280.999 1245.09 282.189 1245.09 282.922 1245.82Z" fill="white"/>
<path fill-rule="evenodd" clip-rule="evenodd" d="M365.706 1216.85C366.194 1217.34 366.194 1218.13 365.706 1218.62C365.217 1219.11 364.424 1219.11 363.936 1218.62C363.447 1218.13 363.447 1217.34 363.936 1216.85C364.424 1216.36 365.217 1216.36 365.706 1216.85Z" fill="white"/>
<path fill-rule="evenodd" clip-rule="evenodd" d="M310.638 1258.15C311.127 1258.64 311.127 1259.43 310.638 1259.92C310.15 1260.41 309.357 1260.41 308.868 1259.92C308.38 1259.43 308.38 1258.64 308.868 1258.15C309.357 1257.66 310.15 1257.66 310.638 1258.15Z" fill="white"/>
<path fill-rule="evenodd" clip-rule="evenodd" d="M330.663 1276.93C331.152 1277.42 331.152 1278.21 330.663 1278.7C330.174 1279.18 329.381 1279.18 328.893 1278.7C328.404 1278.21 328.404 1277.42 328.893 1276.93C329.381 1276.44 330.174 1276.44 330.663 1276.93Z" fill="white"/>
<path fill-rule="evenodd" clip-rule="evenodd" d="M336.921 1260.66C337.409 1261.15 337.409 1261.94 336.921 1262.43C336.432 1262.92 335.639 1262.92 335.15 1262.43C334.662 1261.94 334.662 1261.15 335.15 1260.66C335.639 1260.17 336.432 1260.17 336.921 1260.66Z" fill="white"/>
<path fill-rule="evenodd" clip-rule="evenodd" d="M319.399 1156.78C319.888 1157.27 319.888 1158.06 319.399 1158.55C318.911 1159.04 318.118 1159.04 317.629 1158.55C317.14 1158.06 317.14 1157.27 317.629 1156.78C318.118 1156.29 318.911 1156.29 319.399 1156.78Z" fill="white"/>
<path fill-rule="evenodd" clip-rule="evenodd" d="M326.95 1244.35C327.115 1244.51 327.115 1244.78 326.95 1244.95C326.785 1245.11 326.514 1245.11 326.349 1244.95C326.183 1244.78 326.183 1244.51 326.349 1244.35C326.514 1244.18 326.785 1244.18 326.95 1244.35Z" fill="white"/>
<path fill-rule="evenodd" clip-rule="evenodd" d="M268.127 1290.65C268.294 1290.82 268.294 1291.09 268.127 1291.25C267.962 1291.42 267.692 1291.42 267.526 1291.25C267.361 1291.09 267.361 1290.82 267.526 1290.65C267.692 1290.49 267.962 1290.49 268.127 1290.65Z" fill="white"/>
<path fill-rule="evenodd" clip-rule="evenodd" d="M425.456 1091.86V1093.53H424.056V1091.86H425.456Z" fill="white"/>
<path fill-rule="evenodd" clip-rule="evenodd" d="M425.29 1092.29C425.512 1092.51 425.512 1092.87 425.29 1093.09C425.07 1093.31 424.711 1093.31 424.491 1093.09C424.269 1092.87 424.269 1092.51 424.491 1092.29C424.711 1092.07 425.07 1092.07 425.29 1092.29Z" fill="white"/>
<path fill-rule="evenodd" clip-rule="evenodd" d="M326.949 1258.11C327.115 1258.28 327.115 1258.55 326.949 1258.71C326.784 1258.88 326.514 1258.88 326.349 1258.71C326.184 1258.55 326.184 1258.28 326.349 1258.11C326.514 1257.95 326.784 1257.95 326.949 1258.11Z" fill="white"/>
<path fill-rule="evenodd" clip-rule="evenodd" d="M316.896 1240.63C317.385 1241.12 317.385 1241.91 316.896 1242.4C316.408 1242.89 315.615 1242.89 315.126 1242.4C314.637 1241.91 314.637 1241.12 315.126 1240.63C315.615 1240.14 316.408 1240.14 316.896 1240.63Z" fill="white"/>
<path fill-rule="evenodd" clip-rule="evenodd" d="M278.099 1278.18C278.587 1278.67 278.587 1279.46 278.099 1279.95C277.61 1280.44 276.817 1280.44 276.329 1279.95C275.84 1279.46 275.84 1278.67 276.329 1278.18C276.817 1277.69 277.61 1277.69 278.099 1278.18Z" fill="white"/>
<path fill-rule="evenodd" clip-rule="evenodd" d="M424.528 1045.39C425.016 1045.88 425.016 1046.67 424.528 1047.16C424.039 1047.65 423.246 1047.65 422.758 1047.16C422.269 1046.67 422.269 1045.88 422.758 1045.39C423.246 1044.9 424.039 1044.9 424.528 1045.39Z" fill="white"/>
<path fill-rule="evenodd" clip-rule="evenodd" d="M226.786 1249.39C227.275 1249.88 227.275 1250.67 226.786 1251.16C226.297 1251.65 225.504 1251.65 225.016 1251.16C224.527 1250.67 224.527 1249.88 225.016 1249.39C225.504 1248.9 226.297 1248.9 226.786 1249.39Z" fill="white"/>
<path fill-rule="evenodd" clip-rule="evenodd" d="M265.583 1203.09C266.072 1203.58 266.072 1204.37 265.583 1204.85C265.095 1205.35 264.302 1205.35 263.813 1204.85C263.325 1204.37 263.325 1203.58 263.813 1203.09C264.302 1202.6 265.095 1202.6 265.583 1203.09Z" fill="white"/>
<path fill-rule="evenodd" clip-rule="evenodd" d="M307.586 1370.09C308.807 1371.31 308.807 1373.29 307.586 1374.51C306.364 1375.74 304.383 1375.74 303.162 1374.51C301.938 1373.29 301.938 1371.31 303.162 1370.09C304.383 1368.87 306.364 1368.87 307.586 1370.09Z" fill="white"/>
<path fill-rule="evenodd" clip-rule="evenodd" d="M378.923 1542.8C380.144 1544.02 380.144 1546 378.923 1547.23C377.701 1548.45 375.721 1548.45 374.498 1547.23C373.276 1546 373.276 1544.02 374.498 1542.8C375.721 1541.58 377.701 1541.58 378.923 1542.8Z" fill="white"/>
<path fill-rule="evenodd" clip-rule="evenodd" d="M358.898 1442.68C360.12 1443.9 360.12 1445.88 358.898 1447.1C357.677 1448.32 355.696 1448.32 354.474 1447.1C353.251 1445.88 353.251 1443.9 354.474 1442.68C355.696 1441.46 357.677 1441.46 358.898 1442.68Z" fill="white"/>
<path fill-rule="evenodd" clip-rule="evenodd" d="M258.776 1326.29C259.998 1327.51 259.998 1329.49 258.776 1330.71C257.554 1331.93 255.574 1331.93 254.351 1330.71C253.129 1329.49 253.129 1327.51 254.351 1326.29C255.574 1325.06 257.554 1325.06 258.776 1326.29Z" fill="white"/>
<path fill-rule="evenodd" clip-rule="evenodd" d="M221.23 1337.55C222.452 1338.77 222.452 1340.75 221.23 1341.97C220.009 1343.2 218.028 1343.2 216.805 1341.97C215.583 1340.75 215.583 1338.77 216.805 1337.55C218.028 1336.33 220.009 1336.33 221.23 1337.55Z" fill="white"/>
<path fill-rule="evenodd" clip-rule="evenodd" d="M351.573 1347.38C352.55 1348.36 352.55 1349.94 351.573 1350.92C350.596 1351.9 349.011 1351.9 348.032 1350.92C347.055 1349.94 347.055 1348.36 348.032 1347.38C349.011 1346.4 350.596 1346.4 351.573 1347.38Z" fill="white"/>
<path fill-rule="evenodd" clip-rule="evenodd" d="M415.401 1487.55C416.378 1488.53 416.378 1490.11 415.401 1491.09C414.424 1492.07 412.838 1492.07 411.861 1491.09C410.883 1490.11 410.883 1488.53 411.861 1487.55C412.838 1486.57 414.424 1486.57 415.401 1487.55Z" fill="white"/>
<path fill-rule="evenodd" clip-rule="evenodd" d="M396.628 1467.52C397.605 1468.5 397.605 1470.09 396.628 1471.06C395.651 1472.04 394.066 1472.04 393.087 1471.06C392.11 1470.09 392.11 1468.5 393.087 1467.52C394.066 1466.55 395.651 1466.55 396.628 1467.52Z" fill="white"/>
<path fill-rule="evenodd" clip-rule="evenodd" d="M252.702 1393.68C253.679 1394.66 253.679 1396.25 252.702 1397.23C251.725 1398.2 250.14 1398.2 249.161 1397.23C248.184 1396.25 248.184 1394.66 249.161 1393.68C250.14 1392.71 251.725 1392.71 252.702 1393.68Z" fill="white"/>
<path fill-rule="evenodd" clip-rule="evenodd" d="M316.53 1279.8C317.507 1280.77 317.507 1282.36 316.53 1283.33C315.553 1284.31 313.968 1284.31 312.989 1283.33C312.012 1282.36 312.012 1280.77 312.989 1279.8C313.968 1278.82 315.553 1278.82 316.53 1279.8Z" fill="white"/>
<path fill-rule="evenodd" clip-rule="evenodd" d="M219.092 1385.99C219.827 1386.72 219.827 1387.91 219.092 1388.65C218.36 1389.38 217.171 1389.38 216.438 1388.65C215.706 1387.91 215.706 1386.72 216.438 1385.99C217.171 1385.26 218.36 1385.26 219.092 1385.99Z" fill="white"/>
<path fill-rule="evenodd" clip-rule="evenodd" d="M182.799 1401.01C183.532 1401.74 183.532 1402.93 182.799 1403.67C182.065 1404.4 180.878 1404.4 180.144 1403.67C179.411 1402.93 179.411 1401.74 180.144 1401.01C180.878 1400.28 182.065 1400.28 182.799 1401.01Z" fill="white"/>
<path fill-rule="evenodd" clip-rule="evenodd" d="M230.358 1330.93C231.09 1331.66 231.09 1332.85 230.358 1333.58C229.625 1334.31 228.436 1334.31 227.702 1333.58C226.969 1332.85 226.969 1331.66 227.702 1330.93C228.436 1330.19 229.625 1330.19 230.358 1330.93Z" fill="white"/>
<path fill-rule="evenodd" clip-rule="evenodd" d="M162.775 1224.55C163.508 1225.28 163.508 1226.47 162.775 1227.2C162.042 1227.93 160.854 1227.93 160.119 1227.2C159.387 1226.47 159.387 1225.28 160.119 1224.55C160.854 1223.81 162.042 1223.81 162.775 1224.55Z" fill="white"/>
<path fill-rule="evenodd" clip-rule="evenodd" d="M300.626 1358.28C301.115 1358.77 301.115 1359.56 300.626 1360.05C300.138 1360.53 299.345 1360.53 298.856 1360.05C298.368 1359.56 298.368 1358.77 298.856 1358.28C299.345 1357.79 300.138 1357.79 300.626 1358.28Z" fill="white"/>
<path fill-rule="evenodd" clip-rule="evenodd" d="M246.81 1398.32C247.299 1398.81 247.299 1399.61 246.81 1400.09C246.322 1400.58 245.529 1400.58 245.04 1400.09C244.552 1399.61 244.552 1398.81 245.04 1398.32C245.529 1397.84 246.322 1397.84 246.81 1398.32Z" fill="white"/>
<path fill-rule="evenodd" clip-rule="evenodd" d="M230.541 1339.5C231.029 1339.99 231.029 1340.78 230.541 1341.27C230.052 1341.76 229.259 1341.76 228.77 1341.27C228.282 1340.78 228.282 1339.99 228.77 1339.5C229.259 1339.01 230.052 1339.01 230.541 1339.5Z" fill="white"/>
<path fill-rule="evenodd" clip-rule="evenodd" d="M256.823 1470.91C257.311 1471.4 257.311 1472.19 256.823 1472.68C256.334 1473.17 255.541 1473.17 255.053 1472.68C254.564 1472.19 254.564 1471.4 255.053 1470.91C255.541 1470.42 256.334 1470.42 256.823 1470.91Z" fill="white"/>
<path fill-rule="evenodd" clip-rule="evenodd" d="M265.583 1507.21C266.072 1507.7 266.072 1508.49 265.583 1508.98C265.095 1509.47 264.302 1509.47 263.813 1508.98C263.325 1508.49 263.325 1507.7 263.813 1507.21C264.302 1506.72 265.095 1506.72 265.583 1507.21Z" fill="white"/>
<path fill-rule="evenodd" clip-rule="evenodd" d="M266.835 1417.1C267.324 1417.59 267.324 1418.38 266.835 1418.87C266.346 1419.36 265.553 1419.36 265.065 1418.87C264.576 1418.38 264.576 1417.59 265.065 1417.1C265.553 1416.61 266.346 1416.61 266.835 1417.1Z" fill="white"/>
<path fill-rule="evenodd" clip-rule="evenodd" d="M353.19 1165.54C353.679 1166.03 353.679 1166.82 353.19 1167.31C352.702 1167.8 351.909 1167.8 351.42 1167.31C350.932 1166.82 350.932 1166.03 351.42 1165.54C351.909 1165.05 352.702 1165.05 353.19 1165.54Z" fill="white"/>
<path fill-rule="evenodd" clip-rule="evenodd" d="M412.012 1572.29C412.501 1572.78 412.501 1573.57 412.012 1574.06C411.524 1574.55 410.731 1574.55 410.242 1574.06C409.754 1573.57 409.754 1572.78 410.242 1572.29C410.731 1571.8 411.524 1571.8 412.012 1572.29Z" fill="white"/>
<path fill-rule="evenodd" clip-rule="evenodd" d="M273.093 1402.08C273.581 1402.57 273.581 1403.36 273.093 1403.85C272.604 1404.34 271.811 1404.34 271.322 1403.85C270.834 1403.36 270.834 1402.57 271.322 1402.08C271.811 1401.59 272.604 1401.59 273.093 1402.08Z" fill="white"/>
<path fill-rule="evenodd" clip-rule="evenodd" d="M254.32 1295.7C254.808 1296.19 254.808 1296.98 254.32 1297.47C253.831 1297.96 253.038 1297.96 252.55 1297.47C252.061 1296.98 252.061 1296.19 252.55 1295.7C253.038 1295.21 253.831 1295.21 254.32 1295.7Z" fill="white"/>
<path fill-rule="evenodd" clip-rule="evenodd" d="M360.7 1029.12C361.188 1029.61 361.188 1030.4 360.7 1030.89C360.211 1031.38 359.418 1031.38 358.93 1030.89C358.441 1030.4 358.441 1029.61 358.93 1029.12C359.418 1028.63 360.211 1028.63 360.7 1029.12Z" fill="white"/>
<path fill-rule="evenodd" clip-rule="evenodd" d="M261.869 1385.77C262.036 1385.94 262.036 1386.2 261.869 1386.37C261.704 1386.53 261.435 1386.53 261.269 1386.37C261.103 1386.2 261.103 1385.94 261.269 1385.77C261.435 1385.6 261.704 1385.6 261.869 1385.77Z" fill="white"/>
<path fill-rule="evenodd" clip-rule="evenodd" d="M243.096 1291.9C243.263 1292.07 243.263 1292.34 243.096 1292.5C242.931 1292.67 242.662 1292.67 242.496 1292.5C242.331 1292.34 242.331 1292.07 242.496 1291.9C242.662 1291.74 242.931 1291.74 243.096 1291.9Z" fill="white"/>
<path fill-rule="evenodd" clip-rule="evenodd" d="M254.361 1308.17C254.526 1308.34 254.526 1308.61 254.361 1308.77C254.195 1308.94 253.926 1308.94 253.76 1308.77C253.594 1308.61 253.594 1308.34 253.76 1308.17C253.926 1308.01 254.195 1308.01 254.361 1308.17Z" fill="white"/>
<path fill-rule="evenodd" clip-rule="evenodd" d="M356.987 1201.79C357.152 1201.96 357.152 1202.23 356.987 1202.39C356.82 1202.56 356.551 1202.56 356.386 1202.39C356.219 1202.23 356.219 1201.96 356.386 1201.79C356.551 1201.63 356.82 1201.63 356.987 1201.79Z" fill="white"/>
<path fill-rule="evenodd" clip-rule="evenodd" d="M204.3 1430.82C204.465 1430.99 204.465 1431.26 204.3 1431.42C204.134 1431.59 203.865 1431.59 203.699 1431.42C203.534 1431.26 203.534 1430.99 203.699 1430.82C203.865 1430.66 204.134 1430.66 204.3 1430.82Z" fill="white"/>
<path fill-rule="evenodd" clip-rule="evenodd" d="M162.999 1432.07C163.165 1432.24 163.165 1432.51 162.999 1432.67C162.833 1432.84 162.564 1432.84 162.398 1432.67C162.233 1432.51 162.233 1432.24 162.398 1432.07C162.564 1431.91 162.833 1431.91 162.999 1432.07Z" fill="white"/>
<path fill-rule="evenodd" clip-rule="evenodd" d="M215.563 1067.88C215.729 1068.05 215.729 1068.31 215.563 1068.48C215.398 1068.65 215.129 1068.65 214.962 1068.48C214.797 1068.31 214.797 1068.05 214.962 1067.88C215.129 1067.71 215.398 1067.71 215.563 1067.88Z" fill="white"/>
<path fill-rule="evenodd" clip-rule="evenodd" d="M161.747 1409.55C161.914 1409.71 161.914 1409.98 161.747 1410.15C161.582 1410.31 161.313 1410.31 161.146 1410.15C160.981 1409.98 160.981 1409.71 161.146 1409.55C161.313 1409.38 161.582 1409.38 161.747 1409.55Z" fill="white"/>
<path fill-rule="evenodd" clip-rule="evenodd" d="M169.256 1408.3C169.423 1408.46 169.423 1408.73 169.256 1408.9C169.091 1409.06 168.821 1409.06 168.656 1408.9C168.49 1408.73 168.49 1408.46 168.656 1408.3C168.821 1408.13 169.091 1408.13 169.256 1408.3Z" fill="white"/>
<path fill-rule="evenodd" clip-rule="evenodd" d="M224.324 1335.71C224.489 1335.87 224.489 1336.14 224.324 1336.31C224.159 1336.47 223.888 1336.47 223.723 1336.31C223.558 1336.14 223.558 1335.87 223.723 1335.71C223.888 1335.54 224.159 1335.54 224.324 1335.71Z" fill="white"/>
<path fill-rule="evenodd" clip-rule="evenodd" d="M261.869 1398.28C262.036 1398.45 262.036 1398.72 261.869 1398.88C261.704 1399.05 261.435 1399.05 261.269 1398.88C261.103 1398.72 261.103 1398.45 261.269 1398.28C261.435 1398.12 261.704 1398.12 261.869 1398.28Z" fill="white"/>
<path fill-rule="evenodd" clip-rule="evenodd" d="M231.834 1331.95C231.999 1332.12 231.999 1332.39 231.834 1332.55C231.667 1332.72 231.398 1332.72 231.233 1332.55C231.066 1332.39 231.066 1332.12 231.233 1331.95C231.398 1331.79 231.667 1331.79 231.834 1331.95Z" fill="white"/>
<path fill-rule="evenodd" clip-rule="evenodd" d="M251.817 1380.8C252.305 1381.29 252.305 1382.08 251.817 1382.57C251.328 1383.06 250.535 1383.06 250.046 1382.57C249.558 1382.08 249.558 1381.29 250.046 1380.8C250.535 1380.31 251.328 1380.31 251.817 1380.8Z" fill="white"/>
<path fill-rule="evenodd" clip-rule="evenodd" d="M233.044 1309.47C233.532 1309.96 233.532 1310.75 233.044 1311.23C232.555 1311.73 231.762 1311.73 231.274 1311.23C230.785 1310.75 230.785 1309.96 231.274 1309.47C231.762 1308.98 232.555 1308.98 233.044 1309.47Z" fill="white"/>
<path fill-rule="evenodd" clip-rule="evenodd" d="M233.044 1325.74C233.532 1326.23 233.532 1327.02 233.044 1327.5C232.555 1327.99 231.762 1327.99 231.274 1327.5C230.785 1327.02 230.785 1326.23 231.274 1325.74C231.762 1325.25 232.555 1325.25 233.044 1325.74Z" fill="white"/>
<path fill-rule="evenodd" clip-rule="evenodd" d="M330.663 1055.41C331.152 1055.9 331.152 1056.69 330.663 1057.17C330.174 1057.66 329.381 1057.66 328.893 1057.17C328.404 1056.69 328.404 1055.9 328.893 1055.41C329.381 1054.92 330.174 1054.92 330.663 1055.41Z" fill="white"/>
<path fill-rule="evenodd" clip-rule="evenodd" d="M369.094 1075.8C370.071 1076.77 370.071 1078.36 369.094 1079.34C368.117 1080.31 366.532 1080.31 365.555 1079.34C364.576 1078.36 364.576 1076.77 365.555 1075.8C366.532 1074.82 368.117 1074.82 369.094 1075.8Z" fill="white"/>
<path fill-rule="evenodd" clip-rule="evenodd" d="M383.227 1099.21C383.716 1099.7 383.716 1100.49 383.227 1100.98C382.738 1101.47 381.945 1101.47 381.459 1100.98C380.968 1100.49 380.968 1099.7 381.459 1099.21C381.945 1098.72 382.738 1098.72 383.227 1099.21Z" fill="white"/>
<path fill-rule="evenodd" clip-rule="evenodd" d="M388.233 1082.94C388.722 1083.43 388.722 1084.22 388.233 1084.71C387.745 1085.2 386.952 1085.2 386.463 1084.71C385.975 1084.22 385.975 1083.43 386.463 1082.94C386.952 1082.45 387.745 1082.45 388.233 1082.94Z" fill="white"/>
<path fill-rule="evenodd" clip-rule="evenodd" d="M378.263 1067.88C378.428 1068.05 378.428 1068.32 378.263 1068.48C378.096 1068.65 377.827 1068.65 377.662 1068.48C377.495 1068.32 377.495 1068.05 377.662 1067.88C377.827 1067.71 378.096 1067.71 378.263 1067.88Z" fill="white"/>
<path fill-rule="evenodd" clip-rule="evenodd" d="M378.263 1080.39C378.428 1080.56 378.428 1080.83 378.263 1081C378.096 1081.16 377.827 1081.16 377.662 1081C377.495 1080.83 377.495 1080.56 377.662 1080.39C377.827 1080.23 378.096 1080.23 378.263 1080.39Z" fill="white"/>
<path fill-rule="evenodd" clip-rule="evenodd" d="M368.209 1064.17C368.697 1064.66 368.697 1065.45 368.209 1065.94C367.72 1066.43 366.927 1066.43 366.439 1065.94C365.95 1065.45 365.95 1064.66 366.439 1064.17C366.927 1063.68 367.72 1063.68 368.209 1064.17Z" fill="white"/>
<path fill-rule="evenodd" clip-rule="evenodd" d="M213.019 1418.35C213.508 1418.84 213.508 1419.63 213.019 1420.12C212.531 1420.61 211.738 1420.61 211.249 1420.12C210.76 1419.63 210.76 1418.84 211.249 1418.35C211.738 1417.86 212.531 1417.86 213.019 1418.35Z" fill="white"/>
<path fill-rule="evenodd" clip-rule="evenodd" d="M320.651 1558.52C321.139 1559.01 321.139 1559.8 320.651 1560.29C320.162 1560.78 319.369 1560.78 318.881 1560.29C318.392 1559.8 318.392 1559.01 318.881 1558.52C319.369 1558.03 320.162 1558.03 320.651 1558.52Z" fill="white"/>
<path fill-rule="evenodd" clip-rule="evenodd" d="M211.768 1529.74C212.256 1530.22 212.256 1531.02 211.768 1531.51C211.279 1531.99 210.486 1531.99 209.998 1531.51C209.509 1531.02 209.509 1530.22 209.998 1529.74C210.486 1529.25 211.279 1529.25 211.768 1529.74Z" fill="white"/>
<path fill-rule="evenodd" clip-rule="evenodd" d="M171.719 1369.54C172.207 1370.03 172.207 1370.82 171.719 1371.31C171.23 1371.8 170.437 1371.8 169.949 1371.31C169.46 1370.82 169.46 1370.03 169.949 1369.54C170.437 1369.05 171.23 1369.05 171.719 1369.54Z" fill="white"/>
<path fill-rule="evenodd" clip-rule="evenodd" d="M330.997 1574.54V1576.8H328.732V1574.54H330.997Z" fill="white"/>
<path fill-rule="evenodd" clip-rule="evenodd" d="M330.665 1574.87C331.107 1575.31 331.107 1576.03 330.665 1576.47C330.223 1576.91 329.505 1576.91 329.063 1576.47C328.621 1576.03 328.621 1575.31 329.063 1574.87C329.505 1574.42 330.223 1574.42 330.665 1574.87Z" fill="white"/>
<path fill-rule="evenodd" clip-rule="evenodd" d="M228.923 1138.37C229.9 1139.35 229.9 1140.94 228.923 1141.91C227.946 1142.89 226.36 1142.89 225.383 1141.91C224.405 1140.94 224.405 1139.35 225.383 1138.37C226.36 1137.4 227.946 1137.4 228.923 1138.37Z" fill="white"/>
<path fill-rule="evenodd" clip-rule="evenodd" d="M305.266 1142.13C306.243 1143.1 306.243 1144.69 305.266 1145.67C304.289 1146.64 302.704 1146.64 301.727 1145.67C300.748 1144.69 300.748 1143.1 301.727 1142.13C302.704 1141.15 304.289 1141.15 305.266 1142.13Z" fill="white"/>
<path fill-rule="evenodd" clip-rule="evenodd" d="M195.315 1130.68C196.047 1131.41 196.047 1132.6 195.315 1133.34C194.582 1134.07 193.394 1134.07 192.659 1133.34C191.926 1132.6 191.926 1131.41 192.659 1130.68C193.394 1129.95 194.582 1129.95 195.315 1130.68Z" fill="white"/>
<path fill-rule="evenodd" clip-rule="evenodd" d="M223.031 1143.01C223.52 1143.5 223.52 1144.29 223.031 1144.78C222.543 1145.27 221.75 1145.27 221.261 1144.78C220.773 1144.29 220.773 1143.5 221.261 1143.01C221.75 1142.52 222.543 1142.52 223.031 1143.01Z" fill="white"/>
<path fill-rule="evenodd" clip-rule="evenodd" d="M243.056 1161.79C243.545 1162.28 243.545 1163.07 243.056 1163.55C242.567 1164.04 241.774 1164.04 241.286 1163.55C240.797 1163.07 240.797 1162.28 241.286 1161.79C241.774 1161.3 242.567 1161.3 243.056 1161.79Z" fill="white"/>
<path fill-rule="evenodd" clip-rule="evenodd" d="M314.393 1184.31C314.882 1184.8 314.882 1185.59 314.393 1186.08C313.904 1186.57 313.112 1186.57 312.623 1186.08C312.134 1185.59 312.134 1184.8 312.623 1184.31C313.112 1183.82 313.904 1183.82 314.393 1184.31Z" fill="white"/>
<path fill-rule="evenodd" clip-rule="evenodd" d="M249.314 1145.52C249.802 1146.01 249.802 1146.8 249.314 1147.29C248.825 1147.77 248.032 1147.77 247.543 1147.29C247.055 1146.8 247.055 1146.01 247.543 1145.52C248.032 1145.03 248.825 1145.03 249.314 1145.52Z" fill="white"/>
<path fill-rule="evenodd" clip-rule="evenodd" d="M239.343 1130.46C239.508 1130.62 239.508 1130.89 239.343 1131.06C239.176 1131.22 238.907 1131.22 238.742 1131.06C238.576 1130.89 238.576 1130.62 238.742 1130.46C238.907 1130.29 239.176 1130.29 239.343 1130.46Z" fill="white"/>
<path fill-rule="evenodd" clip-rule="evenodd" d="M190.533 1107.93C190.698 1108.09 190.698 1108.36 190.533 1108.53C190.366 1108.7 190.097 1108.7 189.932 1108.53C189.767 1108.36 189.767 1108.09 189.932 1107.93C190.097 1107.76 190.366 1107.76 190.533 1107.93Z" fill="white"/>
<path fill-rule="evenodd" clip-rule="evenodd" d="M180.521 1176.76C180.686 1176.93 180.686 1177.2 180.521 1177.36C180.355 1177.53 180.085 1177.53 179.92 1177.36C179.754 1177.2 179.754 1176.93 179.92 1176.76C180.085 1176.6 180.355 1176.6 180.521 1176.76Z" fill="white"/>
<path fill-rule="evenodd" clip-rule="evenodd" d="M239.343 1142.97C239.508 1143.14 239.508 1143.41 239.343 1143.57C239.176 1143.74 238.907 1143.74 238.742 1143.57C238.576 1143.41 238.576 1143.14 238.742 1142.97C238.907 1142.81 239.176 1142.81 239.343 1142.97Z" fill="white"/>
<path fill-rule="evenodd" clip-rule="evenodd" d="M229.289 1126.74C229.778 1127.23 229.778 1128.02 229.289 1128.51C228.8 1129 228.008 1129 227.519 1128.51C227.03 1128.02 227.03 1127.23 227.519 1126.74C228.008 1126.25 228.8 1126.25 229.289 1126.74Z" fill="white"/>
<path fill-rule="evenodd" clip-rule="evenodd" d="M230.541 1045.39C231.029 1045.88 231.029 1046.67 230.541 1047.16C230.052 1047.65 229.259 1047.65 228.77 1047.16C228.282 1046.67 228.282 1045.88 228.77 1045.39C229.259 1044.9 230.052 1044.9 230.541 1045.39Z" fill="white"/>
<path fill-rule="evenodd" clip-rule="evenodd" d="M190.492 1163.04C190.98 1163.53 190.98 1164.32 190.492 1164.81C190.003 1165.3 189.21 1165.3 188.722 1164.81C188.233 1164.32 188.233 1163.53 188.722 1163.04C189.21 1162.55 190.003 1162.55 190.492 1163.04Z" fill="white"/>
<path fill-rule="evenodd" clip-rule="evenodd" d="M162.958 1390.82C163.447 1391.31 163.447 1392.1 162.958 1392.58C162.469 1393.07 161.677 1393.07 161.188 1392.58C160.699 1392.1 160.699 1391.31 161.188 1390.82C161.677 1390.33 162.469 1390.33 162.958 1390.82Z" fill="white"/>
<path fill-rule="evenodd" clip-rule="evenodd" d="M110.394 1407.09C110.882 1407.57 110.882 1408.37 110.394 1408.85C109.904 1409.34 109.113 1409.34 108.625 1408.85C108.135 1408.37 108.135 1407.57 108.625 1407.09C109.113 1406.6 109.904 1406.6 110.394 1407.09Z" fill="white"/>
<path fill-rule="evenodd" clip-rule="evenodd" d="M200.504 1343.26C200.993 1343.75 200.993 1344.54 200.504 1345.03C200.015 1345.52 199.222 1345.52 198.734 1345.03C198.245 1344.54 198.245 1343.75 198.734 1343.26C199.222 1342.77 200.015 1342.77 200.504 1343.26Z" fill="white"/>
</svg>
