<svg width="299" height="293" viewBox="0 0 299 293" fill="none" xmlns="http://www.w3.org/2000/svg">
<path fill-rule="evenodd" clip-rule="evenodd" d="M12.5675 42.0876C13.881 40.7746 16.0106 40.7746 17.324 42.0876C18.6345 43.4006 18.6345 45.5295 17.324 46.8425C16.0106 48.1556 13.881 48.1556 12.5675 46.8425C11.2541 45.5295 11.2541 43.4006 12.5675 42.0876Z" fill="white"/>
<path fill-rule="evenodd" clip-rule="evenodd" d="M35.6101 95.3904C36.2659 94.7347 37.3313 94.7347 37.9871 95.3904C38.645 96.0461 38.645 97.1134 37.9871 97.7691C37.3313 98.4248 36.2659 98.4248 35.6101 97.7691C34.9543 97.1134 34.9543 96.0461 35.6101 95.3904Z" fill="white"/>
<path fill-rule="evenodd" clip-rule="evenodd" d="M28.8854 125.65C29.5413 124.995 30.6053 124.995 31.2639 125.65C31.9198 126.306 31.9198 127.37 31.2639 128.029C30.6053 128.685 29.5413 128.685 28.8854 128.029C28.2296 127.37 28.2296 126.306 28.8854 125.65Z" fill="white"/>
<path fill-rule="evenodd" clip-rule="evenodd" d="M0.935547 48.5692H2.91517V50.8107H0.935547V48.5692Z" fill="white"/>
<path fill-rule="evenodd" clip-rule="evenodd" d="M1.18611 49.0818C1.52234 48.7478 2.06702 48.7478 2.401 49.0818C2.73722 49.418 2.73722 49.9627 2.401 50.2967C2.06702 50.6329 1.52234 50.6329 1.18611 50.2967C0.852131 49.9627 0.852131 49.418 1.18611 49.0818Z" fill="white"/>
<path fill-rule="evenodd" clip-rule="evenodd" d="M39.2503 99.0306C39.7512 98.5296 40.5716 98.5296 41.0726 99.0306C41.5736 99.5349 41.5736 100.349 41.0726 100.853C40.5716 101.354 39.7512 101.354 39.2503 100.853C38.7493 100.349 38.7493 99.5349 39.2503 99.0306Z" fill="white"/>
<path fill-rule="evenodd" clip-rule="evenodd" d="M57.7426 80.5395C58.2435 80.0352 59.0639 80.0352 59.5649 80.5395C60.0659 81.0405 60.0659 81.8575 59.5649 82.3619C59.0639 82.8629 58.2435 82.8629 57.7426 82.3619C57.2416 81.8575 57.2416 81.0405 57.7426 80.5395Z" fill="white"/>
<path fill-rule="evenodd" clip-rule="evenodd" d="M42.6143 77.1775C43.1153 76.6732 43.9323 76.6732 44.4333 77.1775C44.9376 77.6785 44.9376 78.4955 44.4333 78.9998C43.9323 79.5008 43.1153 79.5008 42.6143 78.9998C42.1099 78.4955 42.1099 77.6785 42.6143 77.1775Z" fill="white"/>
<path fill-rule="evenodd" clip-rule="evenodd" d="M26.257 84.3562C26.5059 84.104 26.916 84.104 27.1682 84.3562C27.4204 84.6084 27.4204 85.0152 27.1682 85.2674C26.916 85.5195 26.5059 85.5195 26.257 85.2674C26.0049 85.0152 26.0049 84.6084 26.257 84.3562Z" fill="white"/>
<path fill-rule="evenodd" clip-rule="evenodd" d="M69.9661 139.833C70.2149 139.581 70.6251 139.581 70.8772 139.833C71.1294 140.085 71.1294 140.492 70.8772 140.744C70.6251 140.996 70.2149 140.996 69.9661 140.744C69.7139 140.492 69.7139 140.085 69.9661 139.833Z" fill="white"/>
<path fill-rule="evenodd" clip-rule="evenodd" d="M39.7033 84.3562C39.9555 84.104 40.3623 84.104 40.6145 84.3562C40.87 84.6084 40.87 85.0152 40.6145 85.2674C40.3623 85.5195 39.9555 85.5195 39.7033 85.2674C39.4545 85.0152 39.4545 84.6084 39.7033 84.3562Z" fill="white"/>
<path fill-rule="evenodd" clip-rule="evenodd" d="M24.1215 93.9861C24.6225 93.4851 25.4395 93.4851 25.9439 93.9861C26.4449 94.4904 26.4449 95.3075 25.9439 95.8084C25.4395 96.3128 24.6225 96.3128 24.1215 95.8084C23.6172 95.3075 23.6172 94.4904 24.1215 93.9861Z" fill="white"/>
<path fill-rule="evenodd" clip-rule="evenodd" d="M59.4237 130.971C59.9281 130.47 60.7451 130.47 61.2461 130.971C61.747 131.475 61.747 132.292 61.2461 132.793C60.7451 133.297 59.9281 133.297 59.4237 132.793C58.9228 132.292 58.9228 131.475 59.4237 130.971Z" fill="white"/>
<path fill-rule="evenodd" clip-rule="evenodd" d="M32.5259 179.725C33.0268 179.221 33.8472 179.221 34.3482 179.725C34.8492 180.226 34.8492 181.044 34.3482 181.548C33.8472 182.049 33.0268 182.049 32.5259 181.548C32.0249 181.044 32.0249 180.226 32.5259 179.725Z" fill="white"/>
<path fill-rule="evenodd" clip-rule="evenodd" d="M147.057 102.608C148.37 101.295 150.5 101.295 151.813 102.608C153.124 103.921 153.124 106.05 151.813 107.363C150.5 108.676 148.37 108.676 147.057 107.363C145.743 106.05 145.743 103.921 147.057 102.608Z" fill="white"/>
<path fill-rule="evenodd" clip-rule="evenodd" d="M214.302 55.5364C215.613 54.2234 217.745 54.2234 219.056 55.5364C220.37 56.8494 220.37 58.9783 219.056 60.2913C217.745 61.6044 215.613 61.6044 214.302 60.2913C212.988 58.9783 212.988 56.8494 214.302 55.5364Z" fill="white"/>
<path fill-rule="evenodd" clip-rule="evenodd" d="M103.346 149.679C104.659 148.366 106.792 148.366 108.102 149.679C109.416 150.992 109.416 153.121 108.102 154.434C106.792 155.747 104.659 155.747 103.346 154.434C102.035 153.121 102.035 150.992 103.346 149.679Z" fill="white"/>
<path fill-rule="evenodd" clip-rule="evenodd" d="M115.114 183.301C116.427 181.988 118.557 181.988 119.87 183.301C121.184 184.614 121.184 186.743 119.87 188.056C118.557 189.369 116.427 189.369 115.114 188.056C113.803 186.743 113.803 184.614 115.114 183.301Z" fill="white"/>
<path fill-rule="evenodd" clip-rule="evenodd" d="M126.39 63.449C127.046 62.7932 128.111 62.7932 128.767 63.449C129.425 64.1048 129.425 65.1702 128.767 65.826C128.111 66.4839 127.046 66.4839 126.39 65.826C125.734 65.1702 125.734 64.1048 126.39 63.449Z" fill="white"/>
<path fill-rule="evenodd" clip-rule="evenodd" d="M257.517 1.2477C258.173 0.591911 259.237 0.591911 259.895 1.2477C260.552 1.9035 260.552 2.9689 259.895 3.6247C259.237 4.28256 258.173 4.28256 257.517 3.6247C256.862 2.9689 256.862 1.9035 257.517 1.2477Z" fill="white"/>
<path fill-rule="evenodd" clip-rule="evenodd" d="M237.344 21.4212C238 20.7654 239.065 20.7654 239.721 21.4212C240.379 22.077 240.379 23.1424 239.721 23.7982C239.065 24.456 238 24.456 237.344 23.7982C236.688 23.1424 236.688 22.077 237.344 21.4212Z" fill="white"/>
<path fill-rule="evenodd" clip-rule="evenodd" d="M168.418 155.911C169.074 155.255 170.14 155.255 170.795 155.911C171.453 156.566 171.453 157.632 170.795 158.288C170.14 158.945 169.074 158.945 168.418 158.288C167.763 157.632 167.763 156.566 168.418 155.911Z" fill="white"/>
<path fill-rule="evenodd" clip-rule="evenodd" d="M60.8268 95.3904C61.4826 94.7346 62.548 94.7346 63.2038 95.3904C63.8617 96.0462 63.8617 97.1116 63.2038 97.7674C62.548 98.4253 61.4826 98.4253 60.8268 97.7674C60.171 97.1116 60.171 96.0462 60.8268 95.3904Z" fill="white"/>
<path fill-rule="evenodd" clip-rule="evenodd" d="M161.694 187.852C162.35 187.196 163.414 187.196 164.072 187.852C164.728 188.508 164.728 189.574 164.072 190.23C163.414 190.886 162.35 190.886 161.694 190.23C161.038 189.574 161.038 188.508 161.694 187.852Z" fill="white"/>
<path fill-rule="evenodd" clip-rule="evenodd" d="M175.141 221.474C175.797 220.818 176.864 220.818 177.523 221.474C178.176 222.13 178.176 223.194 177.523 223.852C176.864 224.508 175.797 224.508 175.141 223.852C174.488 223.194 174.488 222.13 175.141 221.474Z" fill="white"/>
<path fill-rule="evenodd" clip-rule="evenodd" d="M107.898 176.084C108.551 175.428 109.618 175.428 110.277 176.084C110.933 176.74 110.933 177.806 110.277 178.462C109.618 179.118 108.551 179.118 107.898 178.462C107.242 177.806 107.242 176.74 107.898 176.084Z" fill="white"/>
<path fill-rule="evenodd" clip-rule="evenodd" d="M7.03108 241.648C7.68692 240.992 8.75371 240.992 9.40955 241.648C10.0654 242.301 10.0654 243.369 9.40955 244.028C8.75371 244.681 7.68692 244.681 7.03108 244.028C6.37524 243.369 6.37524 242.301 7.03108 241.648Z" fill="white"/>
<path fill-rule="evenodd" clip-rule="evenodd" d="M133.392 109.119C133.896 108.614 134.713 108.614 135.214 109.119C135.718 109.62 135.718 110.437 135.214 110.941C134.713 111.442 133.896 111.442 133.392 110.941C132.891 110.437 132.891 109.62 133.392 109.119Z" fill="white"/>
<path fill-rule="evenodd" clip-rule="evenodd" d="M172.058 161.233C172.559 160.729 173.38 160.729 173.881 161.233C174.382 161.734 174.382 162.551 173.881 163.056C173.38 163.556 172.559 163.556 172.058 163.056C171.558 162.551 171.558 161.734 172.058 161.233Z" fill="white"/>
<path fill-rule="evenodd" clip-rule="evenodd" d="M116.582 174.682C117.086 174.178 117.903 174.178 118.404 174.682C118.905 175.183 118.905 176 118.404 176.505C117.903 177.006 117.086 177.006 116.582 176.505C116.081 176 116.081 175.183 116.582 174.682Z" fill="white"/>
<path fill-rule="evenodd" clip-rule="evenodd" d="M240.985 151.144C241.489 150.643 242.306 150.643 242.807 151.144C243.308 151.648 243.308 152.465 242.807 152.966C242.306 153.471 241.489 153.471 240.985 152.966C240.484 152.465 240.484 151.648 240.985 151.144Z" fill="white"/>
<path fill-rule="evenodd" clip-rule="evenodd" d="M274.607 142.738C275.108 142.237 275.928 142.237 276.429 142.738C276.93 143.243 276.93 144.06 276.429 144.561C275.928 145.065 275.108 145.065 274.607 144.561C274.106 144.06 274.106 143.243 274.607 142.738Z" fill="white"/>
<path fill-rule="evenodd" clip-rule="evenodd" d="M188.87 142.738C189.371 142.237 190.191 142.237 190.692 142.738C191.193 143.243 191.193 144.06 190.692 144.561C190.191 145.065 189.371 145.065 188.87 144.561C188.369 144.06 188.369 143.243 188.87 142.738Z" fill="white"/>
<path fill-rule="evenodd" clip-rule="evenodd" d="M175.42 136.016C175.924 135.512 176.741 135.512 177.242 136.016C177.746 136.517 177.746 137.334 177.242 137.839C176.741 138.34 175.924 138.34 175.42 137.839C174.919 137.334 174.919 136.517 175.42 136.016Z" fill="white"/>
<path fill-rule="evenodd" clip-rule="evenodd" d="M76.2349 152.828C76.7359 152.323 77.5562 152.323 78.0572 152.828C78.5582 153.329 78.5582 154.146 78.0572 154.65C77.5562 155.151 76.7359 155.151 76.2349 154.65C75.7339 154.146 75.7339 153.329 76.2349 152.828Z" fill="white"/>
<path fill-rule="evenodd" clip-rule="evenodd" d="M160.746 146.558C160.995 146.305 161.405 146.305 161.658 146.558C161.91 146.81 161.91 147.217 161.658 147.469C161.405 147.721 160.995 147.721 160.746 147.469C160.494 147.217 160.494 146.81 160.746 146.558Z" fill="white"/>
<path fill-rule="evenodd" clip-rule="evenodd" d="M71.646 165.05C71.8981 164.798 72.305 164.798 72.5571 165.05C72.8093 165.302 72.8093 165.709 72.5571 165.961C72.305 166.213 71.8981 166.213 71.646 165.961C71.3972 165.709 71.3972 165.302 71.646 165.05Z" fill="white"/>
<path fill-rule="evenodd" clip-rule="evenodd" d="M86.7772 153.282C87.0294 153.03 87.4362 153.03 87.6884 153.282C87.9405 153.534 87.9405 153.941 87.6884 154.193C87.4362 154.445 87.0294 154.445 86.7772 154.193C86.525 153.941 86.525 153.534 86.7772 153.282Z" fill="white"/>
<path fill-rule="evenodd" clip-rule="evenodd" d="M204.455 200.353C204.704 200.101 205.114 200.101 205.367 200.353C205.619 200.605 205.619 201.012 205.367 201.264C205.114 201.517 204.704 201.517 204.455 201.264C204.203 201.012 204.203 200.605 204.455 200.353Z" fill="white"/>
<path fill-rule="evenodd" clip-rule="evenodd" d="M204.455 239.019C204.708 238.767 205.114 238.767 205.367 239.019C205.619 239.268 205.619 239.678 205.367 239.93C205.114 240.182 204.708 240.182 204.455 239.93C204.203 239.678 204.203 239.268 204.455 239.019Z" fill="white"/>
<path fill-rule="evenodd" clip-rule="evenodd" d="M182.6 239.019C182.852 238.767 183.259 238.767 183.511 239.019C183.763 239.271 183.763 239.678 183.511 239.93C183.259 240.182 182.852 240.182 182.6 239.93C182.351 239.678 182.351 239.271 182.6 239.019Z" fill="white"/>
<path fill-rule="evenodd" clip-rule="evenodd" d="M182.601 232.294C182.853 232.042 183.26 232.042 183.512 232.294C183.764 232.547 183.764 232.953 183.512 233.206C183.26 233.458 182.853 233.458 182.601 233.206C182.349 232.953 182.349 232.547 182.601 232.294Z" fill="white"/>
<path fill-rule="evenodd" clip-rule="evenodd" d="M172.512 144.876C172.764 144.624 173.171 144.624 173.423 144.876C173.678 145.129 173.678 145.535 173.423 145.788C173.171 146.04 172.764 146.04 172.512 145.788C172.263 145.535 172.263 145.129 172.512 144.876Z" fill="white"/>
<path fill-rule="evenodd" clip-rule="evenodd" d="M108.631 173.455C108.883 173.203 109.29 173.203 109.542 173.455C109.794 173.708 109.794 174.114 109.542 174.367C109.29 174.619 108.883 174.619 108.631 174.367C108.382 174.114 108.382 173.708 108.631 173.455Z" fill="white"/>
<path fill-rule="evenodd" clip-rule="evenodd" d="M156.93 156.19C157.431 155.686 158.248 155.686 158.749 156.19C159.254 156.691 159.254 157.508 158.749 158.012C158.248 158.513 157.431 158.513 156.93 158.012C156.426 157.508 156.426 156.691 156.93 156.19Z" fill="white"/>
<path fill-rule="evenodd" clip-rule="evenodd" d="M88.0041 172.999C88.505 172.498 89.3254 172.498 89.8264 172.999C90.3274 173.503 90.3274 174.32 89.8264 174.821C89.3254 175.325 88.505 175.325 88.0041 174.821C87.4997 174.32 87.4997 173.503 88.0041 172.999Z" fill="white"/>
<path fill-rule="evenodd" clip-rule="evenodd" d="M103.134 174.68C103.635 174.179 104.452 174.179 104.956 174.68C105.457 175.184 105.457 176.001 104.956 176.502C104.452 177.006 103.635 177.006 103.134 176.502C102.63 176.001 102.63 175.184 103.134 174.68Z" fill="white"/>
<path fill-rule="evenodd" clip-rule="evenodd" d="M190.551 193.175C191.052 192.67 191.872 192.67 192.373 193.175C192.874 193.676 192.874 194.493 192.373 194.997C191.872 195.498 191.052 195.498 190.551 194.997C190.05 194.493 190.05 193.676 190.551 193.175Z" fill="white"/>
<path fill-rule="evenodd" clip-rule="evenodd" d="M296.212 193.122H298.191V195.364H296.212V193.122Z" fill="white"/>
<path fill-rule="evenodd" clip-rule="evenodd" d="M296.726 193.635C297.06 193.301 297.604 193.301 297.941 193.635C298.275 193.971 298.275 194.516 297.941 194.85C297.604 195.186 297.06 195.186 296.726 194.85C296.392 194.516 296.392 193.971 296.726 193.635Z" fill="white"/>
<path fill-rule="evenodd" clip-rule="evenodd" d="M145.162 231.838C145.663 231.337 146.48 231.337 146.984 231.838C147.485 232.342 147.485 233.159 146.984 233.66C146.48 234.164 145.663 234.164 145.162 233.66C144.658 233.159 144.658 232.342 145.162 231.838Z" fill="white"/>
<path fill-rule="evenodd" clip-rule="evenodd" d="M165.334 238.564C165.835 238.063 166.655 238.063 167.156 238.564C167.657 239.064 167.657 239.885 167.156 240.386C166.655 240.887 165.835 240.887 165.334 240.386C164.833 239.885 164.833 239.064 165.334 238.564Z" fill="white"/>
<path fill-rule="evenodd" clip-rule="evenodd" d="M179.106 290.17H181.347V292.15H179.106V290.17Z" fill="white"/>
<path fill-rule="evenodd" clip-rule="evenodd" d="M179.619 290.683C179.953 290.349 180.5 290.349 180.834 290.683C181.168 291.017 181.168 291.564 180.834 291.898C180.5 292.232 179.953 292.232 179.619 291.898C179.285 291.564 179.285 291.017 179.619 290.683Z" fill="white"/>
<path fill-rule="evenodd" clip-rule="evenodd" d="M119.945 203.259C120.446 202.758 121.263 202.758 121.767 203.259C122.268 203.763 122.268 204.58 121.767 205.081C121.263 205.585 120.446 205.585 119.945 205.081C119.441 204.58 119.441 203.763 119.945 203.259Z" fill="white"/>
</svg>
